<svg width="75" height="75" fill="none" xmlns="http://www.w3.org/2000/svg"><path d="M47.21 58.835a2.198 2.198 0 01-.276-4.377c6.944-.885 13.161-2.766 17.508-5.299 3.975-2.316 6.163-5.038 6.163-7.666 0-2.896-2.56-5.265-4.71-6.744a2.197 2.197 0 112.49-3.62C72.714 34.106 75 37.69 75 41.494c0 4.318-2.886 8.282-8.346 11.462-4.914 2.864-11.541 4.89-19.164 5.861a2.342 2.342 0 01-.28.018zm-10.246-3.148l-5.859-5.86a2.197 2.197 0 10-3.108 3.108l1.712 1.712c-6.564-.678-12.527-2.207-17.145-4.427-5.192-2.497-8.17-5.678-8.17-8.727 0-2.585 2.133-5.273 6.004-7.568a2.197 2.197 0 10-2.241-3.78C1.415 34.14 0 38.522 0 41.493c0 4.876 3.786 9.381 10.66 12.687 5.335 2.566 12.236 4.284 19.755 4.949l-2.418 2.417a2.198 2.198 0 003.108 3.108l5.86-5.86a2.198 2.198 0 000-3.107z" fill="#4351D8"/><path d="M23.012 37.093v-.529c0-1.864-1.141-2.226-2.672-2.226-.946 0-1.252-.835-1.252-1.67s.306-1.67 1.252-1.67c1.058 0 2.171-.139 2.171-2.393 0-1.615-.918-2.004-2.06-2.004-1.363 0-2.06.334-2.06 1.42 0 .945-.417 1.585-2.031 1.585-2.004 0-2.254-.417-2.254-1.753 0-2.17 1.558-4.982 6.345-4.982 3.535 0 6.207 1.28 6.207 5.038 0 2.031-.752 3.924-2.143 4.564 1.642.613 2.839 1.837 2.839 4.092v.528c0 4.565-3.145 6.29-7.042 6.29-4.787 0-6.624-2.922-6.624-5.26 0-1.252.529-1.587 2.06-1.587 1.78 0 2.226.39 2.226 1.448 0 1.308 1.225 1.614 2.477 1.614 1.893 0 2.561-.695 2.561-2.505zm21.236-.528v.25c0 4.787-2.978 6.568-6.819 6.568-3.84 0-6.847-1.78-6.847-6.568V29.44c0-4.787 3.09-6.568 7.098-6.568 4.703 0 6.568 2.922 6.568 5.232 0 1.336-.64 1.753-2.032 1.753-1.196 0-2.254-.306-2.254-1.586 0-1.057-1.113-1.614-2.421-1.614-1.643 0-2.617.863-2.617 2.783v2.505c.89-.974 2.143-1.225 3.48-1.225 3.172 0 5.844 1.392 5.844 5.846zm-9.324.556c0 1.92.946 2.755 2.505 2.755s2.477-.834 2.477-2.755v-.25c0-2.032-.918-2.812-2.505-2.812-1.503 0-2.477.724-2.477 2.561v.501zm12.691-.306V29.44c0-4.787 2.978-6.568 6.82-6.568 3.84 0 6.846 1.781 6.846 6.568v7.376c0 4.787-3.006 6.568-6.847 6.568-3.84 0-6.819-1.78-6.819-6.568zm9.324-7.376c0-1.92-.946-2.783-2.505-2.783-1.558 0-2.477.863-2.477 2.783v7.376c0 1.92.919 2.783 2.477 2.783 1.559 0 2.505-.863 2.505-2.783V29.44zm9.616-6.587a6.599 6.599 0 01-6.592-6.592 6.599 6.599 0 016.592-6.592 6.6 6.6 0 016.592 6.592 6.6 6.6 0 01-6.592 6.592zm0-8.79a2.2 2.2 0 00-2.197 2.198 2.2 2.2 0 002.197 2.197 2.2 2.2 0 002.198-2.197 2.2 2.2 0 00-2.198-2.197z" fill="#4351D8"/></svg>