<svg width="83" height="66" fill="none" xmlns="http://www.w3.org/2000/svg"><path d="M51.864 51.073l-.023.016c-13.9 8.266-30.779 8.901-43.629 1.779-.22-14.669 8.306-29.227 22.175-37.572l.023-.016c13.916-8.298 30.818-8.948 43.668-1.826.235 14.684-8.313 29.274-22.214 37.62zm30.309-40.267l-.024-.313-.462-2.006-1.426-.902C72.738 2.837 63.806.33 54.41.33h-.298c-9.668.055-19.314 2.78-27.886 7.89l-.039.024C17.623 13.392 10.657 20.6 6.05 29.102 1.52 37.455-.533 46.599.118 55.562l.149 2.062 1.755 1.105C9.56 63.493 18.508 66 27.919 66h.235c9.685-.04 19.338-2.766 27.918-7.875l.055-.04c8.549-5.14 15.499-12.34 20.106-20.826 4.537-8.345 6.59-17.497 5.94-26.453z" fill="#5562DC"/><path d="M41.874 16.032v9.865c3.886 0 7.044 3.166 7.044 7.052a7.05 7.05 0 01-7.044 7.045c-3.887 0-7.052-3.158-7.052-7.045 0-1.755.642-3.361 1.716-4.6l-7.327-6.605a16.817 16.817 0 00-4.254 11.205c0 9.325 7.585 16.918 16.917 16.918 9.324 0 16.917-7.593 16.917-16.918 0-9.332-7.593-16.917-16.917-16.917z" fill="#5562DC"/></svg>