<svg width="50" height="50" fill="none" xmlns="http://www.w3.org/2000/svg"><path d="M7.143 18.519a6.481 6.481 0 100 12.962 6.481 6.481 0 000-12.962zm0 10.317a3.836 3.836 0 110-7.672 3.836 3.836 0 010 7.672zm40.873-5.159H18.122a1.323 1.323 0 000 2.646h29.894a1.323 1.323 0 100-2.646zM7.143 0a6.481 6.481 0 100 12.963A6.481 6.481 0 007.143 0zm0 10.318a3.836 3.836 0 110-7.673 3.836 3.836 0 010 7.673zm10.979-2.514h29.894a1.323 1.323 0 100-2.645H18.122a1.323 1.323 0 000 2.645zM7.143 37.037a6.481 6.481 0 100 12.963 6.481 6.481 0 000-12.963zm3.836 6.482a3.836 3.836 0 11-7.672 0 3.836 3.836 0 017.672 0zm37.037-1.323H18.122a1.323 1.323 0 000 2.645h29.894a1.323 1.323 0 100-2.645z" fill="#4351D8"/></svg>