<svg width="275" height="48" fill="none" xmlns="http://www.w3.org/2000/svg"><path d="M84.805 25.476c.266-1.562.443-3.462.532-5.701l.067-1.662h5.352v11.103h-7.18c.553-.93.964-2.178 1.23-3.74zm-3.69 9.824h13.231v4.554h7.181V29.216h-3.058V12.029h-19.68l-.267 7.081c-.155 3.324-.51 5.84-1.064 7.546-.554 1.707-1.507 2.56-2.858 2.56h-.666v10.638h7.18V35.3h.001z" fill="#040606"/><path d="M46.896 42.051a41.28 41.28 0 007.129-5.418h-3.28v-5.159a35 35 0 01-6.942 5.468l-.014.008c-10.121 6.022-22.412 6.48-31.768 1.294a27.394 27.394 0 01.273-4.252l-3.056-5.77H9.18v8.411H6.067a32.825 32.825 0 00.063 3.573l.11 1.504 1.275.805c5.487 3.464 12.002 5.293 18.853 5.293h.175c7.048-.032 14.074-2.016 20.32-5.736l.034-.02h-.001z" fill="#4351D8"/><path d="M46.896 42.051a41.28 41.28 0 007.129-5.418h-3.28v-5.159a35 35 0 01-6.942 5.468l-.014.008c-10.121 6.022-22.412 6.48-31.768 1.294a27.394 27.394 0 01.273-4.252l-3.056-5.77H9.18v8.411H6.067a32.825 32.825 0 00.063 3.573l.11 1.504 1.275.805c5.487 3.464 12.002 5.293 18.853 5.293h.175c7.048-.032 14.074-2.016 20.32-5.736l.034-.02h-.001z" fill="url(#paint0_linear)"/><path d="M25.749 10.696l-1.241 2.03-.849 1.386a35.137 35.137 0 014.521-3.23c10.133-6.04 22.436-6.511 31.792-1.327.006.38.002.761-.008 1.141h3.317c.927 0 1.812.066 2.655.191.03-1.088.006-2.177-.071-3.261l-.017-.226-.332-1.462-1.045-.66C58.995 1.824 52.493 0 45.653 0h-.214c-7.046.04-14.072 2.028-20.333 5.761a41.337 41.337 0 00-6.616 4.935h7.259z" fill="#4351D8"/><path d="M25.749 10.696l-1.241 2.03-.849 1.386a35.137 35.137 0 014.521-3.23c10.133-6.04 22.436-6.511 31.792-1.327.006.38.002.761-.008 1.141h3.317c.927 0 1.812.066 2.655.191.03-1.088.006-2.177-.071-3.261l-.017-.226-.332-1.462-1.045-.66C58.995 1.824 52.493 0 45.653 0h-.214c-7.046.04-14.072 2.028-20.333 5.761a41.337 41.337 0 00-6.616 4.935h7.259z" fill="url(#paint1_linear)"/><path d="M7.846 26.89h2.194l4.454 8.41h8.843l-6.881-11.968L23.37 12.03h-8.178l-4.954 8.677H7.846V12.03H0V35.3h7.846v-8.41zm121.349 1.088a5.137 5.137 0 01-5.132-5.13 5.137 5.137 0 015.132-5.132 5.137 5.137 0 015.131 5.131 5.137 5.137 0 01-5.131 5.131zm0-17.447c-6.791 0-12.316 5.525-12.316 12.316 0 6.79 5.525 12.316 12.316 12.316s12.315-5.525 12.315-12.316c0-6.79-5.525-12.316-12.315-12.316zm15.239 24.03h7.713V17.374h7.081V34.56h7.712V11.29h-22.506v23.27zm26.126-17.187h6.815V34.56h7.713V17.374h6.814V11.29H170.56v6.084zm33.188 6.016v-12.1h-7.712v23.27h7.413l7.978-12.067V34.56h7.713V11.29h-7.38l-8.011 12.1h-.001zm54.896 1.464l2.261-5.85 2.26 5.85h-4.521zm6.183-13.564h-7.712l-9.742 22.286-6.315-10.983 6.915-11.303h-8.178l-4.953 8.677h-2.394V11.29h-7.845v23.271h7.845v-8.41h2.194l4.455 8.41h15.825l1.562-4.056h8.841l1.564 4.056H275l-10.173-23.27zM36.526 36.061c6.79 0 12.315-5.524 12.315-12.315 0-6.791-5.525-12.316-12.315-12.316v7.184a5.137 5.137 0 015.131 5.131 5.137 5.137 0 01-5.131 5.131 5.137 5.137 0 01-5.131-5.13c0-1.28.47-2.45 1.247-3.349l-5.33-4.81a12.263 12.263 0 00-3.102 8.158c0 6.791 5.525 12.316 12.316 12.316zm29.448-15.255c0 .864-.266 1.535-.798 2.01-.532.477-1.33.715-2.394.715h-2.859v-5.452h2.86c1.063 0 1.86.239 2.393.715.532.477.797 1.147.797 2.011zm-13.896-8.777V35.3h7.846v-5.717h3.357c2.15 0 4.022-.354 5.619-1.064 1.595-.709 2.825-1.729 3.69-3.058.864-1.33 1.296-2.88 1.296-4.654 0-1.773-.432-3.325-1.296-4.654-.865-1.33-2.095-2.35-3.69-3.06-1.596-.708-3.47-1.063-5.619-1.063H52.078z" fill="#040606"/><defs><linearGradient id="paint0_linear" x1="6.045" y1="38.016" x2="54.025" y2="38.016" gradientUnits="userSpaceOnUse"><stop stop-color="#4351D8"/><stop offset="1" stop-color="#6D7BFF"/></linearGradient><linearGradient id="paint1_linear" x1="18.49" y1="7.056" x2="65.948" y2="7.056" gradientUnits="userSpaceOnUse"><stop stop-color="#4351D8"/><stop offset="1" stop-color="#6D7BFF"/></linearGradient></defs></svg>