<svg width="50" height="50" fill="none" xmlns="http://www.w3.org/2000/svg"><path d="M47.5 41.5c-4.974-2.638-8.789-4.116-12.185-4.683l.352-.484a.648.648 0 00.166-.666l-.78-3.124c.283-.4.55-.814.8-1.24 3.105-1.056 4.675-2.843 4.94-5.473 1.363-.071 2.54-1.289 2.54-2.663v-6.25c0-1.369-1.088-2.581-2.514-2.662C40.635 9.44 38.513 0 25 0 11.487 0 9.365 9.44 9.181 14.255c-1.353.08-2.514 1.216-2.514 2.662v6.25c0 1.416 1.25 2.666 2.75 2.666h1.25c.46 0 .9-.132 1.285-.358a18.224 18.224 0 002.996 7.068l-.781 3.124c0 .166 0 .416.166.666l.352.483c-3.396.568-7.211 2.046-12.185 4.684-1.583.75-2.5 2.333-2.5 4.083v3.584c0 .5.333.833.833.833h48.334c.5 0 .833-.333.833-.833v-3.584c0-1.666-1-3.25-2.5-4.083zm-22.495-1.906L27 44.167h-4.028l2.033-4.573zm-2.638 6.24h5.263l.488 2.5h-6.251l.5-2.5zM33.75 34.166l.333 1.5-.851 1.169a.744.744 0 00-.149.164l-3.466 4.8-1.1 1.51-2.246-5.055c2.74-.334 5.18-1.73 7.136-3.732.116-.116.23-.235.343-.356zm3.254-5.184a18.06 18.06 0 001.048-3.53c.318.191.679.32 1.068.363-.144 1.178-.667 2.29-2.116 3.167zm4.58-12.15v6.25c0 .5-.417 1-1 1h-1.25c-.5 0-1-.416-1-1v-6.25c0-.5.416-1 1-1h1.25c.5 0 1 .417 1 1zM25 1.667c5.136 0 13.781 1.676 14.153 12.597-.35.035-.684.142-.986.305C37.151 8.223 31.62 3.333 25 3.333c-6.619 0-12.151 4.888-13.166 11.233a2.617 2.617 0 00-.987-.303C11.22 3.343 19.864 1.667 25 1.667zM11.583 23.083c0 .5-.416 1-1 1h-1.25c-.5 0-1-.416-1-1v-6.25c0-.5.417-1 1-1h1.25c.5 0 1 .417 1 1v6.25zm1.75-6.416C13.333 10.25 18.583 5 25 5s11.667 5.25 11.667 11.667V22.5c0 2.757-.718 5.281-1.882 7.41-1.989.578-4.85.923-8.952.923-.5 0-.833.334-.833.834 0 .5.333.833.833.833 3.003 0 5.514-.184 7.57-.57l-.153.153c-.42.56-.862 1.069-1.324 1.529-1.962 1.828-4.303 2.935-6.558 3.044a.94.94 0 00-.368-.073.798.798 0 00-.347.075c-1.38-.064-2.793-.501-4.133-1.25-1.356-.78-2.633-1.903-3.77-3.325l-.25-.25-.049-.016a15.354 15.354 0 01-3.118-9.317v-5.833zM23.73 38.255l-2.246 5.055-1.1-1.51-3.466-4.8a1.478 1.478 0 00-.087-.079l-.913-1.254.333-1.5c.113.121.227.24.343.356 1.956 2.001 4.396 3.398 7.136 3.732zM1.667 45.583A2.86 2.86 0 013.25 43c5.312-2.822 9.136-4.238 12.542-4.661l4.973 6.837-.632 3.157H1.667v-2.75zm46.666 2.75H29.867l-.632-3.157 5.027-6.911c3.394.512 7.287 1.927 12.488 4.652 1 .583 1.583 1.583 1.583 2.666v2.75z" fill="#4351D8"/></svg>