<svg width="20" height="20" fill="none" xmlns="http://www.w3.org/2000/svg"><circle cx="10" cy="10" r="10" fill="url(#paint0_linear)"/><path d="M10.774 11.747H8.987V9.773a4.599 4.599 0 001.574-.626c.462-.303.693-.645.693-1.027 0-.347-.142-.609-.427-.787-.275-.186-.644-.28-1.106-.28-.756 0-1.551.25-2.387.747V6.12c.764-.524 1.662-.787 2.693-.787.871 0 1.614.24 2.227.72.622.463.933 1.111.933 1.947 0 .658-.24 1.218-.72 1.68a4.048 4.048 0 01-1.693 1v1.067zM9.921 15c-.33 0-.605-.111-.827-.333a1.167 1.167 0 01-.333-.84c0-.32.11-.591.333-.814.222-.222.498-.333.827-.333.32 0 .59.111.813.333.231.223.347.494.347.814 0 .329-.116.609-.347.84a1.107 1.107 0 01-.813.333z" fill="#fff"/><defs><linearGradient id="paint0_linear" x1="0" y1="10" x2="20" y2="10" gradientUnits="userSpaceOnUse"><stop stop-color="#4351D8"/><stop offset="1" stop-color="#6D7BFF"/></linearGradient></defs></svg>