<svg width="35" height="35" fill="none" xmlns="http://www.w3.org/2000/svg"><g clip-path="url(#clip0)" fill="#4351D8"><path d="M30 0c-.69 0-1.25.56-1.25 1.25v4.566c-6.436-6.23-16.703-6.064-22.934.371A16.219 16.219 0 001.25 17.5a1.25 1.25 0 002.5 0C3.752 9.906 9.909 3.751 17.503 3.753a13.75 13.75 0 0110.14 4.466l-5.538 1.846a1.251 1.251 0 10.79 2.375l7.5-2.5c.512-.17.857-.65.855-1.19v-7.5C31.25.56 30.69 0 30 0zm2.5 16.25c-.69 0-1.25.56-1.25 1.25-.002 7.594-6.159 13.749-13.753 13.747a13.75 13.75 0 01-10.14-4.466l5.538-1.846a1.251 1.251 0 10-.79-2.375l-7.5 2.5a1.25 1.25 0 00-.855 1.19v7.5a1.25 1.25 0 102.5 0v-4.566c6.435 6.23 16.703 6.064 22.934-.371A16.219 16.219 0 0033.75 17.5c0-.69-.56-1.25-1.25-1.25z"/></g><defs><clipPath id="clip0"><path fill="#fff" d="M0 0h35v35H0z"/></clipPath></defs></svg>