<svg width="35" height="35" fill="none" xmlns="http://www.w3.org/2000/svg"><g clip-path="url(#clip0)"><path d="M.958 15.427a1.304 1.304 0 112.57.434C2.201 23.676 7.46 31.088 15.275 32.415c7.816 1.328 15.228-3.931 16.555-11.747 1.328-7.815-3.93-15.227-11.747-16.554a14.354 14.354 0 00-12.99 4.458l5.775 1.924a1.304 1.304 0 11-.823 2.475l-7.823-2.608a1.304 1.304 0 01-.892-1.237V1.304a1.304 1.304 0 112.608 0v4.762C12.652-.32 23.27-.054 29.657 6.66c6.385 6.714 6.12 17.334-.595 23.72-6.713 6.385-17.333 6.12-23.719-.595A16.777 16.777 0 01.958 15.427z" fill="#4351D8"/></g><defs><clipPath id="clip0"><path fill="#fff" transform="matrix(-1 0 0 1 35 0)" d="M0 0h35v35H0z"/></clipPath></defs></svg>