<svg width="35" height="35" fill="none" xmlns="http://www.w3.org/2000/svg"><g clip-path="url(#clip0)"><path d="M34.042 15.427a1.304 1.304 0 10-2.57.434c1.327 7.815-3.932 15.227-11.748 16.554-7.814 1.329-15.227-3.93-16.554-11.746C1.842 12.853 7.102 5.441 14.917 4.114a14.354 14.354 0 0112.99 4.458l-5.775 1.924a1.304 1.304 0 10.823 2.475l7.823-2.608c.533-.177.892-.676.892-1.237V1.304a1.304 1.304 0 10-2.608 0v4.762C22.348-.32 11.73-.054 5.343 6.66c-6.385 6.714-6.12 17.334.595 23.72 6.714 6.385 17.333 6.12 23.719-.595a16.777 16.777 0 004.385-14.358z" fill="#4351D8"/></g><defs><clipPath id="clip0"><path fill="#fff" d="M0 0h35v35H0z"/></clipPath></defs></svg>