<svg width="60" height="60" fill="none" xmlns="http://www.w3.org/2000/svg"><circle cx="30" cy="30" r="30" fill="#4351D8"/><path d="M42.57 41.95H18.074c-1.23 0-2.228.997-2.228 2.228v1.19a2.23 2.23 0 002.228 2.23h24.498a2.23 2.23 0 002.228-2.23v-1.19c0-1.23-.998-2.228-2.228-2.228z" stroke="#fff" stroke-width="1.5"/><path d="M44.8 43.581c.484 0 .877.393.877.878v.63a.877.877 0 01-.877.877V43.58zM34.71 41.95v-7.405l2.631.408v6.997H34.71zm5.593-12.299l.055-7.09 1.425-.063-.055 7.341-1.425-.188z" stroke="#fff" stroke-width="1.5"/><path d="M45.567 35.298c-1.645.565-12.064-.627-12.613-1.255-.548-.627-.877-4.957 0-5.145.878-.188 12.339 1.506 12.613 1.506.274 0 1.48 2.635 0 4.894zM34.051 19.88c1.575 0 2.852-1.46 2.852-3.262s-1.277-3.263-2.852-3.263-2.851 1.46-2.851 3.263c0 1.802 1.276 3.263 2.851 3.263z" stroke="#fff" stroke-width="1.5"/><path d="M33.119 13.543c2.906-1.066 7.239-1.713 10.858-1.587 2.982.103 3.4 8.301.439 8.803-2.962.502-7.875.74-11.297-1.066" stroke="#fff" stroke-width="1.5"/><path d="M45.512 12.96c.805.041 2.303.313 2.303 3.388 0 2.618-1.37 3.451-2.083 3.514m-7.349 1.192c-.109.577-.384 1.13 0 1.38.384.252 3.949.064 4.716-.125.768-.188.165-1.38.165-1.38m4.551-4.706c2.907 3.765 2.962 23.907-2.138 28.613m-29.832-1.255a.877.877 0 00-.877.878v.63c0 .484.393.877.877.877V43.58zm10.046-1.631v-7.405l-2.632.408v6.997h2.632zm-5.594-12.299l-.055-7.09-1.425-.063.055 7.341 1.425-.188z" stroke="#fff" stroke-width="1.5"/><path d="M15.033 35.298c1.645.565 12.064-.627 12.613-1.255.548-.627.877-4.957 0-5.145-.878-.188-12.339 1.506-12.613 1.506-.274 0-1.48 2.635 0 4.894zM26.549 19.88c-1.575 0-2.852-1.46-2.852-3.262s1.277-3.263 2.852-3.263 2.851 1.46 2.851 3.263c0 1.802-1.276 3.263-2.851 3.263z" stroke="#fff" stroke-width="1.5"/><path d="M27.481 13.543c-2.906-1.066-7.239-1.713-10.858-1.587-2.982.103-3.4 8.301-.439 8.803 2.962.502 7.875.74 11.297-1.066" stroke="#fff" stroke-width="1.5"/><path d="M15.088 12.96c-.804.041-2.303.313-2.303 3.388 0 2.618 1.37 3.451 2.084 3.514m7.348 1.192c.11.577.384 1.13 0 1.38-.384.252-3.949.064-4.716-.125-.768-.188-.165-1.38-.165-1.38m-4.551-4.706c-2.907 3.765-2.962 23.907 2.138 28.613" stroke="#fff" stroke-width="1.5"/></svg>