<svg width="15" height="15" fill="none" xmlns="http://www.w3.org/2000/svg"><g clip-path="url(#clip0)"><path d="M3.484 9.601l-.792 4.855a.47.47 0 00.69.485L7.5 12.665l4.119 2.277a.47.47 0 00.69-.486l-.793-4.854 3.35-3.434a.469.469 0 00-.264-.79L9.99 4.672 7.924.271c-.155-.33-.694-.33-.848 0L5.009 4.672.4 5.377a.469.469 0 00-.265.79l3.35 3.434z" fill="url(#paint0_linear)"/></g><defs><linearGradient id="paint0_linear" x1="0" y1=".024" x2="15.52" y2=".584" gradientUnits="userSpaceOnUse"><stop stop-color="#4351D8"/><stop offset="1" stop-color="#007BD5"/></linearGradient><clipPath id="clip0"><path fill="#fff" d="M0 0h15v15H0z"/></clipPath></defs></svg>