<svg width="20" height="20" fill="none" xmlns="http://www.w3.org/2000/svg"><g clip-path="url(#clip0)"><path d="M10 0C4.488 0 .002 4.486.002 10s4.486 10 10 10a.747.747 0 100-1.494c-4.69 0-8.506-3.816-8.506-8.506S5.31 1.494 10 1.494 18.507 5.31 18.507 10v2.313c0 .864-.703 1.567-1.567 1.567a1.568 1.568 0 01-1.566-1.567V10a5.38 5.38 0 00-5.373-5.374A5.38 5.38 0 004.627 10a5.38 5.38 0 005.374 5.374 5.362 5.362 0 004.104-1.911 3.064 3.064 0 002.835 1.91 3.064 3.064 0 003.06-3.06V10c0-5.514-4.485-10-10-10zm0 13.88A3.884 3.884 0 016.121 10c0-2.14 1.74-3.88 3.88-3.88 2.139 0 3.88 1.74 3.88 3.88 0 2.14-1.741 3.88-3.88 3.88z" fill="#4351D8"/></g><defs><clipPath id="clip0"><path fill="#fff" d="M0 0h20v20H0z"/></clipPath></defs></svg>