<svg width="20" height="20" fill="none" xmlns="http://www.w3.org/2000/svg"><g clip-path="url(#clip0)" fill="#4351D8"><path d="M10.001 0A5.207 5.207 0 004.81 5.193 5.207 5.207 0 0010 10.386a5.207 5.207 0 005.193-5.193A5.207 5.207 0 0010.001 0zm8.912 14.535a4.846 4.846 0 00-.521-.952c-1.044-1.542-2.654-2.563-4.468-2.812-.226-.023-.476.023-.657.159A5.463 5.463 0 0110 11.995a5.463 5.463 0 01-3.265-1.065.85.85 0 00-.657-.159 6.407 6.407 0 00-4.468 2.812 5.58 5.58 0 00-.521.952c-.068.136-.045.295.023.431.181.318.408.635.612.907.317.43.657.816 1.043 1.18.317.317.68.611 1.043.906A10.273 10.273 0 009.979 20a10.28 10.28 0 006.168-2.04c.362-.273.725-.59 1.043-.908.362-.363.725-.748 1.043-1.179.226-.295.43-.59.612-.907.113-.136.136-.295.068-.43z"/></g><defs><clipPath id="clip0"><path fill="#fff" d="M0 0h20v20H0z"/></clipPath></defs></svg>