<svg width="35" height="35" fill="none" xmlns="http://www.w3.org/2000/svg"><g clip-path="url(#clip0)"><path d="M20.26 13.577h-4.372v-4.38a1.094 1.094 0 10-2.186 0v4.38h-4.37c-.605 0-1.094.199-1.094.804s.49 1.386 1.093 1.386h4.372v4.378a1.094 1.094 0 102.186 0v-4.378h4.371a1.095 1.095 0 00-.001-2.19zm14.407 19.519l-9.036-8.892c2.366-2.571 3.82-5.971 3.82-9.713C29.451 6.487 22.859 0 14.726 0S0 6.487 0 14.491s6.593 14.491 14.726 14.491c3.514 0 6.737-1.215 9.268-3.236l9.072 8.927c.442.436 1.16.436 1.601 0a1.102 1.102 0 000-1.577zm-19.941-6.343c-6.882 0-12.46-5.49-12.46-12.262S7.844 2.23 14.726 2.23c6.881 0 12.46 5.49 12.46 12.261 0 6.772-5.579 12.262-12.46 12.262z" fill="#4351D8"/></g><defs><clipPath id="clip0"><path fill="#fff" d="M0 0h35v35H0z"/></clipPath></defs></svg>