<svg width="35" height="35" fill="none" xmlns="http://www.w3.org/2000/svg"><g clip-path="url(#clip0)" fill="#4351D8"><path d="M34.601 32.677l-8.541-8.541a14.662 14.662 0 003.402-9.405C29.462 6.608 22.854 0 14.732 0 6.607 0 0 6.608 0 14.731c0 8.123 6.608 14.73 14.731 14.73 3.572 0 6.851-1.278 9.404-3.401l8.542 8.541a1.356 1.356 0 001.924 0 1.36 1.36 0 000-1.924zM2.721 14.731c0-6.622 5.388-12.01 12.01-12.01s12.01 5.388 12.01 12.01-5.388 12.01-12.01 12.01-12.01-5.388-12.01-12.01z"/><path d="M21.416 13.37H8.046a1.36 1.36 0 000 2.722h13.37a1.36 1.36 0 000-2.722z"/></g><defs><clipPath id="clip0"><path fill="#fff" d="M0 0h35v35H0z"/></clipPath></defs></svg>