<svg width="75" height="75" viewBox="0 0 75 75" fill="none" xmlns="http://www.w3.org/2000/svg">
<path d="M47.2096 58.8347C46.1196 58.8347 45.1737 58.0244 45.0324 56.9149C44.8796 55.711 45.7311 54.6112 46.9344 54.4579C53.8776 53.5732 60.0951 51.6918 64.4416 49.1593C68.4167 46.8435 70.6054 44.121 70.6054 41.4934C70.6054 38.5975 68.0442 36.228 65.895 34.7494C64.8954 34.0616 64.6424 32.6941 65.3302 31.6939C66.018 30.6942 67.3862 30.4413 68.3858 31.1291C72.7128 34.1057 74.9999 37.6894 74.9999 41.494C74.9999 45.8119 72.1143 49.7755 66.6543 52.9564C61.7396 55.8197 55.1129 57.8465 47.49 58.8175C47.3956 58.8289 47.3018 58.8347 47.2096 58.8347Z" fill="#4351D8"/>
<path d="M36.9644 55.687L31.105 49.8276C30.2467 48.9693 28.8557 48.9693 27.9974 49.8276C27.1397 50.6853 27.1397 52.0769 27.9974 52.9347L29.7094 54.6467C23.1451 53.9686 17.1816 52.4403 12.5639 50.2196C7.37228 47.723 4.39453 44.5422 4.39453 41.4934C4.39453 38.9077 6.52657 36.22 10.3975 33.9255C11.4418 33.3069 11.7863 31.9588 11.1677 30.9151C10.5486 29.8708 9.20048 29.5264 8.15678 30.1449C1.41506 34.1412 0 38.522 0 41.4934C0 46.3686 3.78571 50.8742 10.6596 54.1804C15.9948 56.7456 22.8962 58.4639 30.415 59.1288L27.9974 61.5464C27.1397 62.4041 27.1397 63.7957 27.9974 64.654C28.4266 65.0826 28.989 65.2972 29.5515 65.2972C30.1134 65.2972 30.6759 65.0826 31.105 64.654L36.9644 58.7946C37.8222 57.9363 37.8222 56.5447 36.9644 55.687Z" fill="#4351D8"/>
<path d="M23.0123 37.0932V36.5645C23.0123 34.6996 21.8708 34.338 20.3401 34.338C19.3937 34.338 19.0876 33.5032 19.0876 32.6683C19.0876 31.8329 19.3937 30.9981 20.3401 30.9981C21.3976 30.9981 22.5111 30.859 22.5111 28.6045C22.5111 26.9903 21.5927 26.6007 20.4511 26.6007C19.0876 26.6007 18.3918 26.9348 18.3918 28.0203C18.3918 28.9662 17.9741 29.6065 16.3599 29.6065C14.356 29.6065 14.106 29.1887 14.106 27.8526C14.106 25.6823 15.6641 22.871 20.4511 22.871C23.9862 22.871 26.6579 24.1511 26.6579 27.9087C26.6579 29.94 25.9065 31.8329 24.5149 32.4732C26.1572 33.0855 27.3537 34.31 27.3537 36.5645V37.0932C27.3537 41.6577 24.2088 43.3834 20.3121 43.3834C15.525 43.3834 13.6883 40.4612 13.6883 38.1231C13.6883 36.8706 14.217 36.5364 15.7476 36.5364C17.5289 36.5364 17.9741 36.9261 17.9741 37.9841C17.9741 39.2922 19.1992 39.5983 20.4511 39.5983C22.344 39.5983 23.0123 38.9025 23.0123 37.0932Z" fill="#4351D8"/>
<path d="M44.2479 36.5645V36.8151C44.2479 41.6021 41.2696 43.3834 37.429 43.3834C33.5883 43.3834 30.582 41.6021 30.582 36.8151V29.4394C30.582 24.6523 33.6713 22.871 37.6796 22.871C42.3831 22.871 44.2479 25.7933 44.2479 28.1033C44.2479 29.4394 43.6076 29.8565 42.216 29.8565C41.0196 29.8565 39.9616 29.5504 39.9616 28.2704C39.9616 27.2129 38.8486 26.6562 37.5406 26.6562C35.8983 26.6562 34.9239 27.5191 34.9239 29.4394V31.9439C35.8148 30.97 37.0673 30.7194 38.4034 30.7194C41.5757 30.7194 44.2479 32.111 44.2479 36.5645ZM34.9239 37.1212C34.9239 39.0415 35.8703 39.8764 37.429 39.8764C38.9877 39.8764 39.9061 39.0415 39.9061 37.1212V36.8706C39.9061 34.8387 38.9877 34.0593 37.4009 34.0593C35.8983 34.0593 34.9239 34.7832 34.9239 36.62V37.1212Z" fill="#4351D8"/>
<path d="M47.6153 36.8151V29.4394C47.6153 24.6523 50.5931 22.871 54.4343 22.871C58.2749 22.871 61.2807 24.6523 61.2807 29.4394V36.8151C61.2807 41.6021 58.2749 43.3834 54.4343 43.3834C50.5931 43.3834 47.6153 41.6021 47.6153 36.8151ZM56.9388 29.4394C56.9388 27.5191 55.993 26.6562 54.4343 26.6562C52.8756 26.6562 51.9572 27.5191 51.9572 29.4394V36.8151C51.9572 38.7354 52.8756 39.5983 54.4343 39.5983C55.993 39.5983 56.9388 38.7354 56.9388 36.8151V29.4394Z" fill="#4351D8"/>
<path d="M66.5553 22.8516C62.9201 22.8516 59.9635 19.8945 59.9635 16.2598C59.9635 12.6252 62.9201 9.66803 66.5553 9.66803C70.1899 9.66803 73.1471 12.6252 73.1471 16.2598C73.1471 19.8945 70.1899 22.8516 66.5553 22.8516ZM66.5553 14.0626C65.3434 14.0626 64.358 15.0485 64.358 16.2598C64.358 17.4718 65.3434 18.4571 66.5553 18.4571C67.7667 18.4571 68.7526 17.4718 68.7526 16.2598C68.7526 15.0485 67.7667 14.0626 66.5553 14.0626Z" fill="#4351D8"/>
</svg>
