<svg width="13" height="16" viewBox="0 0 13 16" fill="none" xmlns="http://www.w3.org/2000/svg">
<path d="M12.6634 13.8307L11.7573 3.51411C11.7379 3.28507 11.5469 3.11166 11.3236 3.11166H9.45955C9.43366 1.39059 8.04207 0 6.33333 0C4.6246 0 3.23301 1.39059 3.20712 3.11166H1.34304C1.1165 3.11166 0.928803 3.28507 0.909385 3.51411L0.00323632 13.8307C0.00323632 13.8438 0 13.8569 0 13.8699C0 15.0446 1.06472 16 2.3754 16H10.2913C11.6019 16 12.6667 15.0446 12.6667 13.8699C12.6667 13.8569 12.6667 13.8438 12.6634 13.8307ZM6.33333 0.883436C7.55987 0.883436 8.55987 1.87812 8.58576 3.11166H4.08091C4.1068 1.87812 5.1068 0.883436 6.33333 0.883436ZM10.2913 15.1166H2.3754C1.5534 15.1166 0.886731 14.5669 0.873786 13.8896L1.7411 3.99836H3.20388V5.33988C3.20388 5.58528 3.39806 5.78159 3.64078 5.78159C3.88349 5.78159 4.07767 5.58528 4.07767 5.33988V3.99836H8.58576V5.33988C8.58576 5.58528 8.77993 5.78159 9.02265 5.78159C9.26537 5.78159 9.45955 5.58528 9.45955 5.33988V3.99836H10.9223L11.7929 13.8896C11.7799 14.5669 11.11 15.1166 10.2913 15.1166Z" fill="white"/>
</svg>
