<svg width="25" height="25" viewBox="0 0 25 25" fill="none" xmlns="http://www.w3.org/2000/svg">
<path d="M22.8008 18.5991C22.7015 18.069 22.1912 17.7198 21.6611 17.8191C21.131 17.9185 20.7817 18.4288 20.881 18.9588C20.9548 19.3521 20.7819 19.6324 20.6723 19.7645C20.563 19.8962 20.32 20.1172 19.9213 20.1172H5.0975C4.69882 20.1172 4.45585 19.8962 4.34653 19.7645C4.23696 19.6324 4.06406 19.3521 4.13779 18.9588C4.41479 17.4807 4.9706 16.5085 5.5081 15.5683C6.16093 14.4265 6.83593 13.2458 6.83593 11.4258V9.96094C6.83593 6.88149 9.339 4.34219 12.4171 4.29751H12.6017C15.6693 4.34204 18.164 6.88135 18.164 9.96094V11.4258C18.164 12.9748 18.6707 14.0406 19.1457 14.9181C19.3224 15.2447 19.6584 15.43 20.0054 15.43C20.1623 15.43 20.3216 15.3921 20.4693 15.3121C20.9437 15.0554 21.1201 14.4627 20.8633 13.9885C20.3908 13.1153 20.1172 12.4161 20.1172 11.4258V9.96094C20.1172 7.95112 19.3387 6.05288 17.9251 4.61592C16.7137 3.38437 15.1581 2.61592 13.4766 2.40381V0.976562C13.4766 0.437207 13.0393 0 12.5 0C11.9606 0 11.5234 0.437207 11.5234 0.976562V2.40669C7.79013 2.89106 4.88281 6.11235 4.88281 9.96094V11.4258C4.88281 12.7269 4.41049 13.553 3.81254 14.5989C3.22348 15.6294 2.55576 16.7973 2.21806 18.5991C2.05688 19.4593 2.28491 20.3387 2.8437 21.0119C3.402 21.6846 4.22348 22.0703 5.0975 22.0703H9.58915C9.58915 23.6857 10.9034 25 12.5188 25C14.1343 25 15.4485 23.6857 15.4485 22.0703H19.9213C20.7953 22.0703 21.6169 21.6846 22.1751 21.0119C22.7339 20.3387 22.9619 19.4593 22.8008 18.5991ZM12.5189 23.0469C11.9804 23.0469 11.5423 22.6088 11.5423 22.0703H13.4954C13.4954 22.6088 13.0574 23.0469 12.5189 23.0469Z" fill="#4351D8"/>
<path d="M5.29116 2.20204C4.88931 1.84227 4.27192 1.87645 3.91221 2.27831C2.01914 4.39305 0.976562 7.12157 0.976562 9.96122C0.976562 10.5006 1.41377 10.9378 1.95312 10.9378C2.49248 10.9378 2.92969 10.5006 2.92969 9.96122C2.92969 7.60292 3.79541 5.33705 5.36743 3.58099C5.72715 3.17914 5.69302 2.56175 5.29116 2.20204Z" fill="#4351D8"/>
<path d="M21.0878 2.27833C20.7281 1.87652 20.1106 1.84235 19.7088 2.20206C19.307 2.56178 19.2728 3.17916 19.6326 3.58102C21.2046 5.33712 22.0703 7.60294 22.0703 9.96124C22.0703 10.5006 22.5075 10.9378 23.0469 10.9378C23.5862 10.9378 24.0234 10.5006 24.0234 9.96124C24.0234 7.12159 22.9809 4.39308 21.0878 2.27833Z" fill="#4351D8"/>
</svg>
