<svg width="29" height="35" viewBox="0 0 29 35" fill="none" xmlns="http://www.w3.org/2000/svg">
<path d="M24.4924 9.37018C24.2093 9.37018 23.9797 9.59973 23.9797 9.88287V30.6706C23.9797 30.7812 24.001 30.8892 24.043 30.9914L24.4556 31.9961C24.5632 32.2581 24.8628 32.3832 25.1246 32.2756C25.3865 32.168 25.5116 31.8686 25.4041 31.6066L25.0051 30.635V9.88287C25.0051 9.59973 24.7755 9.37018 24.4924 9.37018Z" fill="#4351D8"/>
<path d="M18.4636 -6.10352e-05C17.3336 -6.10352e-05 16.2264 0.349802 15.3042 0.99197C14.4089 0.366892 13.3207 -6.10352e-05 12.1484 -6.10352e-05C9.10136 -6.10352e-05 6.62244 2.47885 6.62244 5.52591V6.68692H2.48786C2.0222 6.68692 1.64335 7.06577 1.64335 7.53136V30.6348L0.329348 33.8346C0.222229 34.0956 0.252034 34.3913 0.409123 34.6257C0.566145 34.8601 0.828371 34.9999 1.11049 34.9999H27.8891C28.1712 34.9999 28.4334 34.8601 28.5905 34.6257C28.7476 34.3914 28.7774 34.0957 28.6703 33.8347L27.3563 30.6349V29.4211C27.3563 29.1379 27.1268 28.9084 26.8436 28.9084C26.5605 28.9084 26.3309 29.1379 26.3309 29.4211V30.6706C26.3309 30.7812 26.3523 30.8891 26.3942 30.9914L27.6192 33.9745H24.0112C24.0008 33.9272 23.9863 33.8804 23.9675 33.8347L22.6535 30.6349V12.9408C22.6535 12.6576 22.4239 12.4281 22.1408 12.4281C21.8576 12.4281 21.6281 12.6576 21.6281 12.9408V30.6706C21.6281 30.7812 21.6494 30.8891 21.6914 30.9914L22.9164 33.9745H1.38044L2.60544 30.9913C2.64748 30.8891 2.66874 30.7811 2.66874 30.6705V7.71231H6.62244V9.61127C6.62244 10.4056 7.26871 11.0518 8.06298 11.0518C8.85725 11.0518 9.50352 10.4055 9.50352 9.61127V7.71231H14.7933V9.61127C14.7933 10.4056 15.4395 11.0518 16.2338 11.0518C17.0282 11.0518 17.6744 10.4055 17.6744 9.61127V7.71231H21.6281V10.5481C21.6281 10.8313 21.8576 11.0608 22.1408 11.0608C22.4239 11.0608 22.6535 10.8313 22.6535 10.5481V7.71224H26.3309V27.0283C26.3309 27.3115 26.5605 27.541 26.8436 27.541C27.1268 27.541 27.3563 27.3115 27.3563 27.0283V7.53136C27.3563 7.0657 26.9775 6.68685 26.5118 6.68685H23.9896V5.52591C23.9896 2.47885 21.5106 -6.10352e-05 18.4636 -6.10352e-05V-6.10352e-05ZM22.9642 5.52591V6.68692H22.1339V5.52591C22.1339 3.50213 20.4874 1.85562 18.4636 1.85562C17.8196 1.85562 17.2038 2.01893 16.6554 2.33181C16.4926 2.10274 16.3127 1.88652 16.1178 1.68507C16.82 1.25673 17.6343 1.02533 18.4636 1.02533C20.9452 1.02533 22.9642 3.04426 22.9642 5.52591ZM13.963 6.68692V5.52591C13.963 4.97944 14.0625 4.43872 14.2537 3.93231C14.5919 4.37706 14.7933 4.93009 14.7933 5.52591V6.68692H13.963ZM16.649 9.61134C16.649 9.84027 16.4627 10.0265 16.2338 10.0265C16.005 10.0265 15.8187 9.8402 15.8187 9.61134V5.52591C15.8187 4.3951 15.2959 3.37511 14.4795 2.69911C14.4456 2.66274 14.4058 2.63068 14.3605 2.60457C13.76 2.14738 13.0164 1.86991 12.2121 1.85617C11.3795 1.8425 10.5578 2.12284 9.89802 2.64716C9.67633 2.82332 9.63949 3.14584 9.81565 3.36753C9.99188 3.58922 10.3143 3.62606 10.536 3.4499C11.0171 3.06763 11.5913 2.87096 12.1946 2.88142C12.6455 2.88915 13.07 3.01199 13.4401 3.22137C13.1104 3.94072 12.9376 4.72849 12.9376 5.52591V6.68692H9.50352V5.58189C9.50352 5.45324 9.51275 5.32377 9.531 5.19689C9.57126 4.91662 9.37671 4.65678 9.09644 4.61645C8.81603 4.57619 8.55626 4.77074 8.516 5.05101C8.49084 5.22601 8.47813 5.40457 8.47813 5.58189V9.61134C8.47813 9.84027 8.29185 10.0265 8.06298 10.0265C7.83411 10.0265 7.64783 9.8402 7.64783 9.61134V5.52591C7.64783 3.04426 9.66676 1.02533 12.1484 1.02533C14.6301 1.02533 16.649 3.04426 16.649 5.52591V9.61134ZM17.1696 3.21926C17.5625 2.99702 18.003 2.88101 18.4636 2.88101C19.922 2.88101 21.1085 4.06746 21.1085 5.52591V6.68692H17.6744V5.52591C17.6744 4.70306 17.4936 3.92158 17.1696 3.21926Z" fill="#4351D8"/>
</svg>
