<svg width="20" height="20" viewBox="0 0 25 25" fill="none" xmlns="http://www.w3.org/2000/svg">
<path d="M22.0703 6.10352e-05H2.92969C1.31426 6.10352e-05 0 1.31432 0 2.92975V22.0704C0 23.6858 1.31426 25.0001 2.92969 25.0001H22.0703C23.6857 25.0001 25 23.6858 25 22.0704V2.92975C25 1.31432 23.6857 6.10352e-05 22.0703 6.10352e-05ZM23.0469 22.0704C23.0469 22.6089 22.6088 23.0469 22.0703 23.0469H2.92969C2.39121 23.0469 1.95312 22.6089 1.95312 22.0704V2.92975C1.95312 2.39127 2.39121 1.95319 2.92969 1.95319H22.0703C22.6088 1.95319 23.0469 2.39127 23.0469 2.92975V22.0704Z" fill="#ffffff"/>
</svg>
