<svg width="25" height="25" viewBox="0 0 25 25" fill="none" xmlns="http://www.w3.org/2000/svg">
<g clip-path="url(#clip0)">
<path d="M15.1791 19.619V24.1074C15.1792 24.6005 15.5791 25.0002 16.0722 25C16.3251 24.9999 16.5661 24.8926 16.7354 24.7047L24.7711 15.7761C25.065 15.4488 25.0768 14.9563 24.7988 14.6153L16.763 4.79383C16.4508 4.41218 15.8883 4.35588 15.5066 4.66811C15.2998 4.83725 15.1796 5.09009 15.1791 5.35722V9.80635C8.12541 9.57689 3.72362 6.5617 1.73962 0.609829C1.61793 0.245707 1.27709 0.00018692 0.893192 3.05176e-05C0.845062 -0.000127792 0.796932 0.00379562 0.749428 0.0116425C0.317505 0.0821133 0.00030899 0.455233 0.00030899 0.892912C0.000362396 11.4073 6.32986 19.1315 15.1791 19.619ZM16.072 11.6073C16.5651 11.6073 16.9648 11.2075 16.9648 10.7144V7.85726L22.9318 15.1511L16.9648 21.7806V18.7502C16.9648 18.2571 16.565 17.8574 16.0719 17.8574C9.05397 17.8574 3.80214 13.001 2.25389 5.59118C5.1281 9.58762 9.7558 11.6073 16.072 11.6073Z" fill="#4351D8"/>
</g>
<defs>
<clipPath id="clip0">
<rect width="25" height="25" fill="white" transform="translate(25 25) rotate(-180)"/>
</clipPath>
</defs>
</svg>
