<svg width="85" height="85" viewBox="0 0 85 85" fill="none" xmlns="http://www.w3.org/2000/svg">
<g clip-path="url(#clip0)">
<path d="M39.1599 28.4508V35.723C36.6428 36.4222 34.9642 38.5201 34.9642 41.1779V43.4151L29.23 49.1494C28.3907 49.9886 27.9714 50.9679 27.9714 52.0865V61.3172C27.9714 62.1565 28.2514 62.995 28.6707 63.6943L33.5657 70.9672V73.345H30.7685V84.5336H33.5657V81.7364H43.3557V78.9393H33.5657V76.1421H51.7471V84.5336H54.5442V73.345H51.7471V71.1072L53.2856 69.5686C54.1249 68.7293 54.5442 67.7507 54.5442 66.6315V62.7157L56.5021 60.7579C58.0406 59.2193 58.1806 56.8415 56.782 55.1636L46.1528 42.0165V41.1779C46.1528 38.6601 44.4742 36.4222 41.9571 35.723V28.4508C49.6492 27.6115 55.2435 20.7587 54.4042 13.2065C53.5649 5.65372 46.8521 -0.0798639 39.1599 0.619421C31.4678 1.31871 25.8735 8.31155 26.7128 16.0037C27.2721 22.5765 32.5864 27.8915 39.1599 28.4508ZM54.5442 58.7993L53.1456 60.1979L51.0478 58.1001L53.8449 56.0022L54.5442 56.8415C55.1035 57.4008 55.1035 58.2401 54.5442 58.7993ZM46.8521 53.9044L50.2085 51.3872L52.1664 53.765L49.0899 56.0022L46.8521 53.9044ZM48.3906 49.2893L46.1528 50.9679V46.4922L48.3906 49.2893ZM43.3557 41.1779V54.3243L51.7471 62.7157V66.6315C51.7471 67.0514 51.6071 67.3307 51.3278 67.6107L48.9499 69.9879V73.345H36.3628V70.1279L31.0485 62.1565C30.9085 61.8765 30.7685 61.5965 30.7685 61.3172V52.0865C30.7685 51.6672 30.9085 51.3872 31.1878 51.1072L34.9642 47.3315V52.6458C34.9642 53.0658 34.8242 53.3451 34.5449 53.625L32.5864 55.5829L34.5449 57.5408L36.5028 55.5829C37.3421 54.7436 37.7614 53.765 37.7614 52.6458V41.1779C37.7614 39.6394 39.02 38.3808 40.5585 38.3808C42.0971 38.3808 43.3557 39.6394 43.3557 41.1779ZM40.5585 3.41656C46.7121 3.41656 51.7471 8.45086 51.7471 14.6051C51.7471 20.7587 46.7121 25.7937 40.5585 25.7937C34.4049 25.7937 29.37 20.7587 29.37 14.6051C29.37 8.45086 34.4049 3.41656 40.5585 3.41656Z" fill="#4351D8"/>
<path d="M74.5435 26.7723L76.502 24.8144L73.2849 21.598L76.502 18.3808L74.5435 16.423L71.327 19.6394L68.1106 16.423L66.152 18.3808L69.3692 21.598L66.152 24.8144L68.1106 26.7723L71.327 23.5558L74.5435 26.7723Z" fill="#4351D8"/>
<path d="M46.1528 78.9393H48.9499V81.7365H46.1528V78.9393Z" fill="#4351D8"/>
<path d="M75.5228 46.2122V43.975C75.5228 42.1565 74.4042 40.6179 72.7256 40.0586V32.6465C78.8792 31.8072 83.2149 26.2129 82.3756 20.1994C81.5363 14.0451 75.9421 9.7101 69.9285 10.5487C63.7749 11.388 59.4392 16.9822 60.2785 22.9965C60.9778 28.0308 64.8935 32.0872 69.9285 32.6465V40.0586C68.2499 40.6179 67.1313 42.1565 67.1313 43.975V46.0729L61.6771 50.6879C60.6978 51.3872 60.1385 52.5058 60.1385 53.765V60.1979C60.1385 61.1772 60.5578 62.1564 61.1178 62.995L65.7328 68.31V70.5478H62.9356V84.5335H65.7328V78.9393H76.9213V76.1421H65.7328V73.345H79.7185V84.5335H82.5156V70.5478H79.7185V68.45L82.0963 66.9114C83.2149 66.0721 83.9142 64.8136 83.9142 63.415V60.8972L84.7535 58.52C85.3128 56.9814 84.8935 55.3029 83.7742 54.1843L75.5228 46.2122ZM82.0963 57.8207L81.8163 58.66L79.1592 56.8415L80.1378 54.7436L81.6763 56.2822C82.0963 56.7015 82.2356 57.2614 82.0963 57.8207ZM78.0399 52.6458L76.7813 55.1636L75.5228 54.4643V50.1286L78.0399 52.6458ZM62.9356 21.5979C62.9356 16.9822 66.712 13.2065 71.3271 13.2065C75.9421 13.2065 79.7185 16.9822 79.7185 21.5979C79.7185 26.2129 75.9421 29.9893 71.3271 29.9893C66.712 29.9893 62.9356 26.2129 62.9356 21.5979ZM81.117 63.415C81.117 63.8343 80.8371 64.2543 80.5578 64.5336L76.9213 67.0514V70.5478H68.5299V67.1907L63.2156 61.1772C62.9356 60.8972 62.9356 60.6179 62.9356 60.1979V53.765C62.9356 53.345 63.0756 52.9257 63.4949 52.6458L67.1313 49.5693V53.9043C67.1313 54.3243 66.9913 54.6036 66.712 54.8836L64.7535 56.8415L66.712 58.7993L68.6699 56.8415C69.5092 56.0022 69.9285 55.0236 69.9285 53.9043V43.975C69.9285 43.1358 70.4878 42.5765 71.3271 42.5765C72.1663 42.5765 72.7256 43.1358 72.7256 43.975V55.8629L81.117 61.4571V63.415Z" fill="#4351D8"/>
<path d="M47.1321 9.98942L45.1735 8.03156L36.3628 16.8423L34.5449 15.0244L32.5864 16.9823L36.3628 20.7587L47.1321 9.98942Z" fill="#4351D8"/>
<path d="M14.405 26.7723L16.3635 24.8144L13.1464 21.598L16.3635 18.3808L14.405 16.423L11.1886 19.6394L7.97212 16.423L6.01358 18.3808L9.2307 21.598L6.01358 24.8144L7.97212 26.7723L11.1886 23.5558L14.405 26.7723Z" fill="#4351D8"/>
<path d="M5.59428 68.31V70.5479H2.79714V84.5335H5.59428V78.9393H16.7828V76.1421H5.59428V73.345H19.58V84.5335H22.3771V70.5479H19.58V68.45L21.9578 66.9114C23.0764 66.0722 23.7757 64.8136 23.7757 63.415V60.8972L24.615 58.52C25.1742 56.9815 24.7549 55.3029 23.6357 54.1843L15.3843 46.2122V43.975C15.3843 42.1565 14.2657 40.6179 12.5871 40.0586V32.6465C18.7407 31.8072 23.0764 26.213 22.2371 20.1994C21.3978 14.1851 15.9436 9.71011 9.78998 10.5487C3.63642 11.248 -0.699284 16.8423 0.139993 22.9965C0.839278 28.0308 4.755 32.0872 9.78998 32.6465V40.0586C8.11143 40.6179 6.99285 42.1565 6.99285 43.975V46.0729L1.53856 50.6879C0.559291 51.3872 0 52.5058 0 53.765V60.1979C0 61.1772 0.419298 62.1564 0.979271 62.995L5.59428 68.31ZM21.9578 57.8207L21.6778 58.66L19.0207 56.8415L19.9993 54.7436L21.5378 56.2822C21.9578 56.7015 22.0971 57.2615 21.9578 57.8207ZM17.9014 52.6458L16.6428 55.1636L15.3843 54.4643V50.1286L17.9014 52.6458ZM2.79714 21.5979C2.79714 16.9823 6.57355 13.2065 11.1886 13.2065C15.8036 13.2065 19.58 16.9823 19.58 21.5979C19.58 26.213 15.8036 29.9894 11.1886 29.9894C6.57355 29.9894 2.79714 26.213 2.79714 21.5979ZM2.79714 53.765C2.79714 53.3451 2.93713 52.9258 3.35643 52.6458L6.99285 49.7086V54.0443C6.99285 54.4643 6.85285 54.7436 6.57355 55.0236L4.61501 56.9815L6.57355 58.9393L8.53141 56.9815C9.37069 56.1422 9.78998 55.1636 9.78998 54.0443V43.975C9.78998 43.1358 10.3493 42.5765 11.1886 42.5765C12.0278 42.5765 12.5871 43.1358 12.5871 43.975V55.8629L20.9785 61.4572V63.415C20.9785 63.8343 20.6985 64.2543 20.4192 64.5336L16.7828 67.0514V70.5479H8.39141V67.1907L3.07713 61.1772C2.93713 60.8972 2.79714 60.6179 2.79714 60.1979V53.765Z" fill="#4351D8"/>
</g>
<defs>
<clipPath id="clip0">
<rect width="85" height="85" fill="white"/>
</clipPath>
</defs>
</svg>
