<svg width="33" height="32" viewBox="0 0 33 32" fill="none" xmlns="http://www.w3.org/2000/svg">
<path d="M28.8849 19.1386H23.8216C24.2056 18.17 24.4115 17.1275 24.4115 16.0625C24.4115 13.3876 23.1163 10.8523 20.9468 9.28068C20.7368 9.12846 20.4431 9.17542 20.2909 9.3855C20.1388 9.59552 20.1857 9.88913 20.3958 10.0414C22.3222 11.4369 23.4723 13.6879 23.4723 16.0626C23.4723 17.1359 23.2366 18.1835 22.8013 19.1387H20.9629C21.5227 18.2462 21.847 17.1917 21.847 16.0626C21.847 15.8446 21.8347 15.6246 21.8103 15.4089C21.7779 15.1212 21.6345 14.8632 21.4066 14.6825C21.1759 14.4997 20.8747 14.4146 20.5802 14.4497C20.4837 14.4611 20.385 14.463 20.2868 14.4551C19.5573 14.3972 18.9661 13.778 18.9409 13.0454C18.9322 12.7941 18.9848 12.5544 19.0969 12.3329C19.2292 12.0715 19.2502 11.7732 19.1561 11.493C19.0613 11.2107 18.8533 10.9737 18.5853 10.8429C17.8154 10.4671 16.988 10.2703 16.1263 10.258C15.879 10.2546 15.6219 10.2683 15.3617 10.2993C15.1041 10.3299 14.9202 10.5635 14.9507 10.8211C14.9813 11.0786 15.215 11.2624 15.4725 11.232C15.6917 11.206 15.907 11.1947 16.1128 11.1972C16.8354 11.2075 17.5286 11.3723 18.1733 11.6871C18.2168 11.7083 18.2504 11.7466 18.2658 11.7922C18.2753 11.8204 18.2818 11.8636 18.259 11.9088C18.0771 12.2681 17.9883 12.6723 18.0022 13.0778C18.0442 14.3002 18.9945 15.2949 20.2125 15.3915C20.3722 15.4042 20.533 15.4012 20.6907 15.3825C20.7566 15.3748 20.8019 15.4018 20.8232 15.4187C20.8546 15.4436 20.8728 15.4758 20.8771 15.5143C20.8975 15.6952 20.9079 15.8797 20.9079 16.0627C20.9079 17.2287 20.4953 18.2999 19.809 19.1388H12.2721C11.5363 18.2406 11.1494 17.1223 11.1772 15.9449C11.2179 14.2165 12.1979 12.6231 13.7347 11.7866C13.9625 11.6626 14.0466 11.3774 13.9227 11.1496C13.7987 10.9218 13.5135 10.8377 13.2857 10.9616C11.4546 11.9583 10.2868 13.8593 10.2382 15.9227C10.2109 17.0778 10.518 18.1856 11.1162 19.1388H9.28224C8.84693 18.1836 8.6113 17.136 8.6113 16.0627C8.6113 13.688 9.76139 11.437 11.6878 10.0415C11.8978 9.88932 11.9448 9.59571 11.7926 9.38563C11.6405 9.17555 11.3469 9.12865 11.1368 9.28081C8.96728 10.8525 7.67205 13.3877 7.67205 16.0627C7.67205 17.1275 7.87799 18.17 8.26196 19.1387H3.19944C2.42367 18.327 1.78799 17.5825 1.31967 17.0032C0.879162 16.4583 0.879162 15.6672 1.31967 15.1222C3.49994 12.4251 9.2989 6.15215 16.0418 6.15215C19.4232 6.15215 22.9585 7.70705 26.5495 10.7737C26.7468 10.9421 27.0433 10.9188 27.2116 10.7215C27.3801 10.5243 27.3567 10.2278 27.1595 10.0594C23.3937 6.8435 19.6531 5.21289 16.0418 5.21289C8.89408 5.21289 2.85429 11.7298 0.589245 14.5316C-0.127846 15.4187 -0.127846 16.7064 0.589245 17.5935C0.942843 18.031 1.38855 18.559 1.91604 19.1386H0.517235C0.257875 19.1386 0.0476074 19.3489 0.0476074 19.6082C0.0476074 19.8676 0.257875 20.0779 0.517235 20.0779H2.80288C5.78214 23.1204 10.5895 26.9123 16.0418 26.9123C18.8781 26.9123 21.8251 25.8891 24.8011 23.8712C25.0158 23.7256 25.0718 23.4336 24.9263 23.2189C24.7808 23.0043 24.4887 22.9482 24.274 23.0938C21.4564 25.0043 18.6868 25.9729 16.0418 25.9729C11.2921 25.9729 7.011 22.8605 4.13287 20.0778H8.70241C9.29201 21.1556 10.118 22.1063 11.1368 22.8444C11.2201 22.9047 11.3165 22.9338 11.412 22.9338C11.5574 22.9338 11.7008 22.8664 11.7927 22.7396C11.9448 22.5296 11.8979 22.236 11.6879 22.0837C10.9281 21.5333 10.2897 20.8494 9.79433 20.0778H11.8497C11.8627 20.0913 11.8753 20.105 11.8885 20.1184C12.9902 21.2465 14.4652 21.8677 16.0418 21.8677C17.6863 21.8677 19.1732 21.1802 20.2305 20.0778H22.2892C21.7939 20.8494 21.1555 21.5333 20.3957 22.0837C20.1857 22.2359 20.1387 22.5295 20.2909 22.7396C20.3827 22.8664 20.5261 22.9338 20.6716 22.9338C20.7671 22.9338 20.8635 22.9047 20.9467 22.8444C21.9656 22.1063 22.7916 21.1556 23.3812 20.0778H27.9506C27.3152 20.6915 26.614 21.3186 25.8543 21.9262C25.6518 22.0882 25.6189 22.3837 25.7809 22.5863C25.8736 22.7023 26.0102 22.7626 26.148 22.7626C26.2508 22.7626 26.3544 22.7289 26.4409 22.6598C27.5069 21.8072 28.4605 20.9182 29.2828 20.0778H31.5663C31.8257 20.0778 32.036 19.8675 32.036 19.6082C32.036 19.3488 31.8257 19.1385 31.5663 19.1385H30.1687C30.6846 18.571 31.1289 18.0454 31.4943 17.5935C32.2113 16.7064 32.2113 15.4187 31.4943 14.5316C30.8912 13.7855 29.9101 12.6417 28.6607 11.4283C28.4746 11.2476 28.1774 11.2519 27.9967 11.438C27.8159 11.6241 27.8203 11.9214 28.0064 12.102C29.2223 13.2828 30.177 14.396 30.7639 15.122C31.2044 15.6669 31.2044 16.458 30.7639 17.003C30.2759 17.6067 29.6434 18.3452 28.8849 19.1386ZM16.0418 20.9285C15.0434 20.9285 14.0939 20.6309 13.2909 20.0779H18.7865C18.0046 20.6141 17.0594 20.9285 16.0418 20.9285Z" fill="white"/>
<path d="M5.30817 8.53257C5.51024 8.37471 5.70041 8.22994 5.88951 8.09011C9.31278 5.55763 12.7286 4.27361 16.0421 4.27361C19.3555 4.27361 22.7714 5.55763 26.1947 8.08999C26.3838 8.22988 26.5739 8.37465 26.776 8.5325C26.8618 8.59957 26.9637 8.63206 27.0648 8.63206C27.2044 8.63206 27.3426 8.57007 27.4352 8.45154C27.5949 8.24716 27.5586 7.95198 27.3543 7.79237C27.1456 7.62938 26.9491 7.47979 26.7533 7.33495C23.1648 4.68037 19.561 3.33435 16.0421 3.33435C12.5231 3.33435 8.91936 4.68037 5.33078 7.33495C5.13504 7.47979 4.93848 7.62944 4.72984 7.79237C4.52546 7.95204 4.48921 8.24716 4.64888 8.45154C4.80855 8.65592 5.1036 8.6923 5.30817 8.53257Z" fill="white"/>
<path d="M26.7759 23.5925C26.5732 23.7509 26.383 23.8957 26.1946 24.035C22.7713 26.5674 19.3554 27.8514 16.042 27.8514C12.7285 27.8514 9.31266 26.5674 5.88932 24.035C5.70097 23.8957 5.5108 23.7509 5.30805 23.5925C5.1036 23.4328 4.80843 23.469 4.64888 23.6735C4.48921 23.8779 4.52546 24.1731 4.72984 24.3327C4.93917 24.4962 5.13573 24.6458 5.33078 24.7901C8.9193 27.4447 12.523 28.7907 16.042 28.7907C19.5609 28.7907 23.1647 27.4447 26.7532 24.7901C26.9482 24.6458 27.1449 24.4962 27.3542 24.3327C27.5586 24.173 27.5948 23.8779 27.4352 23.6735C27.2754 23.4692 26.9804 23.4328 26.7759 23.5925Z" fill="white"/>
<path d="M0.469628 4.33728C0.728988 4.33728 0.939256 4.12701 0.939256 3.86765V1.01783C0.939256 0.974747 0.974259 0.939744 1.01734 0.939744H3.86717C4.12653 0.939744 4.33679 0.729476 4.33679 0.470116C4.33679 0.210756 4.12653 0.000488281 3.86717 0.000488281H1.01734C0.456353 0.000488281 0 0.456904 0 1.01783V3.86765C0 4.12701 0.210268 4.33728 0.469628 4.33728Z" fill="white"/>
<path d="M31.0663 0H28.2165C27.9571 0 27.7468 0.210268 27.7468 0.469628C27.7468 0.728988 27.9571 0.939256 28.2165 0.939256H31.0663C31.1094 0.939256 31.1444 0.974259 31.1444 1.01734V3.86717C31.1444 4.12653 31.3546 4.33679 31.614 4.33679C31.8734 4.33679 32.0836 4.12653 32.0836 3.86717V1.01734C32.0836 0.456416 31.6273 0 31.0663 0Z" fill="white"/>
<path d="M3.86717 31.0607H1.01734C0.974259 31.0607 0.939256 31.0257 0.939256 30.9827V28.1328C0.939256 27.8735 0.728988 27.6632 0.469628 27.6632C0.210268 27.6632 0 27.8735 0 28.1328V30.9827C0 31.5436 0.456353 32 1.01734 32H3.86717C4.12653 32 4.33679 31.7897 4.33679 31.5304C4.33679 31.271 4.12653 31.0607 3.86717 31.0607Z" fill="white"/>
<path d="M31.614 27.6632C31.3546 27.6632 31.1444 27.8735 31.1444 28.1328V30.9827C31.1444 31.0257 31.1094 31.0607 31.0663 31.0607H28.2165C27.9571 31.0607 27.7468 31.271 27.7468 31.5304C27.7468 31.7897 27.9571 32 28.2165 32H31.0663C31.6272 32 32.0836 31.5436 32.0836 30.9827V28.1328C32.0836 27.8735 31.8734 27.6632 31.614 27.6632Z" fill="white"/>
</svg>
