<svg width="85" height="85" viewBox="0 0 85 85" fill="none" xmlns="http://www.w3.org/2000/svg">
<path d="M42.5802 82.0837C53.2367 82.0837 61.8755 75.1236 61.8755 66.5379C61.8755 57.9522 53.2367 50.9921 42.5802 50.9921C31.9238 50.9921 23.285 57.9522 23.285 66.5379C23.285 75.1236 31.9238 82.0837 42.5802 82.0837Z" stroke="#4351D8" stroke-width="2.3" stroke-miterlimit="22.9256"/>
<path d="M42.5805 71.9407C46.2851 71.9407 49.2883 69.5214 49.2883 66.537C49.2883 63.5527 46.2851 61.1334 42.5805 61.1334C38.8759 61.1334 35.8728 63.5527 35.8728 66.537C35.8728 69.5214 38.8759 71.9407 42.5805 71.9407Z" stroke="#4351D8" stroke-width="2.3" stroke-miterlimit="22.9256"/>
<path fill-rule="evenodd" clip-rule="evenodd" d="M77.8661 66.5374C77.7943 65.8022 76.9874 64.6767 75.706 63.3691C74.4247 62.0633 72.3031 60.3776 70.2919 58.965C68.2823 57.5541 66.3849 56.4128 64.2458 55.4413C62.1067 54.4698 59.7261 53.6663 57.4103 52.9679C55.0944 52.266 52.8433 51.6708 50.3332 51.3032C47.8248 50.9339 45.0556 50.7938 42.4071 50.8096C39.7569 50.8236 37.2275 50.9934 34.8487 51.312C32.468 51.6271 30.2415 52.0892 27.9694 52.7351C25.6973 53.381 23.3814 54.2107 21.1304 55.2995C18.8793 56.3865 16.6912 57.7362 14.792 59.1015C12.891 60.4651 11.2788 61.8445 10.169 63.0873C9.05923 64.3301 8.05271 65.3296 7.84616 66.5374C7.90918 67.7575 9.05923 68.7448 10.169 69.9876C11.2788 71.2304 12.891 72.6098 14.792 73.9734C16.6912 75.3387 18.8793 76.6883 21.1304 77.7754C23.3814 78.8641 25.6973 79.6939 27.9694 80.3398C30.2415 80.9857 32.468 81.4478 34.8487 81.7629C37.2275 82.0815 39.7569 82.2513 42.4071 82.2653C45.0556 82.281 47.8248 82.141 50.3332 81.7716C52.8433 81.4041 55.0944 80.8089 57.4103 80.107C59.7261 79.4085 62.1067 78.6051 64.2458 77.6336C66.3849 76.6621 68.2823 75.5208 70.2919 74.1099C72.3014 72.6973 74.4247 71.0116 75.706 69.7058C76.9874 68.3982 78.0184 67.586 77.8661 66.5374V66.5374Z" stroke="#4351D8" stroke-width="2.3" stroke-miterlimit="22.9256"/>
<path fill-rule="evenodd" clip-rule="evenodd" d="M65.8163 13.0842L69.424 9.39249C70.9609 7.82233 70.9328 5.28592 69.3592 3.75078C67.789 2.21213 65.2526 2.24188 63.7157 3.81204L60.1728 7.43723L65.8163 13.0842ZM57.8132 9.85286L43.6608 24.3274C42.1256 25.8975 42.1554 28.4339 43.729 29.9726C45.2992 31.5077 47.8356 31.478 49.3725 29.9078L63.5897 15.3633L57.8132 9.85286ZM59.1768 6.43772L66.9471 14.2185C67.2709 14.5406 67.1816 15.0832 66.9891 16.0512C66.7965 17.0192 66.0298 17.6949 65.4872 17.175L55.8859 8.01138C55.3433 7.48975 56.5091 6.82807 57.0728 6.5515C57.6364 6.27668 58.6394 5.90383 59.1768 6.43772V6.43772Z" stroke="#4351D8" stroke-width="2.3" stroke-miterlimit="22.9256"/>
<path fill-rule="evenodd" clip-rule="evenodd" d="M42.5403 35.2992C42.0414 35.6108 41.3535 36.8081 40.7181 37.8794C40.0792 38.9524 39.498 39.9047 39.2757 40.8989C39.0516 41.8914 39.1882 42.926 39.4753 43.6401C39.7588 44.3508 40.1877 44.7394 40.7793 45.0983C41.371 45.4571 42.1219 45.7915 42.8904 45.788C43.6606 45.7845 44.4501 45.4484 45.0697 45.0248C45.6894 44.5976 46.1392 44.0813 46.3703 43.3881C46.5979 42.6949 46.6049 41.8232 46.3738 40.9602C46.1445 40.0972 45.6806 39.2448 45.187 38.4413C44.6951 37.6343 44.1735 36.8781 43.7604 36.2165C43.349 35.5531 43.0392 34.9842 42.5403 35.2992V35.2992Z" stroke="#4351D8" stroke-width="2.3" stroke-miterlimit="22.9256"/>
</svg>
