<svg width="85" height="85" viewBox="0 0 85 85" fill="none" xmlns="http://www.w3.org/2000/svg">
<g clip-path="url(#clip0)">
<path d="M44.8569 66.1253C44.0798 66.1713 43.2892 66.1946 42.5066 66.1946C32.1348 66.1946 23.54 62.181 16.9447 57.3373C17.1939 55.468 17.1262 53.5694 17.0684 51.9531C17.0448 51.2948 17.0227 50.6731 17.0227 50.1158C17.0227 49.4281 16.4653 48.8707 15.7776 48.8707C15.09 48.8707 14.5325 49.4281 14.5325 50.1158C14.5325 50.7176 14.5556 51.3609 14.5798 52.0421C14.6192 53.1431 14.6618 54.3384 14.6079 55.5229C12.526 53.8171 10.6803 52.06 9.07923 50.3783C8.60509 49.8802 7.81701 49.861 7.3188 50.3349C6.82075 50.8091 6.80133 51.5973 7.27547 52.0954C9.2396 54.1584 11.557 56.3296 14.2148 58.3965C13.9246 59.5141 13.4468 60.5291 12.6745 61.3295C11.4916 62.5555 9.70976 63.2254 7.24658 63.3662C6.72513 61.9296 5.3477 60.9008 3.73469 60.9008C1.67543 60.9007 0 62.5779 0 64.6393C0 66.7007 1.67543 68.378 3.73502 68.378C5.36861 68.378 6.76049 67.3228 7.26634 65.8576C10.4142 65.691 12.8332 64.7516 14.4668 63.0585C15.3388 62.1547 15.9325 61.0972 16.3333 59.9672C23.1612 64.7876 31.9472 68.6848 42.5068 68.6848C43.338 68.6848 44.1784 68.6601 45.0042 68.6111C45.6907 68.5704 46.2141 67.9811 46.1734 67.2946C46.1328 66.6081 45.5442 66.0843 44.8569 66.1253ZM3.73502 65.8878C3.04871 65.8878 2.49023 65.3278 2.49023 64.6393C2.49023 63.9509 3.04854 63.3909 3.73502 63.3909C4.42149 63.3909 4.9798 63.951 4.9798 64.6393C4.9798 65.3276 4.42133 65.8878 3.73502 65.8878Z" fill="#4351D8"/>
<path d="M3.58211 47.8713C3.82815 48.1781 4.18956 48.3378 4.55446 48.3378C4.82773 48.3378 5.10265 48.2481 5.33241 48.0642C5.86898 47.634 5.9553 46.8504 5.52516 46.3139C4.17545 44.6301 3.2358 43.2741 2.73842 42.5231C3.88708 40.7924 7.39732 35.8381 12.9386 30.945C15.9217 28.3108 19.0498 26.0787 22.2733 24.2809C22.2574 24.9785 22.2453 25.6526 22.2453 26.314C22.2453 27.0016 22.8027 27.5591 23.4904 27.5591C24.178 27.5591 24.7355 27.0016 24.7355 26.314C24.7355 25.4128 24.7591 24.4705 24.7838 23.4733C24.7879 23.3069 24.7921 23.1399 24.7962 22.9722C25.0526 22.8491 25.3094 22.7285 25.5667 22.611C31.0252 20.1151 36.7245 18.8497 42.5066 18.8497C52.9963 18.8497 61.6476 23.0235 68.0546 27.7103C67.8059 29.5785 67.8736 31.4757 67.9314 33.0912C67.955 33.7495 67.9771 34.3712 67.9771 34.9285C67.9771 35.6162 68.5346 36.1736 69.2222 36.1736C69.9098 36.1736 70.4673 35.6162 70.4673 34.9285C70.4673 34.3267 70.4442 33.6834 70.42 33.0022C70.3807 31.9002 70.3378 30.7038 70.3921 29.5181C71.5371 30.4527 72.5936 31.3892 73.5585 32.2998C74.0586 32.772 74.8466 32.7489 75.3186 32.249C75.7906 31.749 75.7679 30.9609 75.2678 30.4889C73.938 29.2339 72.4414 27.9318 70.7849 26.6487C71.0751 25.5309 71.5529 24.5155 72.3254 23.715C73.5082 22.489 75.2901 21.8191 77.7532 21.6783C78.2747 23.1149 79.6521 24.1437 81.2651 24.1437C83.3246 24.1437 85.0001 22.4664 85.0001 20.405C85.0001 18.3436 83.3247 16.6663 81.2651 16.6663C79.6315 16.6663 78.2397 17.7215 77.7338 19.1868C74.586 19.3533 72.167 20.2928 70.5334 21.9858C69.6598 22.8911 69.0656 23.9506 68.6649 25.0828C62.0091 20.4022 53.1726 16.3593 42.5068 16.3593C36.4728 16.3593 30.5303 17.6539 24.8373 20.2076C24.8346 15.7901 24.38 11.3292 21.6127 8.49203C19.8236 6.65756 17.2414 5.72754 13.9375 5.72754H1.25856C0.570919 5.72754 0.0134387 6.28502 0.0134387 6.97266C0.0134387 7.66029 0.570919 8.21777 1.25856 8.21777H13.9375C16.5815 8.21777 18.5089 8.87619 19.8301 10.2307C22.1868 12.6469 22.401 17.1054 22.3372 21.4178C18.483 23.4225 14.756 26.0098 11.2306 29.1309C4.13345 35.4141 0.350118 41.6175 0.19257 41.8786C-0.0463269 42.2744 -0.0463269 42.7699 0.19257 43.1657C0.240382 43.2444 1.38539 45.1309 3.58211 47.8713ZM81.265 19.1562C81.9513 19.1562 82.5098 19.7162 82.5098 20.4046C82.5098 21.0931 81.9514 21.6531 81.265 21.6531C80.5785 21.6531 80.0202 21.0929 80.0202 20.4046C80.0202 19.7163 80.5787 19.1562 81.265 19.1562Z" fill="#4351D8"/>
<path d="M79.3781 34.7358C78.9227 34.2208 78.1358 34.1725 77.6205 34.6284C77.1055 35.0841 77.0574 35.8708 77.5131 36.386C79.948 39.1384 81.5643 41.4491 82.2756 42.5221C81.2997 43.9953 78.6151 47.8027 74.4077 51.9275C71.5338 54.7452 67.5943 58.0397 62.7397 60.7498C62.7561 60.0412 62.7684 59.3571 62.7684 58.6862C62.7684 57.9986 62.2109 57.4411 61.5233 57.4411C60.8356 57.4411 60.2781 57.9986 60.2781 58.6862C60.2781 59.5873 60.2546 60.5296 60.2298 61.5271C60.2253 61.7044 60.221 61.8823 60.2167 62.061C57.381 63.4266 54.2765 64.5617 50.9278 65.29C50.2559 65.4361 49.8296 66.0993 49.9757 66.7712C50.1024 67.354 50.6182 67.752 51.1911 67.752C51.2788 67.752 51.3677 67.7427 51.4569 67.7233C54.573 67.0456 57.4851 66.0377 60.1765 64.8263C60.1815 69.2327 60.6407 73.6782 63.4009 76.5081C65.19 78.3424 67.7724 79.2725 71.0761 79.2725H83.6789C84.3665 79.2725 84.924 78.715 84.924 78.0274C84.924 77.3397 84.3665 76.7822 83.6789 76.7822H71.0761C68.4322 76.7822 66.5047 76.1238 65.1836 74.7693C62.8325 72.3589 62.6137 67.9158 62.6759 63.613C68.35 60.6565 72.9036 56.8897 76.1512 53.7059C81.7385 48.228 84.6979 43.3696 84.8211 43.1656C85.06 42.7698 85.06 42.2742 84.8211 41.8784C84.744 41.7511 82.8974 38.714 79.3781 34.7358Z" fill="#4351D8"/>
<path d="M29.6972 30.428C29.1636 29.9942 28.3794 30.0749 27.9456 30.6083C25.2191 33.9606 23.7177 38.1917 23.7177 42.5219C23.7177 52.9357 32.1838 61.4078 42.5898 61.4078C52.9958 61.4078 61.462 52.9355 61.462 42.5219C61.462 32.1082 52.9958 23.636 42.5898 23.636C38.9667 23.636 35.4468 24.6666 32.4107 26.6161C31.832 26.9876 31.6642 27.758 32.0357 28.3365C32.4074 28.9153 33.1776 29.0831 33.7561 28.7116C36.3901 27.0202 39.4446 26.1262 42.5897 26.1262C51.6227 26.1262 58.9716 33.4813 58.9716 42.5219C58.9716 51.5624 51.6226 58.9176 42.5897 58.9176C33.5567 58.9176 26.2077 51.5624 26.2077 42.5219C26.2077 38.7623 27.5109 35.0892 29.8775 32.1796C30.3115 31.646 30.2306 30.8618 29.6972 30.428Z" fill="#4351D8"/>
<path d="M35.3554 42.5219C35.3554 46.5136 38.6006 49.761 42.5898 49.761C46.579 49.761 49.8243 46.5136 49.8243 42.5219C49.8243 38.5304 46.579 35.283 42.5898 35.283C38.6006 35.283 35.3554 38.5304 35.3554 42.5219ZM42.5898 37.7732C45.2058 37.7732 47.3341 39.9035 47.3341 42.5219C47.3341 45.1405 45.2059 47.2708 42.5898 47.2708C39.9738 47.2708 37.8456 45.1405 37.8456 42.5219C37.8456 39.9035 39.9738 37.7732 42.5898 37.7732Z" fill="#4351D8"/>
<path d="M32.2549 47.0075L31.1004 47.6745C30.5051 48.0185 30.3012 48.7802 30.6452 49.3755C30.8759 49.7748 31.2943 49.9981 31.7244 49.9981C31.9358 49.9981 32.1501 49.9441 32.3462 49.8309L33.5006 49.1639C34.096 48.8199 34.2998 48.0582 33.9559 47.4629C33.6117 46.8674 32.85 46.6635 32.2549 47.0075Z" fill="#4351D8"/>
<path d="M52.6673 35.2131L51.5128 35.8801C50.9175 36.2241 50.7136 36.9858 51.0576 37.5811C51.2884 37.9804 51.7067 38.2037 52.1369 38.2037C52.3482 38.2037 52.5626 38.1497 52.7586 38.0365L53.9131 37.3695C54.5084 37.0255 54.7123 36.2638 54.3683 35.6685C54.0243 35.0731 53.2627 34.8693 52.6673 35.2131Z" fill="#4351D8"/>
<path d="M49.1446 51.5364C48.8009 50.9407 48.0393 50.7364 47.4438 51.08C46.8481 51.4237 46.6439 52.1852 46.9874 52.7809L47.6539 53.9362C47.8845 54.3358 48.3032 54.5592 48.7335 54.5592C48.9446 54.5592 49.1587 54.5054 49.3546 54.3924C49.9503 54.0487 50.1545 53.2872 49.811 52.6915L49.1446 51.5364Z" fill="#4351D8"/>
<path d="M37.3595 31.1078C37.0157 30.5122 36.2543 30.3077 35.6587 30.6515C35.063 30.9951 34.8588 31.7566 35.2023 32.3523L35.8688 33.5076C36.0994 33.9072 36.5181 34.1307 36.9484 34.1307C37.1594 34.1307 37.3736 34.0769 37.5695 33.9638C38.1652 33.6202 38.3694 32.8586 38.0259 32.263L37.3595 31.1078Z" fill="#4351D8"/>
<path d="M51.513 49.1639L52.6675 49.8309C52.8637 49.9443 53.0778 49.9981 53.2892 49.9981C53.7193 49.9981 54.1377 49.7748 54.3685 49.3755C54.7124 48.7802 54.5086 48.0185 53.9132 47.6745L52.7588 47.0075C52.1634 46.6635 51.4019 46.8672 51.0578 47.4627C50.7136 48.0582 50.9175 48.8197 51.513 49.1639Z" fill="#4351D8"/>
<path d="M33.5006 35.8801L32.3462 35.2131C31.7508 34.8693 30.9893 35.0728 30.6452 35.6683C30.3012 36.2636 30.5051 37.0253 31.1004 37.3693L32.2549 38.0363C32.4511 38.1497 32.6653 38.2035 32.8766 38.2035C33.3067 38.2035 33.7251 37.9802 33.9559 37.5809C34.2998 36.9858 34.096 36.2241 33.5006 35.8801Z" fill="#4351D8"/>
<path d="M35.6587 54.3923C35.8547 54.5054 36.0685 54.5592 36.2797 54.5592C36.71 54.5592 37.1289 54.3356 37.3593 53.9361L38.0259 52.7808C38.3695 52.1852 38.1652 51.4237 37.5695 51.08C36.9737 50.7365 36.2123 50.9407 35.8687 51.5364L35.2021 52.6917C34.8588 53.2873 35.063 54.0487 35.6587 54.3923Z" fill="#4351D8"/>
<path d="M48.065 34.1307C48.4953 34.1307 48.9142 33.907 49.1446 33.5076L49.8112 32.3523C50.1548 31.7566 49.9505 30.9951 49.3548 30.6515C48.759 30.3078 47.9976 30.5122 47.654 31.1078L46.9874 32.2631C46.6437 32.8588 46.8481 33.6203 47.4438 33.964C47.6398 34.077 47.8538 34.1307 48.065 34.1307Z" fill="#4351D8"/>
<path d="M28.81 42.5219C28.81 43.2095 29.3675 43.767 30.0551 43.767H31.3881C32.0757 43.767 32.6332 43.2095 32.6332 42.5219C32.6332 41.8343 32.0757 41.2768 31.3881 41.2768H30.0551C29.3675 41.2768 28.81 41.8343 28.81 42.5219Z" fill="#4351D8"/>
<path d="M52.3802 42.5219C52.3802 43.2095 52.9377 43.767 53.6254 43.767H54.9583C55.6459 43.767 56.2034 43.2095 56.2034 42.5219C56.2034 41.8343 55.6459 41.2768 54.9583 41.2768H53.6254C52.9377 41.2768 52.3802 41.8343 52.3802 42.5219Z" fill="#4351D8"/>
<path d="M41.2617 53.6494V54.9834C41.2617 55.671 41.8191 56.2285 42.5068 56.2285C43.1944 56.2285 43.7519 55.671 43.7519 54.9834V53.6494C43.7519 52.9618 43.1944 52.4043 42.5068 52.4043C41.8191 52.4043 41.2617 52.9618 41.2617 53.6494Z" fill="#4351D8"/>
<path d="M43.7519 31.3946V30.0605C43.7519 29.3728 43.1944 28.8153 42.5068 28.8153C41.8191 28.8153 41.2617 29.3728 41.2617 30.0605V31.3946C41.2617 32.0822 41.8191 32.6397 42.5068 32.6397C43.1944 32.6397 43.7519 32.0824 43.7519 31.3946Z" fill="#4351D8"/>
<path d="M83.6787 70.6881H73.872C73.1844 70.6881 72.6269 71.2456 72.6269 71.9332C72.6269 72.6209 73.1844 73.1783 73.872 73.1783H83.6787C84.3663 73.1783 84.9238 72.6209 84.9238 71.9332C84.9238 71.2456 84.3663 70.6881 83.6787 70.6881Z" fill="#4351D8"/>
<path d="M1.25858 14.3119H13.5552C14.2428 14.3119 14.8003 13.7544 14.8003 13.0667C14.8003 12.3791 14.2428 11.8216 13.5552 11.8216H1.25858C0.570939 11.8216 0.0134583 12.3791 0.0134583 13.0667C0.0134583 13.7544 0.570939 14.3119 1.25858 14.3119Z" fill="#4351D8"/>
<path d="M43.8183 42.5129C43.8245 41.8252 43.272 41.2627 42.5843 41.2566C41.8965 41.2504 41.334 41.8028 41.3278 42.4905C41.3216 43.1781 41.8741 43.7406 42.5618 43.7468C43.2496 43.753 43.8121 43.2005 43.8183 42.5129Z" fill="#4351D8"/>
</g>
<defs>
<clipPath id="clip0">
<rect width="85" height="85" fill="white"/>
</clipPath>
</defs>
</svg>
