<svg width="114" height="91" viewBox="0 0 114 91" fill="none" xmlns="http://www.w3.org/2000/svg">
<path d="M71.6961 69.6586L71.664 69.6799C52.6061 81.0138 29.4661 81.8839 11.8479 72.1187C11.5469 52.0078 23.2353 32.0478 42.2501 20.6065L42.2821 20.5853C61.3615 9.20834 84.5339 8.31666 102.152 18.0822C102.474 38.2143 90.7539 58.2174 71.6961 69.6586ZM113.25 14.4511L113.217 14.0213L112.584 11.2711L110.628 10.0357C100.315 3.52555 88.0684 0.0877075 75.1877 0.0877075H74.7791C61.5228 0.163078 48.2981 3.90155 36.5458 10.9059L36.4919 10.9382C24.75 17.9961 15.1996 27.8795 8.88292 39.5355C2.67338 50.9875 -0.141387 63.5242 0.750305 75.8141L0.954316 78.6396L3.36078 80.1544C13.6956 86.6858 25.9639 90.1236 38.8661 90.1236H39.1883C52.4667 90.0698 65.7016 86.3313 77.465 79.327L77.5401 79.2732C89.261 72.226 98.7896 62.3531 105.107 50.7189C111.327 39.2777 114.141 26.7302 113.25 14.4511Z" fill="#4452D9"/>
<path d="M57.9996 21.6164V35.1416C63.3279 35.1416 67.6574 39.4819 67.6574 44.8103C67.6574 50.1389 63.3279 54.4681 57.9996 54.4681C52.6712 54.4681 48.3309 50.1389 48.3309 44.8103C48.3309 42.4038 49.2116 40.2016 50.6836 38.5041L40.6389 29.4481C37.0081 33.541 34.8057 38.9124 34.8057 44.8103C34.8057 57.5943 45.2048 68.0042 57.9996 68.0042C70.7836 68.0042 81.1932 57.5943 81.1932 44.8103C81.1932 32.0155 70.7836 21.6164 57.9996 21.6164Z" fill="#040606"/>
</svg>
