<svg width="81" height="81" viewBox="0 0 81 81" fill="none" xmlns="http://www.w3.org/2000/svg">
<path d="M60.4219 0.65625H17.9219C16.8661 0.659403 15.8545 1.0802 15.108 1.82673C14.3614 2.57326 13.9407 3.58487 13.9375 4.64062V32.5312H8.625C8.4566 32.5287 8.28942 32.5603 8.13359 32.6242L1.49297 35.2805C1.24585 35.3789 1.03398 35.5492 0.884795 35.7695C0.735612 35.9897 0.655993 36.2496 0.656251 36.5156V55.1094C0.657382 55.3281 0.71253 55.5432 0.816794 55.7355C0.921058 55.9278 1.07121 56.0914 1.25391 56.2117L5.25156 58.868C5.46649 59.0156 5.72127 59.0944 5.98203 59.0938H13.9375V76.3594C13.9407 77.4151 14.3614 78.4267 15.108 79.1733C15.8545 79.9198 16.8661 80.3406 17.9219 80.3438H60.4219C61.4776 80.3406 62.4892 79.9198 63.2358 79.1733C63.9823 78.4267 64.4031 77.4151 64.4063 76.3594V4.64062C64.4031 3.58487 63.9823 2.57326 63.2358 1.82673C62.4892 1.0802 61.4776 0.659403 60.4219 0.65625ZM13.8047 43.1562H13.9375V56.4375H6.38047L3.3125 54.3922V37.4188L8.87734 35.1875H24.5625C25.267 35.1875 25.9426 35.4674 26.4408 35.9655C26.9389 36.4636 27.2188 37.1393 27.2188 37.8438C27.2188 38.5482 26.9389 39.2239 26.4408 39.722C25.9426 40.2201 25.267 40.5 24.5625 40.5H12.6094C12.2571 40.5 11.9193 40.6399 11.6702 40.889C11.4212 41.1381 11.2813 41.4759 11.2813 41.8281C11.2781 42.8839 10.8573 43.8955 10.1108 44.642C9.36424 45.3886 8.35263 45.8093 7.29688 45.8125V48.4688C8.82715 48.4668 10.31 47.9374 11.4954 46.9697C12.6809 46.002 13.4964 44.6552 13.8047 43.1562ZM61.75 76.3594C61.75 76.7116 61.6101 77.0494 61.361 77.2985C61.1119 77.5476 60.7741 77.6875 60.4219 77.6875H17.9219C17.5696 77.6875 17.2318 77.5476 16.9827 77.2985C16.7337 77.0494 16.5938 76.7116 16.5938 76.3594V43.1562H24.5625C25.9715 43.1562 27.3227 42.5965 28.319 41.6003C29.3153 40.604 29.875 39.2527 29.875 37.8438C29.875 36.4348 29.3153 35.0835 28.319 34.0872C27.3227 33.091 25.9715 32.5312 24.5625 32.5312H16.5938V4.64062C16.5938 4.28838 16.7337 3.95057 16.9827 3.7015C17.2318 3.45243 17.5696 3.3125 17.9219 3.3125H60.4219C60.7741 3.3125 61.1119 3.45243 61.361 3.7015C61.6101 3.95057 61.75 4.28838 61.75 4.64062V76.3594Z" fill="#4351D8"/>
<path d="M39.1719 24.5625C39.5241 24.5624 39.8618 24.4224 40.1108 24.1733L47.624 16.6601L45.7461 14.7822L39.1719 21.3564L36.3536 18.5381L34.4756 20.4161L38.2329 24.1733C38.4819 24.4224 38.8197 24.5624 39.1719 24.5625Z" fill="#4351D8"/>
<path d="M51.6696 11.4008L39.7164 6.08827C39.5457 6.00953 39.3599 5.96875 39.1719 5.96875C38.9839 5.96875 38.7981 6.00953 38.6274 6.08827L26.6742 11.4008C26.4399 11.5037 26.2408 11.673 26.1016 11.8878C25.9623 12.1026 25.889 12.3534 25.8907 12.6094V21.1226C25.89 22.8093 26.2472 24.477 26.9386 26.0155C27.63 27.5539 28.6399 28.9282 29.9016 30.0476L38.2953 37.5117C38.5377 37.7246 38.8493 37.8421 39.1719 37.8421C39.4945 37.8421 39.8061 37.7246 40.0485 37.5117L48.4422 30.0476C49.7039 28.9282 50.7138 27.5539 51.4052 26.0155C52.0966 24.477 52.4538 22.8093 52.4532 21.1226V12.6094C52.4548 12.3534 52.3815 12.1026 52.2422 11.8878C52.103 11.673 51.9039 11.5037 51.6696 11.4008ZM49.7969 21.1226C49.7953 22.435 49.5164 23.7321 48.9786 24.9292C48.4407 26.1262 47.656 27.1961 46.6758 28.0687L39.1719 34.7359L31.668 28.0687C30.6878 27.1961 29.9031 26.1262 29.3653 24.9292C28.8274 23.7321 28.5485 22.435 28.5469 21.1226V13.4726L39.1719 8.74452L49.7969 13.4726V21.1226Z" fill="#4351D8"/>
<path d="M79.0156 27.2187H75.0312V23.2344C75.0312 22.1777 74.6115 21.1642 73.8643 20.417C73.117 19.6698 72.1036 19.25 71.0469 19.25C69.9902 19.25 68.9767 19.6698 68.2295 20.417C67.4823 21.1642 67.0625 22.1777 67.0625 23.2344V68.3906C67.0626 68.4981 67.076 68.6052 67.1023 68.7094L69.7586 79.3344C69.8306 79.6215 69.9964 79.8764 70.2298 80.0586C70.4632 80.2407 70.7508 80.3396 71.0469 80.3396C71.3429 80.3396 71.6305 80.2407 71.8639 80.0586C72.0973 79.8764 72.2632 79.6215 72.3352 79.3344L74.9914 68.7094C75.0177 68.6052 75.0311 68.4981 75.0312 68.3906V29.875H77.6875V41.8281H80.3438V28.5469C80.3438 28.1946 80.2038 27.8568 79.9548 27.6077C79.7057 27.3587 79.3679 27.2187 79.0156 27.2187ZM71.0469 73.5437L70.0906 69.7187H72.0031L71.0469 73.5437ZM72.375 67.0625H69.7188V29.875H72.375V67.0625ZM72.375 27.2187H69.7188V23.2344C69.7188 22.8821 69.8587 22.5443 70.1077 22.2952C70.3568 22.0462 70.6946 21.9062 71.0469 21.9062C71.3991 21.9062 71.7369 22.0462 71.986 22.2952C72.2351 22.5443 72.375 22.8821 72.375 23.2344V27.2187Z" fill="#4351D8"/>
<path d="M21.9062 48.4688H27.2188V51.125H21.9062V48.4688Z" fill="#4351D8"/>
<path d="M29.875 48.4688H56.4375V51.125H29.875V48.4688Z" fill="#4351D8"/>
<path d="M21.9062 56.4375H27.2188V59.0938H21.9062V56.4375Z" fill="#4351D8"/>
<path d="M29.875 56.4375H56.4375V59.0938H29.875V56.4375Z" fill="#4351D8"/>
<path d="M21.9062 64.4062H27.2188V67.0625H21.9062V64.4062Z" fill="#4351D8"/>
<path d="M29.875 64.4062H56.4375V67.0625H29.875V64.4062Z" fill="#4351D8"/>
<path d="M21.9062 72.375H27.2188V75.0312H21.9062V72.375Z" fill="#4351D8"/>
<path d="M29.875 72.375H56.4375V75.0312H29.875V72.375Z" fill="#4351D8"/>
</svg>
