<svg width="20" height="20" viewBox="0 0 20 20" fill="none" xmlns="http://www.w3.org/2000/svg">
<path d="M13.4767 5.25223H14.1286C14.3676 5.25223 14.5632 5.05666 14.5632 4.81764C14.5632 4.57862 14.3676 4.38306 14.1286 4.38306H13.4767C13.2377 4.38306 13.0421 4.57862 13.0421 4.81764C13.0421 5.05666 13.2377 5.25223 13.4767 5.25223Z" fill="#4351D8"/>
<path d="M19.9086 1.38442C19.7565 1.08021 19.4522 0.906372 19.1263 0.906372H0.873719C0.54778 0.906372 0.24357 1.10194 0.0914654 1.38442C-0.0606395 1.68863 -0.017181 2.03629 0.178382 2.29705L7.84881 11.9448V18.2246C7.84881 18.5505 8.02265 18.833 8.30513 18.9851C8.4355 19.0503 8.56588 19.0938 8.71798 19.0938C8.89182 19.0938 9.06565 19.0503 9.21776 18.9417L11.6297 17.2685C11.9774 17.0078 12.1729 16.6166 12.1729 16.2038V11.9231L19.8216 2.29705C20.0172 2.03629 20.0607 1.68863 19.9086 1.38442ZM11.3907 11.5103C11.3472 11.5754 11.3038 11.6624 11.3038 11.771V16.182C11.3038 16.3342 11.2386 16.4645 11.1299 16.5514L8.71798 18.2246V11.771C8.71798 11.6189 8.6528 11.4885 8.54415 11.4233L3.63334 5.25223H11.5211C11.7601 5.25223 11.9556 5.05666 11.9556 4.81764C11.9556 4.57862 11.7601 4.38305 11.5211 4.38305H3.04665C3.02492 4.38305 2.98146 4.38305 2.95973 4.38305L0.873719 1.77554H19.1263L11.3907 11.5103Z" fill="#4351D8"/>
</svg>
