<svg width="50" height="50" viewBox="0 0 50 50" fill="none" xmlns="http://www.w3.org/2000/svg">
<g clip-path="url(#clip0)">
<path d="M49.2285 10.0888L45.1574 10.0888C45.2757 9.92285 45.3829 9.74852 45.4767 9.5658C46.0154 8.5137 46.0882 7.27468 45.6766 6.16612L44.4429 2.85037C44.0317 1.74296 43.1677 0.852607 42.0732 0.407811C40.9776 -0.0373664 39.7367 -0.00188965 38.6682 0.505467L28.9048 5.14225C28.4223 4.7974 27.8321 4.5937 27.1951 4.5937L22.8051 4.5937C22.1681 4.5937 21.5775 4.79778 21.095 5.14264L11.332 0.505086C10.2635 -0.0018896 9.02256 -0.0373664 7.92697 0.407811C6.83253 0.852607 5.9685 1.74296 5.55727 2.84999L4.3236 6.1665C3.91199 7.27468 3.98485 8.5137 4.52387 9.5658C4.61733 9.74852 4.7249 9.92324 4.84316 10.0888H0.771716C0.345613 10.0888 0 10.434 0 10.8605L0 16.4159C0 16.842 0.345613 17.1876 0.771716 17.1876C1.19782 17.1876 1.54343 16.842 1.54343 16.4159L1.54343 11.6318H6.90349C6.98932 11.662 7.07629 11.6898 7.16441 11.7142L13.6429 13.4976C12.2033 15.7037 10.9333 18.0242 9.84616 20.4286H1.54343V19.5024C1.54343 19.0763 1.19782 18.731 0.771716 18.731C0.345613 18.731 0 19.0763 0 19.5024L0 21.2003C0 21.6264 0.345613 21.972 0.771716 21.972H3.52365L3.52365 49.2919C3.52365 49.7183 3.86926 50.0636 4.29537 50.0636H45.7048C46.1309 50.0636 46.4766 49.7183 46.4766 49.2919V44.8111C46.4766 44.385 46.1309 44.0394 45.7048 44.0394C45.2784 44.0394 44.9331 44.385 44.9331 44.8111V48.5205H29.6296L29.6296 22.4466C31.8155 26.5867 33.2952 31.0884 33.9761 35.7397C34.0211 36.0476 34.247 36.2982 34.5487 36.3752C34.612 36.3916 34.6761 36.3993 34.7398 36.3993C34.9782 36.3993 35.2079 36.2886 35.3559 36.0922C36.4652 34.6205 37.4967 33.045 38.4279 31.4001C39.9873 32.4621 41.5014 33.6462 42.938 34.9279C43.1803 35.1438 43.532 35.1854 43.8177 35.0313C44.1034 34.8776 44.2625 34.5613 44.2152 34.2401C43.5991 30.0375 42.4505 25.9046 40.8224 21.972H44.9327V41.7242C44.9327 42.1507 45.2784 42.4959 45.7045 42.4959C46.1309 42.4959 46.4762 42.1507 46.4762 41.7242V21.972H49.2285C49.6546 21.972 49.9998 21.6264 49.9998 21.2003V10.8605C50.0002 10.434 49.655 10.0888 49.2285 10.0888ZM39.3301 1.89936C40.0186 1.57282 40.7861 1.5507 41.4923 1.83757C42.1972 2.12405 42.7313 2.67451 42.9964 3.38825L44.2297 6.70362C44.4952 7.41773 44.4498 8.18449 44.1027 8.86236C43.7559 9.53986 43.1604 10.0243 42.4265 10.2261L30.1427 13.6079V9.8992C32.9038 8.20852 39.7871 4.72149 41.5003 7.13964C41.7463 7.48716 42.2277 7.56994 42.5756 7.32351C42.9235 7.07708 43.0059 6.59528 42.7595 6.24776C41.4373 4.38122 38.6511 4.29043 34.4774 5.97844C32.7581 6.67348 31.1708 7.52187 30.1427 8.11048V7.54095C30.1427 7.12781 30.0569 6.73413 29.9028 6.3767L39.3301 1.89936ZM22.8051 6.13675L27.1951 6.13675C27.9695 6.13675 28.5993 6.76694 28.5993 7.54095V13.9195C28.5993 14.6939 27.9695 15.3237 27.1951 15.3237H22.8051C22.0307 15.3237 21.4009 14.6939 21.4009 13.9195V7.54095C21.4009 6.76656 22.0307 6.13675 22.8051 6.13675ZM21.5081 20.4282C22.2463 19.2018 23.0496 18.0131 23.9141 16.8672H26.0854C26.9502 18.0131 27.7536 19.2018 28.4913 20.4282H21.5081ZM5.89755 8.86236C5.55041 8.18449 5.50501 7.41773 5.77013 6.704L7.00419 3.38787C7.26894 2.67451 7.803 2.12405 8.50795 1.83757C9.21368 1.5507 9.98158 1.57282 10.6698 1.89936L20.0974 6.37746C19.9433 6.73452 19.8575 7.12781 19.8575 7.54133V8.15473C18.8329 7.56498 17.2097 6.69141 15.4465 5.97844C11.2732 4.29043 8.48659 4.38122 7.16441 6.24776C6.91798 6.59528 7.00038 7.07708 7.34828 7.32351C7.69618 7.56994 8.1776 7.48754 8.42365 7.13964C10.1529 4.6986 17.1494 8.27452 19.8575 9.94612V13.6079L7.57411 10.2265C6.83978 10.0243 6.2443 9.53986 5.89755 8.86236ZM20.2039 15.3039C20.588 16.0226 21.2609 16.5647 22.067 16.7733C18.4579 21.8087 15.9733 27.5945 14.808 33.6759C13.9882 32.4781 13.2218 31.2227 12.5203 29.9261C12.4177 29.7361 12.2407 29.598 12.0312 29.545C11.8222 29.492 11.6005 29.529 11.4201 29.6468C10.1349 30.4849 8.87646 31.4043 7.66109 32.3915C8.9127 25.8218 11.4987 19.4871 15.207 13.9283L20.2039 15.3039ZM5.06708 21.972H9.17782C7.5497 25.9046 6.40109 30.0371 5.78463 34.2401C5.73771 34.5613 5.8964 34.8776 6.18212 35.0313C6.46823 35.185 6.81956 35.1438 7.0618 34.9279C8.49842 33.6462 10.0125 32.4621 11.5723 31.4001C12.5035 33.045 13.5346 34.6201 14.6443 36.0922C14.7923 36.2886 15.022 36.3996 15.2604 36.3996C15.3241 36.3996 15.3882 36.3916 15.4515 36.3752C15.7532 36.2982 15.9787 36.0476 16.0237 35.7397C16.705 31.0884 18.1847 26.5863 20.3702 22.4462L20.3702 48.5205H5.06708L5.06708 21.972ZM21.9136 48.5205L21.9136 21.972H28.0866L28.0866 48.5205H21.9136ZM38.5801 29.6468C38.3997 29.529 38.1776 29.4923 37.969 29.5454C37.7599 29.5984 37.5826 29.7365 37.4799 29.9261C36.7784 31.2227 36.012 32.4785 35.1923 33.6759C34.0269 27.5941 31.5423 21.8087 27.9329 16.7737C28.7389 16.5654 29.4122 16.023 29.7963 15.3039L34.7944 13.9279C38.5019 19.4879 41.0879 25.8226 42.3395 32.3915C41.1237 31.4043 39.8653 30.4849 38.5801 29.6468ZM48.4568 20.4286H40.1544C39.0672 18.0242 37.7973 15.7037 36.358 13.4976L42.8358 11.7142C42.9239 11.6898 43.0109 11.662 43.0967 11.6318L48.4568 11.6318V20.4286Z" fill="#3E425B"/>
</g>
<defs>
<clipPath id="clip0">
<rect width="50" height="50" fill="white"/>
</clipPath>
</defs>
</svg>
