<svg width="85" height="85" viewBox="0 0 85 85" fill="none" xmlns="http://www.w3.org/2000/svg">
<g clip-path="url(#clip0)">
<path d="M37.2194 19.2705C37.6635 19.2705 38.0821 19.0609 38.3474 18.7048C38.6134 18.3487 38.6959 17.8888 38.5695 17.4627C37.5604 14.0167 35.8164 10.8306 33.4566 8.12505C31.5552 6.10204 28.7252 5.23592 26.0176 5.84839C25.6436 5.99137 25.3487 6.28695 25.2058 6.66089C25.1281 6.87123 25.0703 7.08845 25.0339 7.30979C24.9906 7.57238 24.9672 7.83772 24.9631 8.10374V8.12642C24.9803 10.3715 25.8849 12.5189 27.4804 14.0992C30.186 16.457 33.37 18.2002 36.8138 19.2087C36.9458 19.2478 37.0819 19.2691 37.2194 19.2705ZM29.4766 12.1058C28.9177 11.5462 28.4791 10.8774 28.187 10.1419V10.1281C28.1251 9.97209 28.0715 9.81536 28.0255 9.66482C28.0014 9.58302 27.9842 9.50603 27.9636 9.42561C27.9423 9.34518 27.9237 9.28469 27.91 9.21457C27.8955 9.14377 27.8928 9.11559 27.8832 9.06541C27.8419 8.85506 27.8131 8.64266 27.7972 8.42888C29.1858 8.53405 30.4898 9.13346 31.4741 10.1185C32.8737 11.7009 34.0017 13.5039 34.8121 15.4555C32.8586 14.6423 31.0528 13.5101 29.4697 12.1058H29.4766Z" fill="#4351D8"/>
<path d="M80.4244 20.2418H58.6937C59.6334 19.5998 60.516 18.8773 61.3306 18.0834C66.3665 13.0324 66.5314 5.37406 63.3144 2.15704C60.0974 -1.05998 52.4418 -0.897752 47.3853 4.14362C45.3176 6.39416 43.6376 8.9719 42.4141 11.7724C41.1905 8.96984 39.5091 6.39073 37.4394 4.1395C32.3884 -0.896377 24.7308 -1.06135 21.5131 2.15567C18.2947 5.37269 18.461 13.031 23.4976 18.0834C24.3128 18.8773 25.1955 19.5998 26.1344 20.2418H4.40373C3.62628 20.2418 2.99594 20.8721 2.99594 21.6496V35.7275C2.99594 36.5049 3.62628 37.1353 4.40373 37.1353H7.21931V77.9612C7.22413 81.8464 10.3731 84.9953 14.2583 85.0001H70.5699C74.4558 84.9953 77.6047 81.8464 77.6089 77.9612V37.1353H80.4244C81.2019 37.1353 81.8322 36.5049 81.8322 35.7275V21.6496C81.8322 20.8721 81.2019 20.2418 80.4244 20.2418ZM49.3774 6.13295C53.4234 2.0993 59.3248 2.14604 61.3251 4.14637C63.3254 6.1467 63.3735 12.0453 59.3399 16.0927C57.4928 17.8001 55.3839 19.2004 53.0935 20.2418H44.6811C44.6811 20.2122 44.6811 20.1799 44.6811 20.1504C44.6811 19.8293 44.6571 19.5042 44.6261 19.177C44.6144 19.0691 44.6021 18.9619 44.5897 18.8519C44.5574 18.5817 44.5175 18.3123 44.4694 18.0442C44.4543 17.95 44.4385 17.8551 44.422 17.7623C44.3546 17.4118 44.2811 17.0667 44.1965 16.7333C44.1855 16.6852 44.1724 16.6433 44.1614 16.5924C44.0865 16.3009 44.0095 16.0294 43.9305 15.7483C43.9195 15.7098 43.9092 15.6678 43.8982 15.6293C45.0516 12.1209 46.9172 8.88735 49.3774 6.13295ZM48.0452 34.3197H36.7829V23.0574H48.0452V34.3197ZM25.4897 16.094C21.4553 12.0466 21.5028 6.14807 23.5038 4.14637C25.5041 2.14467 31.4027 2.09793 35.4473 6.12883C38.0085 8.99802 39.9285 12.3814 41.0785 16.0521C41.2373 16.5463 41.3596 17.0206 41.4751 17.4812C41.5074 17.6132 41.5342 17.741 41.5624 17.871C41.6387 18.2147 41.6999 18.5425 41.7459 18.8567C41.7611 18.9632 41.781 19.0732 41.7934 19.177C41.838 19.5283 41.8621 19.8823 41.8655 20.2363H31.7347C29.4456 19.1969 27.3374 17.7988 25.4897 16.094ZM5.81152 23.0574H33.9673V34.3197H5.81152V23.0574ZM10.0349 77.9612V37.1353H36.7829V82.1846H14.2583C11.9259 82.1846 10.0349 80.2935 10.0349 77.9612ZM39.5985 82.1846V37.1353H45.2297V82.1846H39.5985ZM74.7933 77.9612C74.7933 80.2935 72.9029 82.1846 70.5699 82.1846H48.0452V37.1353H74.7933V77.9612ZM79.0166 34.3197H50.8608V23.0574H79.0166V34.3197Z" fill="#4351D8"/>
<path d="M47.6046 19.2746C47.74 19.2746 47.8747 19.2554 48.0047 19.2169C51.4526 18.2092 54.6401 16.4625 57.345 14.0978C59.3481 12.1821 60.2115 9.36374 59.6258 6.65471C59.4842 6.28214 59.1893 5.98793 58.8167 5.84564C56.1077 5.25998 53.2894 6.12335 51.3736 8.12642C49.0096 10.8313 47.263 14.0188 46.2546 17.4668C46.1288 17.893 46.2106 18.3535 46.4766 18.7089C46.7426 19.065 47.1605 19.2746 47.6046 19.2746ZM53.3643 10.1171C54.35 9.13277 55.6554 8.53405 57.0439 8.4275C56.9388 9.81674 56.3393 11.1228 55.355 12.1085C53.7712 13.5177 51.9627 14.6519 50.005 15.4651C50.8189 13.5074 51.9544 11.7002 53.3643 10.1171Z" fill="#4351D8"/>
</g>
<defs>
<clipPath id="clip0">
<rect width="85" height="85" fill="white"/>
</clipPath>
</defs>
</svg>
