<svg width="40" height="14" viewBox="0 0 40 14" fill="none" xmlns="http://www.w3.org/2000/svg">
<path d="M38.8942 6.31087H35.862C35.4994 2.48021 32.1 -0.331161 28.2693 0.0314903C24.9405 0.346592 22.3051 2.98215 21.99 6.31087H17.5933C17.2307 2.48021 13.8313 -0.331161 10.0007 0.0314903C6.67184 0.346592 4.03637 2.98215 3.72127 6.31087H0.689124C0.308555 6.31087 0 6.61943 0 7C0 7.38057 0.308555 7.68912 0.689124 7.68912H3.72127C4.08392 11.5198 7.48328 14.3312 11.314 13.9685C14.6428 13.6534 17.2782 11.0179 17.5933 7.68912H21.9968C22.3595 11.5198 25.7589 14.3312 29.5895 13.9685C32.9183 13.6534 35.5538 11.0179 35.8689 7.68912H38.8942C39.2747 7.68912 39.5833 7.38057 39.5833 7C39.5833 6.61943 39.2747 6.31087 38.8942 6.31087ZM10.6539 12.5957H10.6401C7.5497 12.5881 5.05059 10.0767 5.05817 6.98622C5.06575 3.89584 7.57718 1.39673 10.6676 1.40431C13.7527 1.41189 16.2495 3.91496 16.2495 7C16.2495 10.0904 13.7442 12.5957 10.6539 12.5957ZM28.9294 12.5957H28.9156C25.8253 12.5881 23.3262 10.0767 23.3337 6.98622C23.3413 3.89584 25.8527 1.39673 28.9432 1.40431C32.0282 1.41189 34.5251 3.91496 34.5251 7C34.5251 10.0904 32.0198 12.5957 28.9294 12.5957Z" fill="white"/>
</svg>
