<svg width="85" height="85" viewBox="0 0 85 85" fill="none" xmlns="http://www.w3.org/2000/svg">
<g clip-path="url(#clip0)">
<path d="M83.8068 42.2424L78.9024 20.1693C78.1138 16.6344 75.0356 14.1668 71.4179 14.1668C67.1915 14.1668 63.75 17.6065 63.75 21.8329V23.0209C63.75 23.9997 64.5421 24.7918 65.5209 24.7918C66.4997 24.7918 67.2918 23.9997 67.2918 23.0209V21.8329C67.2918 19.5588 69.1422 17.7084 71.4179 17.7084C73.3651 17.7084 75.0218 19.0382 75.4438 20.9387L80.3482 43.0102C80.957 45.7529 81.3166 48.551 81.4239 51.3541H81.2794C80.3761 42.4308 72.9076 35.4166 63.75 35.4166C55.7434 35.4166 49.0389 40.793 46.8566 48.0999C45.773 46.9575 44.3449 46.0416 42.5 46.0416C40.6551 46.0416 39.227 46.9575 38.1434 48.0999C35.9611 40.793 29.2566 35.4166 21.25 35.4166C12.0926 35.4166 4.62403 42.4308 3.72058 51.3541H3.57614C3.68339 48.551 4.04314 45.7528 4.65176 43.0102L9.55619 20.9404C9.9782 19.0382 11.6349 17.7082 13.5821 17.7082C15.8578 17.7082 17.7082 19.5586 17.7082 21.8327V23.0207C17.7082 23.9996 18.5003 24.7916 19.4791 24.7916C20.4579 24.7916 21.25 23.9996 21.25 23.0207V21.8327C21.25 17.6063 17.8087 14.1666 13.5821 14.1666C9.96426 14.1666 6.88616 16.6344 6.09759 20.1709L1.19332 42.2424C0.40126 45.8152 0 49.4762 0 53.125C0 54.1038 0.792061 54.8959 1.77089 54.8959H3.72074C4.62403 63.8192 12.0926 70.8334 21.2502 70.8334C23.7185 70.8334 26.0668 70.3194 28.2037 69.4029C28.1966 69.5924 28.2567 69.5368 28.3427 69.3272C34.4502 66.642 38.7366 60.612 38.9139 53.5658C39.2697 52.5757 40.6848 49.5834 42.5002 49.5834C44.2689 49.5834 45.6661 52.409 46.0859 53.5605C46.3233 63.119 54.1355 70.8334 63.7502 70.8334C72.9076 70.8334 80.3761 63.8192 81.2796 54.8959H83.2294C84.2083 54.8959 85.0003 54.1038 85.0003 53.125C85 49.4762 84.5987 45.8152 83.8068 42.2424ZM21.25 67.2916C13.4368 67.2916 7.08339 60.9364 7.08339 53.125C7.08339 46.3587 11.858 40.7019 18.2114 39.3049L14.3535 47.0205C13.9178 47.8955 14.2705 48.959 15.1456 49.3966L20.6449 52.1464L17.8952 57.6456C17.5874 58.263 17.6634 59.005 18.0957 59.5445L24.0668 67.0071C23.1559 67.1914 22.2146 67.2916 21.25 67.2916ZM27.5827 65.7294L21.5683 58.2161L24.605 52.146C25.0408 51.271 24.688 50.2075 23.813 49.7698L18.3137 47.0201L22.2921 39.0633C29.6112 39.6077 35.4168 45.6701 35.4168 53.1247C35.4166 58.6495 32.2075 63.3946 27.5827 65.7294ZM63.75 67.2916C55.9368 67.2916 49.5834 60.9364 49.5834 53.125C49.5834 45.3137 55.937 38.9584 63.75 38.9584C71.563 38.9584 77.9166 45.3137 77.9166 53.125C77.9166 60.9364 71.5632 67.2916 63.75 67.2916Z" fill="#4351D8"/>
</g>
<defs>
<clipPath id="clip0">
<rect width="85" height="85" fill="white"/>
</clipPath>
</defs>
</svg>
