<svg width="83" height="66" viewBox="0 0 83 66" fill="none" xmlns="http://www.w3.org/2000/svg">
<path d="M51.8642 51.0732L51.8408 51.0887C37.9403 59.3554 21.0624 59.9901 8.21208 52.8675C7.9926 38.1991 16.5178 23.6406 30.3869 15.2956L30.4102 15.2801C44.3264 6.98201 61.2278 6.33163 74.0784 13.4544C74.3132 28.1383 65.7646 42.7282 51.8642 51.0732ZM82.1725 10.806L82.1488 10.4925L81.6867 8.48655L80.2607 7.58548C72.7382 2.83709 63.8058 0.329605 54.4109 0.329605H54.1129C44.444 0.384575 34.7982 3.11134 26.2262 8.22016L26.187 8.24372C17.6227 13.3916 10.6567 20.6004 6.04952 29.102C1.5204 37.4549 -0.532633 46.5989 0.117749 55.5629L0.266551 57.6238L2.02178 58.7286C9.55976 63.4925 18.508 66 27.9186 66H28.1536C37.8387 65.9607 47.4919 63.234 56.0719 58.1251L56.1267 58.0859C64.6757 52.9459 71.6257 45.7447 76.2331 37.259C80.7699 28.914 82.8227 19.7621 82.1725 10.806Z" fill="#5562DC"/>
<path d="M41.8739 16.0322V25.8973C45.7603 25.8973 48.9181 29.063 48.9181 32.9494C48.9181 36.836 45.7603 39.9937 41.8739 39.9937C37.9875 39.9937 34.8218 36.836 34.8218 32.9494C34.8218 31.1942 35.4641 29.588 36.5377 28.3498L29.2114 21.7445C26.5632 24.7298 24.9567 28.6476 24.9567 32.9494C24.9567 42.2738 32.5416 49.8666 41.8739 49.8666C51.1983 49.8666 58.7908 42.2738 58.7908 32.9494C58.7908 23.6171 51.1983 16.0322 41.8739 16.0322Z" fill="#5562DC"/>
</svg>
