<svg width="65" height="65" viewBox="0 0 65 65" fill="none" xmlns="http://www.w3.org/2000/svg">
<g clip-path="url(#clip0)">
<path d="M56.4085 20.952L58.6989 12.7776L61.8706 13.6663L59.867 20.8171L59.7781 21.1346H60.1078H62.1139L64.7228 46.5153C64.8739 47.9851 64.3926 49.4575 63.4028 50.5544C62.4128 51.6513 60.9972 52.2806 59.5197 52.2806H5.48047C4.00296 52.2806 2.58738 51.6513 1.59743 50.5544C0.607466 49.4575 0.126199 47.9851 0.277292 46.5153L0.0286025 46.4898L0.277292 46.5153L2.88613 21.1346H56.1677H56.3573L56.4085 20.952ZM60.627 41.1396L60.8549 41.0984L60.8312 40.868L59.1657 24.6656V24.4283H58.9157H6.08432H5.8587L5.83563 24.6527L4.16824 40.8751L4.14467 41.1044L4.37129 41.1465C8.07276 41.8338 10.9336 44.9398 11.2477 48.7572L11.2666 48.9867H11.4969H53.4626H53.6929L53.7118 48.7572C54.027 44.9266 56.9069 41.8123 60.627 41.1396ZM4.08814 44.453L3.8078 44.3822L3.77823 44.6698L3.55389 46.8521C3.49721 47.4033 3.67123 47.9362 4.04268 48.3477C4.41407 48.7591 4.92613 48.9867 5.48047 48.9867H7.6819H7.97147L7.92923 48.7003C7.62399 46.6302 6.08641 44.9577 4.08814 44.453ZM57.0302 48.7002L56.988 48.9867H57.2776H59.5197C60.0739 48.9867 60.586 48.7591 60.9574 48.3477C61.3288 47.9363 61.503 47.4034 61.4463 46.8519L61.2211 44.6606L61.1917 44.3754L60.9132 44.4433C58.8946 44.9353 57.3377 46.6159 57.0302 48.7002Z" fill="#4351D8" stroke="white" stroke-width="0.5"/>
<path d="M48.3885 38.9557H48.1385V39.2057V42.3114H44.8446V39.2057V38.9557H44.5946H14.5743V35.6619H50.4259V38.9557H48.3885Z" fill="#4351D8" stroke="white" stroke-width="0.5"/>
</g>
<defs>
<clipPath id="clip0">
<rect width="65" height="65" fill="white"/>
</clipPath>
</defs>
</svg>
