<svg width="65" height="65" viewBox="0 0 65 65" fill="none" xmlns="http://www.w3.org/2000/svg">
<path d="M41.7926 22.6215C44.0849 24.5525 46.6093 26.8748 49.1863 29.4518C57.3682 37.6337 62.8878 45.383 61.5119 46.7578C61.4323 46.8374 61.344 46.8956 61.2246 46.9314C59.2551 47.4934 51.9182 42.1444 44.206 34.4321C36.67 26.8975 31.4676 19.6376 31.7666 17.4619C31.792 17.2755 31.8717 17.1346 31.98 17.0251C32.7895 16.2154 35.7763 17.8319 39.7662 20.9695" stroke="#4351D8" stroke-width="2" stroke-miterlimit="10" stroke-linecap="round"/>
<path d="M61.2246 46.9314C53.0524 49.9823 43.6082 48.2235 37.037 41.6523C30.5186 35.1336 28.8166 25.5914 31.7679 17.462" stroke="#4351D8" stroke-width="2" stroke-miterlimit="10"/>
<path d="M34.0787 38.0096C31.1418 38.2728 27.7894 38.4234 24.2305 38.4234C13.574 38.4234 4.76167 36.9693 3.43548 35.2192C3.32165 35.0683 3.27753 34.9131 3.27753 34.7593C3.27753 32.8142 12.6591 31.3798 24.2305 31.3798C26.6709 31.3798 29.013 31.4497 31.1916 31.5792" stroke="#4351D8" stroke-width="2" stroke-miterlimit="10"/>
<path d="M32.8009 46.9725C30.1684 48.0225 27.29 48.5975 24.2661 48.5975C15.0482 48.5975 7.09675 43.0535 3.43549 35.2189" stroke="#4351D8" stroke-width="2" stroke-miterlimit="10" stroke-linecap="round"/>
<path d="M38.9112 43.3361C37.605 44.4232 36.1733 45.3651 34.6437 46.1405" stroke="#4351D8" stroke-width="2" stroke-miterlimit="10" stroke-linecap="round"/>
</svg>
