<svg width="50" height="50" viewBox="0 0 50 50" fill="none" xmlns="http://www.w3.org/2000/svg">
<path d="M49.7915 27.8888C49.9598 28.3148 49.752 28.7969 49.3263 28.9667L43.1311 31.4342L43.0366 31.4718V31.5735V45.511C43.0366 45.9702 42.6643 46.3425 42.2051 46.3425H0.981513C0.522315 46.3425 0.15 45.9702 0.15 45.511V19.9924C0.153154 19.6893 0.323192 19.4127 0.592313 19.2728L0.623206 19.2568L0.64387 19.2287C0.728701 19.1137 0.84234 19.0231 0.973339 18.9661L39.2618 3.71996L39.2689 3.71719L39.27 3.71671C39.2726 3.71565 39.2753 3.71461 39.278 3.71358C39.7027 3.54958 40.1813 3.75795 40.35 4.18194L40.35 4.18199L49.7896 27.8841C49.7898 27.8844 49.7899 27.8848 49.7901 27.8852M49.7915 27.8888L49.7901 27.8852M49.7915 27.8888C49.7913 27.8882 49.791 27.8876 49.7908 27.8869C49.7905 27.8863 49.7903 27.8857 49.7901 27.8852M49.7915 27.8888L49.7901 27.8852M49.7901 27.8852L49.7902 27.8855M49.7901 27.8852L49.7902 27.8855M49.7902 27.8855C49.7903 27.8857 49.7904 27.8859 49.7905 27.8861L49.7902 27.8855ZM39.2617 3.71971V3.71972C39.2616 3.71975 39.2616 3.71975 39.2617 3.71971ZM41.2236 44.6795H41.3736V44.5295V20.9732V20.8232H41.2236H1.96303H1.81303V20.9732V44.5295V44.6795H1.96303H41.2236ZM16.321 18.8757L16.3765 19.1651H40.0771H40.2982L40.2165 18.9596L38.5774 14.8373L38.54 14.7431L38.4386 14.7427C36.3516 14.7345 34.3583 13.8751 32.9197 12.363L32.8497 12.2895L32.7555 12.3271L16.321 18.8757ZM43.0366 29.4652V29.6866L43.2422 29.6046L47.7993 27.7868L47.9386 27.7313L47.8831 27.592L39.1682 5.70914L39.1128 5.56979L38.9734 5.62528L5.70796 18.8708L5.76345 19.1602H11.8567H11.956L11.9948 19.0687C12.0808 18.8658 12.245 18.7062 12.4503 18.6257L12.451 18.6254L32.5055 10.6397C32.5419 10.631 32.5787 10.6243 32.6157 10.62L32.6479 10.6161L32.6757 10.5993C33.027 10.3868 33.4813 10.4659 33.7401 10.7844C35.0006 12.3863 36.9863 13.2414 39.0163 13.0566C39.424 13.0235 39.7937 13.2961 39.8826 13.6955L39.8901 13.729L39.9114 13.7559C39.9345 13.7852 39.9552 13.8167 39.9733 13.85L42.05 19.0656L42.0876 19.1602H42.1894H42.2051C42.6643 19.1602 43.0366 19.5325 43.0366 19.9917V29.4652Z" fill="#4351D8" stroke="white" stroke-width="0.3"/>
<path d="M9.68405 42.3841L9.72163 42.3948C9.75553 42.4044 9.79014 42.4117 9.82502 42.4165H33.3612C33.3913 42.4122 33.4212 42.4059 33.4506 42.3976L33.4884 42.387L33.5266 42.3962C33.9365 42.4959 34.3496 42.2446 34.4494 41.8347M9.68405 42.3841L34.4494 41.8347M9.68405 42.3841L9.64604 42.3931C9.606 42.4026 9.56546 42.4088 9.52479 42.4116C9.15919 42.4094 8.83755 42.1686 8.73294 41.8179C8.15291 39.8647 6.62398 38.3375 4.67009 37.7597C4.27659 37.6386 4.03343 37.2448 4.10145 36.8387L4.10701 36.8054L4.09784 36.773C4.08809 36.7386 4.08079 36.7034 4.07603 36.6679V28.8341C4.08078 28.7953 4.08826 28.7568 4.09842 28.7188L4.10668 28.6879L4.10162 28.6564C4.03705 28.253 4.27964 27.8637 4.67006 27.7441C6.62482 27.1656 8.15381 25.637 8.73282 23.6823C8.85285 23.2921 9.24196 23.0496 9.64526 23.1139L9.6782 23.1191L9.71026 23.1099C9.74753 23.0992 9.78572 23.0913 9.8244 23.0863H33.362C33.3983 23.0911 33.4342 23.0984 33.4696 23.1083L33.5017 23.1172L33.5346 23.1117C33.9402 23.0438 34.3333 23.287 34.4537 23.6802C35.0307 25.6358 36.5595 27.1656 38.5146 27.7441C38.9053 27.8634 39.1479 28.2528 39.083 28.6562L39.0776 28.6897L39.0871 28.7221C39.0978 28.7588 39.1056 28.7964 39.1105 28.8345V36.6681C39.1054 36.7071 39.0978 36.7454 39.0874 36.7828L39.0788 36.8142L39.0839 36.8464C39.1485 37.2498 38.9059 37.6391 38.5155 37.7587C36.5602 38.3374 35.031 39.8668 34.4525 41.8222L34.4519 41.822L34.4495 41.8342L34.4494 41.8347M9.68405 42.3841L34.4494 41.8347M34.4494 41.8347L34.4493 41.8353L34.4494 41.8347ZM5.83315 29.0847L5.73905 29.1224V29.2238V36.279V36.3803L5.83308 36.4181C7.76544 37.1953 9.29723 38.7271 10.0744 40.6595L10.1123 40.7535H10.2136H32.9729H33.0743L33.1121 40.6595C33.8893 38.7271 35.4211 37.1953 37.3535 36.4181L37.4475 36.3803V36.279V29.2238V29.1224L37.3534 29.0847C35.4202 28.3083 33.8878 26.7763 33.1111 24.8434L33.0733 24.7493H32.9719H10.2136H10.1122L10.0744 24.8434C9.29806 26.7763 7.76607 28.3083 5.83315 29.0847Z" fill="#4351D8" stroke="white" stroke-width="0.3"/>
<path d="M27.3324 32.7514C27.3324 35.921 24.763 38.4904 21.5934 38.4905C18.4251 38.4873 15.8574 35.9197 15.8542 32.7513C15.8543 29.5817 18.4237 27.0123 21.5933 27.0123C24.7629 27.0123 27.3324 29.5817 27.3324 32.7514ZM25.6694 32.7514C25.6694 30.5003 23.8444 28.6753 21.5933 28.6753C19.3422 28.6753 17.5172 30.5003 17.5172 32.7514C17.5172 35.0025 19.3422 36.8274 21.5933 36.8274C23.8444 36.8274 25.6694 35.0025 25.6694 32.7514Z" fill="#4351D8" stroke="white" stroke-width="0.3"/>
<path d="M12.2189 32.7513C12.2189 33.5368 11.5821 34.1736 10.7967 34.1736C10.0112 34.1736 9.3744 33.5369 9.3744 32.7513C9.3744 31.9659 10.0112 31.3291 10.7967 31.3291C11.5821 31.3291 12.2189 31.9659 12.2189 32.7513ZM11.3374 32.7513C11.3374 32.4527 11.0953 32.2106 10.7967 32.2106C10.498 32.2106 10.2559 32.4527 10.2559 32.7513C10.2559 33.05 10.498 33.2921 10.7967 33.2921C11.0953 33.2921 11.3374 33.05 11.3374 32.7513Z" fill="#4351D8" stroke="white" stroke-width="0.1"/>
<path d="M33.8122 32.7513C33.8122 33.5368 33.1754 34.1736 32.3899 34.1736C31.6045 34.1736 30.9677 33.5369 30.9677 32.7513C30.9677 31.9659 31.6045 31.3291 32.3899 31.3291C33.1754 31.3291 33.8122 31.9659 33.8122 32.7513ZM32.9307 32.7513C32.9307 32.4527 32.6886 32.2106 32.3899 32.2106C32.0913 32.2106 31.8492 32.4527 31.8492 32.7513C31.8492 33.05 32.0913 33.2921 32.3899 33.2921C32.6886 33.2921 32.9307 33.05 32.9307 32.7513Z" fill="#4351D8" stroke="white" stroke-width="0.1"/>
</svg>
