<svg width="65" height="65" viewBox="0 0 65 65" fill="none" xmlns="http://www.w3.org/2000/svg">
<g clip-path="url(#clip0)">
<path d="M64.0444 25.8295H60.8669C60.7689 25.8295 60.6745 25.8444 60.5856 25.8718C60.2457 25.2475 59.8389 24.6549 59.3671 24.1056C57.4339 21.8546 54.6234 20.5637 51.6561 20.5637H13.086C10.1188 20.5637 7.30823 21.8546 5.375 24.1056C4.91339 24.6431 4.51408 25.2224 4.17873 25.8319C4.16344 25.8311 4.14853 25.8296 4.13299 25.8296H0.95559C0.427722 25.8296 0 26.2574 0 26.7852C0 27.3129 0.427722 27.7408 0.95559 27.7408H3.37018C2.92563 29.1866 2.80408 30.7301 3.03827 32.2629L3.45975 35.0226C3.53951 35.5445 4.02737 35.9029 4.54874 35.823C5.07049 35.7433 5.42864 35.2558 5.34901 34.7342L4.9274 31.9743C4.56364 29.5927 5.25511 27.1785 6.82482 25.3509C8.39441 23.5232 10.6765 22.475 13.0859 22.475H20.4912C22.3854 22.475 24.2107 23.2714 25.499 24.6603C26.4943 25.7333 27.0868 27.0461 27.2677 28.4056C27.2683 28.47 27.2756 28.5342 27.2891 28.5975C27.4652 30.2856 27.0111 32.0311 25.9068 33.4678L21.6999 38.9412C19.3265 42.0293 15.2469 43.2845 11.5476 42.0647C9.5215 41.3964 7.78092 40.0329 6.64632 38.2249C6.36589 37.7778 5.77571 37.6431 5.32901 37.9233C4.88192 38.2039 4.74699 38.7936 5.02755 39.2406C6.39812 41.4248 8.50106 43.0724 10.9492 43.8797C12.0881 44.2553 13.2567 44.4367 14.4139 44.4367C17.7965 44.4367 21.0784 42.886 23.2151 40.106L27.422 34.6325C28.7512 32.9031 29.3443 30.8239 29.2227 28.7853C31.0432 27.3147 33.7495 27.4126 35.4515 29.0797C35.4688 29.0967 35.4872 29.1121 35.5054 29.1275C35.4664 31.0554 36.0647 32.9998 37.3196 34.6326L39.1758 37.0476C39.4972 37.4659 40.0972 37.5446 40.5157 37.2228C40.9342 36.9012 41.0126 36.3012 40.6911 35.8828L38.8352 33.4677C36.7972 30.8161 36.9688 27.112 39.243 24.6601C40.5313 23.2713 42.3567 22.4747 44.251 22.4747H51.6563C54.0655 22.4747 56.3476 23.5231 57.9173 25.3507C59.4869 27.1784 60.1785 29.5925 59.8147 31.974L59.393 34.7338C58.8684 38.1677 56.4932 40.9765 53.1944 42.0644C49.4959 43.2844 45.4159 42.0291 43.0422 38.9411C42.7209 38.5226 42.1209 38.444 41.7022 38.7657C41.2838 39.0873 41.2053 39.6873 41.5269 40.1057C43.6637 42.886 46.945 44.4367 50.3281 44.4365C51.4849 44.4365 52.6542 44.255 53.7928 43.8794C57.7785 42.565 60.6484 39.1712 61.2821 35.0224L61.7039 32.2626C61.938 30.7299 61.8166 29.1864 61.3719 27.7405H64.0444C64.5723 27.7405 65 27.3127 65 26.7849C65 26.2573 64.5723 25.8295 64.0444 25.8295ZM37.8417 23.3604C36.8683 24.4098 36.1975 25.639 35.8312 26.9367C34.7557 26.2172 33.4918 25.8295 32.1715 25.8295C30.9869 25.8295 29.8477 26.1414 28.8491 26.725C28.4712 25.5055 27.8208 24.3528 26.9004 23.3605C26.6029 23.0397 26.2823 22.7446 25.9435 22.4747H38.7986C38.4598 22.7444 38.1393 23.0397 37.8417 23.3604Z" fill="#4351D8"/>
<path d="M13.4092 28.8056L11.3065 30.9084C10.9333 31.2816 10.9333 31.8866 11.3065 32.2597C11.4932 32.4464 11.7378 32.5396 11.9823 32.5396C12.2268 32.5396 12.4714 32.4464 12.6581 32.2597L14.7608 30.157C15.134 29.7838 15.134 29.1788 14.7606 28.8056C14.3876 28.4324 13.7825 28.4325 13.4092 28.8056Z" fill="#4351D8"/>
<path d="M11.8163 38.4631C12.003 38.6498 12.2475 38.7431 12.4921 38.7431C12.7366 38.7431 12.9813 38.6498 13.1679 38.4631L22.2598 29.3713C22.633 28.9981 22.633 28.393 22.2598 28.0199C21.8865 27.6467 21.2815 27.6466 20.9083 28.0199L11.8165 37.1118C11.4433 37.4849 11.4433 38.09 11.8163 38.4631Z" fill="#4351D8"/>
<path d="M54.5464 32.5396C54.7909 32.5396 55.0355 32.4464 55.2222 32.2597C55.5954 31.8865 55.5954 31.2816 55.2222 30.9084L53.1195 28.8057C52.7463 28.4325 52.1412 28.4324 51.7682 28.8057C51.3948 29.1789 51.3948 29.7838 51.768 30.1572L53.8707 32.2598C54.0574 32.4464 54.3018 32.5396 54.5464 32.5396Z" fill="#4351D8"/>
<path d="M44.2691 28.0198C43.8959 28.393 43.8959 28.9981 44.2691 29.3712L53.3609 38.463C53.5476 38.6496 53.7921 38.743 54.0367 38.743C54.2812 38.743 54.5259 38.6497 54.7125 38.463C55.0857 38.0898 55.0857 37.4848 54.7125 37.1117L45.6207 28.0198C45.2474 27.6466 44.6424 27.6466 44.2691 28.0198Z" fill="#4351D8"/>
</g>
<defs>
<clipPath id="clip0">
<rect width="65" height="65" fill="white"/>
</clipPath>
</defs>
</svg>
