<svg width="65" height="65" viewBox="0 0 65 65" fill="none" xmlns="http://www.w3.org/2000/svg">
<g clip-path="url(#clip0)">
<path d="M64.0876 32.303L60.3371 15.4235C59.7341 12.7204 57.3801 10.8334 54.6137 10.8334C51.3817 10.8334 48.75 13.4638 48.75 16.6957V17.6042C48.75 18.3527 49.3557 18.9584 50.1042 18.9584C50.8527 18.9584 51.4584 18.3527 51.4584 17.6042V16.6957C51.4584 14.9567 52.8734 13.5417 54.6137 13.5417C56.1027 13.5417 57.3696 14.5586 57.6923 16.012L61.4428 32.8901C61.9083 34.9875 62.1833 37.1272 62.2653 39.2708H62.1549C61.4641 32.4471 55.7529 27.0833 48.75 27.0833C42.6273 27.0833 37.5003 31.1947 35.8315 36.7822C35.0029 35.9087 33.9108 35.2083 32.5 35.2083C31.0892 35.2083 29.9971 35.9087 29.1685 36.7822C27.4997 31.1947 22.3727 27.0833 16.25 27.0833C9.24727 27.0833 3.53603 32.4471 2.84515 39.2708H2.7347C2.81671 37.1272 3.09182 34.9874 3.55723 32.8901L7.30768 16.0132C7.63039 14.5586 8.89725 13.5416 10.3863 13.5416C12.1266 13.5416 13.5416 14.9566 13.5416 16.6956V17.6041C13.5416 18.3526 14.1473 18.9583 14.8958 18.9583C15.6443 18.9583 16.25 18.3526 16.25 17.6041V16.6956C16.25 13.4636 13.6184 10.8333 10.3863 10.8333C7.61973 10.8333 5.26589 12.7204 4.66286 15.4248L0.912539 32.303C0.306846 35.0351 0 37.8347 0 40.625C0 41.3735 0.605693 41.9792 1.35421 41.9792H2.84527C3.53603 48.8029 9.24727 54.1667 16.2501 54.1667C23.6012 54.1667 29.574 48.2696 29.7577 40.9621C30.0297 40.2049 31.1119 37.9167 32.5001 37.9167C33.8527 37.9167 34.9211 40.0774 35.2422 40.958C35.4237 48.2674 41.3978 54.1667 48.7501 54.1667C55.7529 54.1667 61.4641 48.8029 62.155 41.9792H63.646C64.3946 41.9792 65.0003 41.3735 65.0003 40.625C65 37.8347 64.6932 35.0351 64.0876 32.303ZM16.25 51.4583C10.2752 51.4583 5.41671 46.5984 5.41671 40.625C5.41671 34.6516 10.2753 29.7917 16.25 29.7917C22.2247 29.7917 27.0833 34.6516 27.0833 40.625C27.0833 46.5984 22.2248 51.4583 16.25 51.4583ZM48.75 51.4583C42.7752 51.4583 37.9167 46.5984 37.9167 40.625C37.9167 34.6516 42.7753 29.7917 48.75 29.7917C54.7247 29.7917 59.5833 34.6516 59.5833 40.625C59.5833 46.5984 54.7248 51.4583 48.75 51.4583Z" fill="#4351D8"/>
<path d="M16.25 32.5C11.7696 32.5 8.125 36.1446 8.125 40.625C8.125 41.3735 8.73069 41.9792 9.47921 41.9792C10.2277 41.9792 10.8334 41.3735 10.8334 40.625C10.8334 37.6377 13.2641 35.2083 16.2501 35.2083C16.9986 35.2083 17.6043 34.6026 17.6043 33.8541C17.6042 33.1057 16.9985 32.5 16.25 32.5Z" fill="#4351D8"/>
<path d="M48.75 32.5C44.2696 32.5 40.625 36.1446 40.625 40.625C40.625 41.3735 41.2307 41.9792 41.9792 41.9792C42.7277 41.9792 43.3334 41.3735 43.3334 40.625C43.3334 37.6377 45.7641 35.2083 48.7501 35.2083C49.4986 35.2083 50.1043 34.6026 50.1043 33.8541C50.1042 33.1057 49.4985 32.5 48.75 32.5Z" fill="#4351D8"/>
</g>
<defs>
<clipPath id="clip0">
<rect width="65" height="65" fill="white"/>
</clipPath>
</defs>
</svg>
