<svg width="29" height="28" viewBox="0 0 29 28" fill="none" xmlns="http://www.w3.org/2000/svg">
<path d="M14.5197 9.33135C11.949 9.33135 9.85104 11.4293 9.85104 14C9.85104 16.5707 11.949 18.6687 14.5197 18.6687C17.0904 18.6687 19.1883 16.5707 19.1883 14C19.1883 11.4293 17.0904 9.33135 14.5197 9.33135ZM28.5222 14C28.5222 12.0667 28.5397 10.1509 28.4311 8.2211C28.3225 5.97958 27.8112 3.99024 26.1721 2.35113C24.5295 0.708519 22.5436 0.200677 20.3021 0.0921032C18.3688 -0.0164701 16.453 0.00104176 14.5232 0.00104176C12.5899 0.00104176 10.6741 -0.0164701 8.74429 0.0921032C6.50278 0.200677 4.51343 0.712022 2.87432 2.35113C1.23171 3.99374 0.72387 5.97958 0.615297 8.2211C0.506723 10.1544 0.524235 12.0702 0.524235 14C0.524235 15.9298 0.506723 17.8491 0.615297 19.7789C0.72387 22.0204 1.23522 24.0098 2.87432 25.6489C4.51693 27.2915 6.50278 27.7993 8.74429 27.9079C10.6776 28.0165 12.5934 27.999 14.5232 27.999C16.4565 27.999 18.3723 28.0165 20.3021 27.9079C22.5436 27.7993 24.533 27.288 26.1721 25.6489C27.8147 24.0063 28.3225 22.0204 28.4311 19.7789C28.5432 17.8491 28.5222 15.9333 28.5222 14ZM14.5197 21.1834C10.5445 21.1834 7.33634 17.9752 7.33634 14C7.33634 10.0248 10.5445 6.81665 14.5197 6.81665C18.4949 6.81665 21.703 10.0248 21.703 14C21.703 17.9752 18.4949 21.1834 14.5197 21.1834ZM21.9972 8.20008C21.0691 8.20008 20.3196 7.45057 20.3196 6.52245C20.3196 5.59432 21.0691 4.84481 21.9972 4.84481C22.9254 4.84481 23.6749 5.59432 23.6749 6.52245C23.6752 6.74284 23.632 6.96111 23.5477 7.16478C23.4635 7.36844 23.34 7.55349 23.1841 7.70933C23.0283 7.86517 22.8432 7.98873 22.6396 8.07294C22.4359 8.15715 22.2176 8.20036 21.9972 8.20008Z" fill="#3E425B"/>
</svg>
