<svg width="76" height="13" viewBox="0 0 76 13" fill="none" xmlns="http://www.w3.org/2000/svg">
<path fill-rule="evenodd" clip-rule="evenodd" d="M4.72889 0.0580357C4.72889 0.0903036 4.57875 0.116071 4.39111 0.116071C4.20348 0.116071 4.05333 0.141839 4.05333 0.174107C4.05333 0.206027 3.97733 0.232143 3.88444 0.232143C3.79156 0.232143 3.71556 0.258259 3.71556 0.290179C3.71556 0.322098 3.63956 0.348214 3.54667 0.348214C3.45378 0.348214 3.37778 0.37433 3.37778 0.40625C3.37778 0.43817 3.32711 0.464286 3.26519 0.464286C3.20326 0.464286 3.15259 0.490402 3.15259 0.522321C3.15259 0.554241 3.07659 0.580357 2.9837 0.580357C2.89081 0.580357 2.81481 0.606473 2.81481 0.638393C2.81481 0.670312 2.77434 0.696429 2.7248 0.696429C2.67531 0.696429 2.56379 0.774777 2.47704 0.870536C2.39028 0.966295 2.29115 1.04464 2.25675 1.04464C2.16893 1.04464 1.01333 2.24569 1.01333 2.33698C1.01333 2.37819 0.962667 2.44951 0.900741 2.49554C0.838815 2.54156 0.788148 2.62565 0.788148 2.68247C0.788148 2.73923 0.762815 2.78571 0.731852 2.78571C0.700889 2.78571 0.675556 2.83795 0.675556 2.90179C0.675556 2.96562 0.650222 3.01786 0.619259 3.01786C0.588296 3.01786 0.562963 3.07009 0.562963 3.13393C0.562963 3.19777 0.53763 3.25 0.506667 3.25C0.475704 3.25 0.45037 3.30223 0.45037 3.36607C0.45037 3.42991 0.425037 3.48214 0.394074 3.48214C0.363111 3.48214 0.337778 3.56049 0.337778 3.65625C0.337778 3.75201 0.312444 3.83036 0.281481 3.83036C0.250519 3.83036 0.225185 3.93482 0.225185 4.0625C0.225185 4.19018 0.199852 4.29464 0.168889 4.29464C0.136744 4.29464 0.112593 4.46875 0.112593 4.70089C0.112593 4.93304 0.0884415 5.10714 0.0562963 5.10714C0.0225185 5.10714 0 5.33929 0 5.6875C0 6.03571 0.0225185 6.26786 0.0562963 6.26786C0.0884415 6.26786 0.112593 6.44196 0.112593 6.67411C0.112593 6.90625 0.136744 7.08036 0.168889 7.08036C0.199852 7.08036 0.225185 7.18482 0.225185 7.3125C0.225185 7.44018 0.250519 7.54464 0.281481 7.54464C0.312444 7.54464 0.337778 7.62299 0.337778 7.71875C0.337778 7.81451 0.363111 7.89286 0.394074 7.89286C0.425037 7.89286 0.45037 7.97121 0.45037 8.06696C0.45037 8.16272 0.475704 8.24107 0.506667 8.24107C0.53763 8.24107 0.562963 8.2933 0.562963 8.35714C0.562963 8.42098 0.588296 8.47321 0.619259 8.47321C0.650222 8.47321 0.675556 8.5197 0.675556 8.57646C0.675556 8.63328 0.726222 8.71737 0.788148 8.76339C0.850074 8.80941 0.900741 8.88776 0.900741 8.9375C0.900741 8.98724 0.951407 9.06558 1.01333 9.11161C1.07526 9.15763 1.12593 9.22919 1.12593 9.27057C1.12593 9.3625 1.83059 10.0982 1.91858 10.0982C1.9532 10.0982 2.05251 10.1766 2.13926 10.2723C2.22601 10.3681 2.33196 10.4464 2.37458 10.4464C2.41725 10.4464 2.48869 10.4987 2.53333 10.5625C2.57798 10.6263 2.65955 10.6786 2.71466 10.6786C2.76972 10.6786 2.81481 10.7047 2.81481 10.7366C2.81481 10.7685 2.89081 10.7946 2.9837 10.7946C3.07659 10.7946 3.15259 10.8208 3.15259 10.8527C3.15259 10.8846 3.20326 10.9107 3.26519 10.9107C3.32711 10.9107 3.37778 10.9368 3.37778 10.9688C3.37778 11.0007 3.45378 11.0268 3.54667 11.0268C3.63956 11.0268 3.71556 11.0529 3.71556 11.0848C3.71556 11.1167 3.84222 11.1429 3.99704 11.1429C4.15185 11.1429 4.27852 11.169 4.27852 11.2009C4.27852 11.2376 4.69134 11.2589 5.40444 11.2589C6.11755 11.2589 6.53037 11.2376 6.53037 11.2009C6.53037 11.169 6.65704 11.1429 6.81185 11.1429C6.96667 11.1429 7.09333 11.1167 7.09333 11.0848C7.09333 11.0529 7.16933 11.0268 7.26222 11.0268C7.35511 11.0268 7.43111 11.0007 7.43111 10.9688C7.43111 10.9368 7.50711 10.9107 7.6 10.9107C7.69289 10.9107 7.76889 10.8846 7.76889 10.8527C7.76889 10.8208 7.81956 10.7946 7.88148 10.7946C7.94341 10.7946 7.99407 10.7685 7.99407 10.7366C7.99407 10.7047 8.04474 10.6786 8.10667 10.6786C8.16859 10.6786 8.21926 10.6525 8.21926 10.6205C8.21926 10.5886 8.26435 10.5625 8.31941 10.5625C8.37452 10.5625 8.4561 10.5103 8.50074 10.4464C8.54538 10.3826 8.61626 10.3304 8.65831 10.3304C8.70037 10.3304 8.8321 10.2259 8.95111 10.0982C9.07012 9.97054 9.19594 9.86607 9.23074 9.86607C9.31343 9.86607 9.57037 9.60032 9.57037 9.51478C9.57037 9.47822 9.64857 9.37306 9.7441 9.28107L9.91783 9.11375L9.63151 8.8263C9.47405 8.66816 9.34519 8.49794 9.34519 8.44797C9.34519 8.39585 9.29722 8.35714 9.23259 8.35714C9.1692 8.35714 9.12 8.31843 9.12 8.26858C9.12 8.16818 8.64863 7.66071 8.5554 7.66071C8.52191 7.66071 8.34531 7.81741 8.16296 8.00893C7.98062 8.20045 7.7976 8.35714 7.75628 8.35714C7.71496 8.35714 7.64464 8.40938 7.6 8.47321C7.55536 8.53705 7.47378 8.58929 7.41867 8.58929C7.36361 8.58929 7.31852 8.6154 7.31852 8.64732C7.31852 8.67924 7.24252 8.70536 7.14963 8.70536C7.05674 8.70536 6.98074 8.73147 6.98074 8.76339C6.98074 8.79531 6.90474 8.82143 6.81185 8.82143C6.71896 8.82143 6.64296 8.84754 6.64296 8.87946C6.64296 8.91138 6.54163 8.9375 6.41778 8.9375C6.29393 8.9375 6.19259 8.96362 6.19259 8.99554C6.19259 9.02937 6.00496 9.05357 5.74222 9.05357C5.47949 9.05357 5.29185 9.02937 5.29185 8.99554C5.29185 8.96327 5.14171 8.9375 4.95407 8.9375C4.76644 8.9375 4.6163 8.91173 4.6163 8.87946C4.6163 8.84754 4.5403 8.82143 4.44741 8.82143C4.35452 8.82143 4.27852 8.79531 4.27852 8.76339C4.27852 8.73147 4.22785 8.70536 4.16593 8.70536C4.104 8.70536 4.05333 8.67924 4.05333 8.64732C4.05333 8.6154 4.00267 8.58929 3.94074 8.58929C3.87881 8.58929 3.82815 8.56317 3.82815 8.53125C3.82815 8.49933 3.7897 8.47321 3.74263 8.47321C3.63134 8.47321 2.92741 7.74754 2.92741 7.6328C2.92741 7.58428 2.90207 7.54464 2.87111 7.54464C2.84015 7.54464 2.81481 7.49241 2.81481 7.42857C2.81481 7.36473 2.78948 7.3125 2.75852 7.3125C2.72756 7.3125 2.70222 7.26027 2.70222 7.19643C2.70222 7.13259 2.67689 7.08036 2.64593 7.08036C2.61496 7.08036 2.58963 7.00201 2.58963 6.90625C2.58963 6.81049 2.5643 6.73214 2.53333 6.73214C2.50237 6.73214 2.47704 6.62768 2.47704 6.5C2.47704 6.37232 2.4517 6.26786 2.42074 6.26786C2.38696 6.26786 2.36444 6.03571 2.36444 5.6875C2.36444 5.33929 2.38696 5.10714 2.42074 5.10714C2.4517 5.10714 2.47704 4.97656 2.47704 4.81696C2.47704 4.65737 2.50237 4.52679 2.53333 4.52679C2.5643 4.52679 2.58963 4.44844 2.58963 4.35268C2.58963 4.25692 2.61496 4.17857 2.64593 4.17857C2.67689 4.17857 2.70222 4.12634 2.70222 4.0625C2.70222 3.99866 2.72756 3.94643 2.75852 3.94643C2.78948 3.94643 2.81481 3.89994 2.81481 3.84318C2.81481 3.78637 2.86548 3.70227 2.92741 3.65625C2.98933 3.61023 3.04 3.53797 3.04 3.49572C3.04 3.40147 3.29204 3.13393 3.38076 3.13393C3.41623 3.13393 3.51621 3.05558 3.60296 2.95982C3.68972 2.86406 3.80124 2.78571 3.85072 2.78571C3.90026 2.78571 3.94074 2.7596 3.94074 2.72768C3.94074 2.69576 3.99141 2.66964 4.05333 2.66964C4.11526 2.66964 4.16593 2.64353 4.16593 2.61161C4.16593 2.57969 4.21659 2.55357 4.27852 2.55357C4.34044 2.55357 4.39111 2.52746 4.39111 2.49554C4.39111 2.46362 4.49244 2.4375 4.6163 2.4375C4.74015 2.4375 4.84148 2.41138 4.84148 2.37946C4.84148 2.34377 5.12296 2.32143 5.57333 2.32143C6.0237 2.32143 6.30519 2.34377 6.30519 2.37946C6.30519 2.41138 6.40652 2.4375 6.53037 2.4375C6.65422 2.4375 6.75556 2.46362 6.75556 2.49554C6.75556 2.52746 6.80622 2.55357 6.86815 2.55357C6.93007 2.55357 6.98074 2.57969 6.98074 2.61161C6.98074 2.64353 7.05117 2.66964 7.13719 2.66964C7.22906 2.66964 7.32713 2.71758 7.37481 2.78571C7.41946 2.84955 7.49 2.90179 7.53166 2.90179C7.57326 2.90179 7.73663 3.03863 7.89471 3.20595C8.06337 3.38447 8.19167 3.48034 8.20535 3.43809C8.21819 3.39846 8.26559 3.36607 8.3108 3.36607C8.356 3.36607 8.59346 3.15714 8.83852 2.90179C9.08358 2.64643 9.31163 2.4375 9.34535 2.4375C9.43757 2.4375 9.68296 2.16525 9.68296 2.06288C9.68296 2.01355 9.65763 1.97321 9.62667 1.97321C9.5957 1.97321 9.57037 1.93358 9.57037 1.88506C9.57037 1.77787 8.86999 1.04464 8.76753 1.04464C8.72739 1.04464 8.65798 0.992411 8.61333 0.928571C8.56869 0.864732 8.48712 0.8125 8.432 0.8125C8.37694 0.8125 8.33185 0.786384 8.33185 0.754464C8.33185 0.722545 8.28119 0.696429 8.21926 0.696429C8.15733 0.696429 8.10667 0.670312 8.10667 0.638393C8.10667 0.606473 8.056 0.580357 7.99407 0.580357C7.93215 0.580357 7.88148 0.554241 7.88148 0.522321C7.88148 0.490402 7.80548 0.464286 7.71259 0.464286C7.6197 0.464286 7.5437 0.43817 7.5437 0.40625C7.5437 0.37433 7.49304 0.348214 7.43111 0.348214C7.36918 0.348214 7.31852 0.322098 7.31852 0.290179C7.31852 0.258259 7.21719 0.232143 7.09333 0.232143C6.96948 0.232143 6.86815 0.206027 6.86815 0.174107C6.86815 0.141839 6.71801 0.116071 6.53037 0.116071C6.34273 0.116071 6.19259 0.0903036 6.19259 0.0580357C6.19259 0.0223437 5.91111 0 5.46074 0C5.01037 0 4.72889 0.0223437 4.72889 0.0580357ZM25.6711 0.0580357C25.6711 0.0903036 25.521 0.116071 25.3333 0.116071C25.1457 0.116071 24.9956 0.141839 24.9956 0.174107C24.9956 0.206027 24.9196 0.232143 24.8267 0.232143C24.7338 0.232143 24.6578 0.258259 24.6578 0.290179C24.6578 0.322098 24.5818 0.348214 24.4889 0.348214C24.396 0.348214 24.32 0.37433 24.32 0.40625C24.32 0.43817 24.2693 0.464286 24.2074 0.464286C24.1455 0.464286 24.0948 0.490402 24.0948 0.522321C24.0948 0.554241 24.0441 0.580357 23.9822 0.580357C23.9203 0.580357 23.8696 0.606473 23.8696 0.638393C23.8696 0.670312 23.819 0.696429 23.757 0.696429C23.6951 0.696429 23.6444 0.722545 23.6444 0.754464C23.6444 0.786384 23.5994 0.8125 23.5443 0.8125C23.4892 0.8125 23.4076 0.864732 23.363 0.928571C23.3183 0.992411 23.2491 1.04464 23.2092 1.04464C23.1143 1.04464 21.9556 2.23919 21.9556 2.33698C21.9556 2.37819 21.9049 2.44951 21.843 2.49554C21.781 2.54156 21.7304 2.61991 21.7304 2.66964C21.7304 2.71938 21.6797 2.79773 21.6178 2.84375C21.5559 2.88977 21.5052 2.97387 21.5052 3.03068C21.5052 3.08744 21.4799 3.13393 21.4489 3.13393C21.4179 3.13393 21.3926 3.21228 21.3926 3.30804C21.3926 3.40379 21.3673 3.48214 21.3363 3.48214C21.3053 3.48214 21.28 3.53437 21.28 3.59821C21.28 3.66205 21.2547 3.71429 21.2237 3.71429C21.1927 3.71429 21.1674 3.79263 21.1674 3.88839C21.1674 3.98415 21.1421 4.0625 21.1111 4.0625C21.0801 4.0625 21.0548 4.19308 21.0548 4.35268C21.0548 4.51228 21.0295 4.64286 20.9985 4.64286C20.9631 4.64286 20.9422 5.02978 20.9422 5.6875C20.9422 6.34522 20.9631 6.73214 20.9985 6.73214C21.0295 6.73214 21.0548 6.83661 21.0548 6.96429C21.0548 7.09196 21.0801 7.19643 21.1111 7.19643C21.1421 7.19643 21.1674 7.30089 21.1674 7.42857C21.1674 7.55625 21.1927 7.66071 21.2237 7.66071C21.2547 7.66071 21.28 7.71295 21.28 7.77679C21.28 7.84062 21.3053 7.89286 21.3363 7.89286C21.3673 7.89286 21.3926 7.94509 21.3926 8.00893C21.3926 8.07277 21.4179 8.125 21.4489 8.125C21.4799 8.125 21.5052 8.17723 21.5052 8.24107C21.5052 8.30491 21.5305 8.35714 21.5615 8.35714C21.5924 8.35714 21.6178 8.40938 21.6178 8.47321C21.6178 8.53705 21.6431 8.58929 21.6741 8.58929C21.705 8.58929 21.7304 8.63049 21.7304 8.68087C21.7304 8.7313 21.8317 8.87285 21.9556 8.99554C22.0794 9.11822 22.1807 9.24729 22.1807 9.28241C22.1807 9.36563 22.7788 9.98214 22.8595 9.98214C22.8936 9.98214 23.0188 10.0866 23.1378 10.2143C23.2568 10.342 23.3941 10.4464 23.443 10.4464C23.4919 10.4464 23.5319 10.4725 23.5319 10.5045C23.5319 10.5364 23.5825 10.5625 23.6444 10.5625C23.7064 10.5625 23.757 10.5886 23.757 10.6205C23.757 10.6525 23.8077 10.6786 23.8696 10.6786C23.9316 10.6786 23.9822 10.7047 23.9822 10.7366C23.9822 10.7685 24.0329 10.7946 24.0948 10.7946C24.1567 10.7946 24.2074 10.8208 24.2074 10.8527C24.2074 10.8846 24.2581 10.9107 24.32 10.9107C24.3819 10.9107 24.4326 10.9368 24.4326 10.9688C24.4326 11.0007 24.5086 11.0268 24.6015 11.0268C24.6944 11.0268 24.7704 11.0529 24.7704 11.0848C24.7704 11.1167 24.897 11.1429 25.0519 11.1429C25.2067 11.1429 25.3333 11.169 25.3333 11.2009C25.3333 11.2376 25.7274 11.2589 26.403 11.2589C27.0785 11.2589 27.4726 11.2376 27.4726 11.2009C27.4726 11.169 27.5739 11.1429 27.6978 11.1429C27.8216 11.1429 27.923 11.1167 27.923 11.0848C27.923 11.0529 27.999 11.0268 28.0919 11.0268C28.1847 11.0268 28.2607 11.0007 28.2607 10.9688C28.2607 10.9368 28.3114 10.9107 28.3733 10.9107C28.4353 10.9107 28.4859 10.8846 28.4859 10.8527C28.4859 10.8208 28.5564 10.7946 28.6424 10.7946C28.7342 10.7946 28.8323 10.7467 28.88 10.6786C28.9246 10.6147 29.0062 10.5625 29.0613 10.5625C29.1164 10.5625 29.1615 10.5364 29.1615 10.5045C29.1615 10.4725 29.2066 10.4464 29.2616 10.4464C29.3167 10.4464 29.3983 10.3942 29.443 10.3304C29.4876 10.2665 29.5569 10.2143 29.5969 10.2143C29.6917 10.2143 30.7378 9.13592 30.7378 9.03813C30.7378 8.99687 30.7884 8.92549 30.8504 8.87946C30.9123 8.83344 30.963 8.74935 30.963 8.69253C30.963 8.63577 30.9883 8.58929 31.0193 8.58929C31.0502 8.58929 31.0756 8.5428 31.0756 8.48604C31.0756 8.42922 31.1262 8.34513 31.1881 8.29911C31.2542 8.24995 31.3007 8.14885 31.3007 8.05414C31.3007 7.96546 31.3261 7.89286 31.357 7.89286C31.388 7.89286 31.4133 7.84062 31.4133 7.77679C31.4133 7.71295 31.4387 7.66071 31.4696 7.66071C31.5006 7.66071 31.5259 7.58237 31.5259 7.48661C31.5259 7.39085 31.5513 7.3125 31.5822 7.3125C31.6132 7.3125 31.6385 7.18192 31.6385 7.02232C31.6385 6.86272 31.6639 6.73214 31.6948 6.73214C31.7304 6.73214 31.7511 6.32589 31.7511 5.62946C31.7511 4.93304 31.7304 4.52679 31.6948 4.52679C31.6639 4.52679 31.6385 4.42232 31.6385 4.29464C31.6385 4.16696 31.6132 4.0625 31.5822 4.0625C31.5513 4.0625 31.5259 3.98415 31.5259 3.88839C31.5259 3.79263 31.5006 3.71429 31.4696 3.71429C31.4387 3.71429 31.4133 3.63594 31.4133 3.54018C31.4133 3.44442 31.388 3.36607 31.357 3.36607C31.3261 3.36607 31.3007 3.31384 31.3007 3.25C31.3007 3.18616 31.2754 3.13393 31.2444 3.13393C31.2135 3.13393 31.1881 3.0817 31.1881 3.01786C31.1881 2.95402 31.1628 2.90179 31.1319 2.90179C31.1009 2.90179 31.0756 2.8553 31.0756 2.79854C31.0756 2.74172 31.0249 2.65763 30.963 2.61161C30.901 2.56558 30.8504 2.49194 30.8504 2.44795C30.8504 2.40401 30.7744 2.29479 30.6815 2.20536C30.5886 2.11592 30.5126 2.01343 30.5126 1.97768C30.5126 1.89295 29.9149 1.27679 29.8327 1.27679C29.798 1.27679 29.6986 1.19844 29.6119 1.10268C29.5251 1.00692 29.4191 0.928571 29.3765 0.928571C29.3339 0.928571 29.2624 0.876339 29.2178 0.8125C29.1731 0.748661 29.0916 0.696429 29.0364 0.696429C28.9814 0.696429 28.9363 0.670312 28.9363 0.638393C28.9363 0.606473 28.8856 0.580357 28.8237 0.580357C28.7618 0.580357 28.7111 0.554241 28.7111 0.522321C28.7111 0.490402 28.6351 0.464286 28.5422 0.464286C28.4493 0.464286 28.3733 0.43817 28.3733 0.40625C28.3733 0.37433 28.3227 0.348214 28.2607 0.348214C28.1988 0.348214 28.1481 0.322098 28.1481 0.290179C28.1481 0.258259 28.0468 0.232143 27.923 0.232143C27.7991 0.232143 27.6978 0.206027 27.6978 0.174107C27.6978 0.141839 27.5476 0.116071 27.36 0.116071C27.1724 0.116071 27.0222 0.0903036 27.0222 0.0580357C27.0222 0.0225759 26.7595 0 26.3467 0C25.9338 0 25.6711 0.0225759 25.6711 0.0580357ZM47.6267 0.0580357C47.6267 0.0903036 47.4765 0.116071 47.2889 0.116071C47.1013 0.116071 46.9511 0.141839 46.9511 0.174107C46.9511 0.206027 46.8751 0.232143 46.7822 0.232143C46.6893 0.232143 46.6133 0.258259 46.6133 0.290179C46.6133 0.322098 46.5373 0.348214 46.4444 0.348214C46.3516 0.348214 46.2756 0.37433 46.2756 0.40625C46.2756 0.43817 46.2249 0.464286 46.163 0.464286C46.101 0.464286 46.0504 0.490402 46.0504 0.522321C46.0504 0.554241 45.9997 0.580357 45.9378 0.580357C45.8759 0.580357 45.8252 0.606473 45.8252 0.638393C45.8252 0.670312 45.7745 0.696429 45.7126 0.696429C45.6507 0.696429 45.6 0.722545 45.6 0.754464C45.6 0.786384 45.5549 0.8125 45.4999 0.8125C45.4447 0.8125 45.3632 0.864732 45.3185 0.928571C45.2739 0.992411 45.2046 1.04464 45.1646 1.04464C45.076 1.04464 44.0237 2.11975 44.0237 2.21035C44.0237 2.24581 43.9477 2.34807 43.8548 2.4375C43.7619 2.52693 43.6859 2.6419 43.6859 2.69292C43.6859 2.74399 43.6606 2.78571 43.6296 2.78571C43.5987 2.78571 43.5733 2.83795 43.5733 2.90179C43.5733 2.96562 43.548 3.01786 43.517 3.01786C43.4861 3.01786 43.4607 3.07009 43.4607 3.13393C43.4607 3.19777 43.4354 3.25 43.4044 3.25C43.3735 3.25 43.3481 3.30223 43.3481 3.36607C43.3481 3.42991 43.3228 3.48214 43.2919 3.48214C43.2609 3.48214 43.2356 3.56049 43.2356 3.65625C43.2356 3.75201 43.2102 3.83036 43.1793 3.83036C43.1483 3.83036 43.123 3.90871 43.123 4.00446C43.123 4.10022 43.0976 4.17857 43.0667 4.17857C43.0357 4.17857 43.0104 4.30915 43.0104 4.46875C43.0104 4.62835 42.985 4.75893 42.9541 4.75893C42.9191 4.75893 42.8978 5.08782 42.8978 5.62946C42.8978 6.17111 42.9191 6.5 42.9541 6.5C42.9854 6.5 43.0104 6.65478 43.0104 6.84821C43.0104 7.04165 43.0354 7.19643 43.0667 7.19643C43.0976 7.19643 43.123 7.27478 43.123 7.37054C43.123 7.46629 43.1483 7.54464 43.1793 7.54464C43.2102 7.54464 43.2356 7.62299 43.2356 7.71875C43.2356 7.81451 43.2609 7.89286 43.2919 7.89286C43.3228 7.89286 43.3481 7.94509 43.3481 8.00893C43.3481 8.07277 43.3735 8.125 43.4044 8.125C43.4354 8.125 43.4607 8.17723 43.4607 8.24107C43.4607 8.30491 43.4861 8.35714 43.517 8.35714C43.548 8.35714 43.5733 8.40363 43.5733 8.46039C43.5733 8.5172 43.624 8.6013 43.6859 8.64732C43.7479 8.69334 43.7985 8.76699 43.7985 8.81098C43.7985 8.85492 43.8745 8.96414 43.9674 9.05357C44.0603 9.143 44.1363 9.25797 44.1363 9.30899C44.1363 9.36308 44.1832 9.40179 44.2489 9.40179C44.3125 9.40179 44.3615 9.44049 44.3615 9.49075C44.3615 9.59348 44.7206 9.98214 44.8155 9.98214C44.8506 9.98214 44.9503 10.0605 45.037 10.1562C45.1238 10.252 45.2297 10.3304 45.2724 10.3304C45.315 10.3304 45.3865 10.3826 45.4311 10.4464C45.4758 10.5103 45.5573 10.5625 45.6124 10.5625C45.6675 10.5625 45.7126 10.5886 45.7126 10.6205C45.7126 10.6525 45.7633 10.6786 45.8252 10.6786C45.8871 10.6786 45.9378 10.7047 45.9378 10.7366C45.9378 10.7685 45.9884 10.7946 46.0504 10.7946C46.1123 10.7946 46.163 10.8208 46.163 10.8527C46.163 10.8846 46.2136 10.9107 46.2756 10.9107C46.3375 10.9107 46.3881 10.9368 46.3881 10.9688C46.3881 11.0007 46.4641 11.0268 46.557 11.0268C46.6499 11.0268 46.7259 11.0529 46.7259 11.0848C46.7259 11.1167 46.8526 11.1429 47.0074 11.1429C47.1622 11.1429 47.2889 11.169 47.2889 11.2009C47.2889 11.2376 47.683 11.2589 48.3585 11.2589C49.0341 11.2589 49.4281 11.2376 49.4281 11.2009C49.4281 11.169 49.5295 11.1429 49.6533 11.1429C49.7772 11.1429 49.8785 11.1167 49.8785 11.0848C49.8785 11.0529 49.9545 11.0268 50.0474 11.0268C50.1403 11.0268 50.2163 11.0007 50.2163 10.9688C50.2163 10.9368 50.267 10.9107 50.3289 10.9107C50.3908 10.9107 50.4415 10.8846 50.4415 10.8527C50.4415 10.8208 50.5175 10.7946 50.6104 10.7946C50.7033 10.7946 50.7793 10.7685 50.7793 10.7366C50.7793 10.7047 50.8299 10.6786 50.8919 10.6786C50.9538 10.6786 51.0044 10.6525 51.0044 10.6205C51.0044 10.5886 51.0449 10.5625 51.0945 10.5625C51.1439 10.5625 51.2555 10.4842 51.3422 10.3884C51.429 10.2926 51.5281 10.2143 51.5625 10.2143C51.6503 10.2143 52.8059 9.01324 52.8059 8.92195C52.8059 8.88074 52.8566 8.80941 52.9185 8.76339C52.9804 8.71737 53.0311 8.63328 53.0311 8.57646C53.0311 8.5197 53.0564 8.47321 53.0874 8.47321C53.1184 8.47321 53.1437 8.42098 53.1437 8.35714C53.1437 8.2933 53.169 8.24107 53.2 8.24107C53.231 8.24107 53.2563 8.18884 53.2563 8.125C53.2563 8.06116 53.2816 8.00893 53.3126 8.00893C53.3436 8.00893 53.3689 7.93058 53.3689 7.83482C53.3689 7.73906 53.3942 7.66071 53.4252 7.66071C53.4562 7.66071 53.4815 7.58237 53.4815 7.48661C53.4815 7.39085 53.5068 7.3125 53.5378 7.3125C53.5687 7.3125 53.5941 7.20804 53.5941 7.08036C53.5941 6.95268 53.6194 6.84821 53.6504 6.84821C53.686 6.84821 53.7067 6.42264 53.7067 5.6875C53.7067 4.95236 53.686 4.52679 53.6504 4.52679C53.6194 4.52679 53.5941 4.39621 53.5941 4.23661C53.5941 4.07701 53.5687 3.94643 53.5378 3.94643C53.5068 3.94643 53.4815 3.86808 53.4815 3.77232C53.4815 3.67656 53.4562 3.59821 53.4252 3.59821C53.3942 3.59821 53.3689 3.54598 53.3689 3.48214C53.3689 3.4183 53.3436 3.36607 53.3126 3.36607C53.2816 3.36607 53.2563 3.31384 53.2563 3.25C53.2563 3.18616 53.231 3.13393 53.2 3.13393C53.169 3.13393 53.1437 3.0817 53.1437 3.01786C53.1437 2.95402 53.1184 2.90179 53.0874 2.90179C53.0564 2.90179 53.0311 2.84955 53.0311 2.78571C53.0311 2.72187 53.0058 2.66964 52.9748 2.66964C52.9439 2.66964 52.9185 2.62792 52.9185 2.57684C52.9185 2.52583 52.8425 2.41086 52.7496 2.32143C52.6567 2.232 52.5807 2.12968 52.5807 2.0941C52.5807 2.00339 51.7541 1.16071 51.6652 1.16071C51.6251 1.16071 51.5558 1.10848 51.5111 1.04464C51.4665 0.980804 51.3905 0.928571 51.3422 0.928571C51.294 0.928571 51.218 0.876339 51.1733 0.8125C51.1287 0.748661 51.0471 0.696429 50.992 0.696429C50.9369 0.696429 50.8919 0.670312 50.8919 0.638393C50.8919 0.606473 50.8412 0.580357 50.7793 0.580357C50.7173 0.580357 50.6667 0.554241 50.6667 0.522321C50.6667 0.490402 50.616 0.464286 50.5541 0.464286C50.4921 0.464286 50.4415 0.43817 50.4415 0.40625C50.4415 0.37433 50.3655 0.348214 50.2726 0.348214C50.1797 0.348214 50.1037 0.322098 50.1037 0.290179C50.1037 0.258259 50.0024 0.232143 49.8785 0.232143C49.7547 0.232143 49.6533 0.206027 49.6533 0.174107C49.6533 0.142187 49.5267 0.116071 49.3719 0.116071C49.217 0.116071 49.0904 0.0899554 49.0904 0.0580357C49.0904 0.0223437 48.8089 0 48.3585 0C47.9081 0 47.6267 0.0223437 47.6267 0.0580357ZM11.1467 5.6875V11.1429H13.7926C15.519 11.1429 16.4385 11.1227 16.4385 11.0848C16.4385 11.0517 16.6074 11.0268 16.8326 11.0268C17.0578 11.0268 17.2267 11.0019 17.2267 10.9688C17.2267 10.9368 17.328 10.9107 17.4519 10.9107C17.5757 10.9107 17.677 10.8846 17.677 10.8527C17.677 10.8208 17.753 10.7946 17.8459 10.7946C17.9388 10.7946 18.0148 10.7685 18.0148 10.7366C18.0148 10.7047 18.0655 10.6786 18.1274 10.6786C18.1893 10.6786 18.24 10.6525 18.24 10.6205C18.24 10.5886 18.2851 10.5625 18.3402 10.5625C18.3953 10.5625 18.4768 10.5103 18.5215 10.4464C18.5661 10.3826 18.6355 10.3304 18.6757 10.3304C18.7781 10.3304 19.4785 9.59713 19.4785 9.48994C19.4785 9.44142 19.5039 9.40179 19.5348 9.40179C19.5658 9.40179 19.5911 9.32344 19.5911 9.22768C19.5911 9.13192 19.6164 9.05357 19.6474 9.05357C19.6784 9.05357 19.7037 8.97522 19.7037 8.87946C19.7037 8.7837 19.729 8.70536 19.76 8.70536C19.7948 8.70536 19.8163 8.39585 19.8163 7.89286C19.8163 7.38986 19.7948 7.08036 19.76 7.08036C19.729 7.08036 19.7037 6.97589 19.7037 6.84821C19.7037 6.72054 19.6784 6.61607 19.6474 6.61607C19.6164 6.61607 19.5911 6.56384 19.5911 6.5C19.5911 6.43616 19.5658 6.38393 19.5348 6.38393C19.5039 6.38393 19.4785 6.34429 19.4785 6.29577C19.4785 6.19583 18.7815 5.45536 18.6874 5.45536C18.6537 5.45536 18.5881 5.41624 18.5417 5.36842C18.4668 5.29123 18.4893 5.2495 18.7428 4.99496C18.8997 4.83739 19.0281 4.66758 19.0281 4.61761C19.0281 4.56764 19.0535 4.52679 19.0844 4.52679C19.1154 4.52679 19.1407 4.47455 19.1407 4.41071C19.1407 4.34687 19.1661 4.29464 19.197 4.29464C19.228 4.29464 19.2533 4.24241 19.2533 4.17857C19.2533 4.11473 19.2787 4.0625 19.3096 4.0625C19.3406 4.0625 19.3659 3.98415 19.3659 3.88839C19.3659 3.79263 19.3913 3.71429 19.4222 3.71429C19.4566 3.71429 19.4785 3.44343 19.4785 3.01786C19.4785 2.59228 19.4566 2.32143 19.4222 2.32143C19.3913 2.32143 19.3659 2.21696 19.3659 2.08929C19.3659 1.96161 19.3406 1.85714 19.3096 1.85714C19.2787 1.85714 19.2533 1.80491 19.2533 1.74107C19.2533 1.67723 19.228 1.625 19.197 1.625C19.1661 1.625 19.1407 1.58513 19.1407 1.53644C19.1407 1.42843 18.6661 0.928571 18.5635 0.928571C18.5231 0.928571 18.4535 0.876339 18.4089 0.8125C18.3642 0.748661 18.2827 0.696429 18.2276 0.696429C18.1725 0.696429 18.1274 0.670312 18.1274 0.638393C18.1274 0.606473 18.0767 0.580357 18.0148 0.580357C17.9529 0.580357 17.9022 0.554241 17.9022 0.522321C17.9022 0.490402 17.8262 0.464286 17.7333 0.464286C17.6404 0.464286 17.5644 0.43817 17.5644 0.40625C17.5644 0.37433 17.4378 0.348214 17.283 0.348214C17.1281 0.348214 17.0015 0.322098 17.0015 0.290179C17.0015 0.252223 15.9881 0.232143 14.0741 0.232143H11.1467V5.6875ZM33.3274 5.6875V11.1429H35.8044C37.4183 11.1429 38.2815 11.1227 38.2815 11.0848C38.2815 11.051 38.4691 11.0268 38.7319 11.0268C38.9946 11.0268 39.1822 11.0026 39.1822 10.9688C39.1822 10.9368 39.2836 10.9107 39.4074 10.9107C39.5313 10.9107 39.6326 10.8846 39.6326 10.8527C39.6326 10.8208 39.7086 10.7946 39.8015 10.7946C39.8944 10.7946 39.9704 10.7685 39.9704 10.7366C39.9704 10.7047 40.021 10.6786 40.083 10.6786C40.1449 10.6786 40.1956 10.6525 40.1956 10.6205C40.1956 10.5886 40.2462 10.5625 40.3081 10.5625C40.3701 10.5625 40.4207 10.5364 40.4207 10.5045C40.4207 10.4725 40.4607 10.4464 40.5096 10.4464C40.5585 10.4464 40.6958 10.342 40.8148 10.2143C40.9338 10.0866 41.0603 9.98214 41.0959 9.98214C41.1844 9.98214 41.3215 9.83375 41.3215 9.73793C41.3215 9.69481 41.3721 9.62191 41.4341 9.57589C41.496 9.52987 41.5467 9.44578 41.5467 9.38896C41.5467 9.3322 41.572 9.28571 41.603 9.28571C41.6339 9.28571 41.6593 9.20737 41.6593 9.11161C41.6593 9.01585 41.6846 8.9375 41.7156 8.9375C41.7465 8.9375 41.7719 8.85915 41.7719 8.76339C41.7719 8.66763 41.7972 8.58929 41.8281 8.58929C41.8634 8.58929 41.8844 8.22175 41.8844 7.60268C41.8844 6.98361 41.8634 6.61607 41.8281 6.61607C41.7972 6.61607 41.7719 6.51161 41.7719 6.38393C41.7719 6.25625 41.7465 6.15179 41.7156 6.15179C41.6846 6.15179 41.6593 6.09955 41.6593 6.03571C41.6593 5.97187 41.6339 5.91964 41.603 5.91964C41.572 5.91964 41.5467 5.87791 41.5467 5.82684C41.5467 5.77583 41.4707 5.66086 41.3778 5.57143C41.2849 5.482 41.2089 5.37823 41.2089 5.34085C41.2089 5.25322 41.0672 5.10714 40.9822 5.10714C40.9459 5.10714 40.8453 5.02879 40.7585 4.93304C40.6718 4.83728 40.5602 4.75893 40.5108 4.75893C40.4612 4.75893 40.4207 4.73281 40.4207 4.70089C40.4207 4.66897 40.3701 4.64286 40.3081 4.64286C40.2462 4.64286 40.1956 4.61674 40.1956 4.58482C40.1956 4.5529 40.1196 4.52679 40.0267 4.52679C39.9338 4.52679 39.8578 4.50067 39.8578 4.46875C39.8578 4.43683 39.7311 4.41071 39.5763 4.41071C39.4215 4.41071 39.2948 4.3846 39.2948 4.35268C39.2948 4.31519 38.638 4.29464 37.437 4.29464H35.5793V3.42411C35.5793 2.88246 35.558 2.55357 35.523 2.55357C35.492 2.55357 35.4667 2.52746 35.4667 2.49554C35.4667 2.45758 36.4613 2.4375 38.3378 2.4375H41.2089V1.33482V0.232143H37.2681H33.3274V5.6875ZM55.9585 2.20536C55.9585 3.48214 55.9386 4.17857 55.9022 4.17857C55.8684 4.17857 55.8459 4.41071 55.8459 4.75893C55.8459 5.10714 55.8234 5.33929 55.7896 5.33929C55.7575 5.33929 55.7333 5.51339 55.7333 5.74554C55.7333 5.97768 55.7092 6.15179 55.677 6.15179C55.6461 6.15179 55.6207 6.28237 55.6207 6.44196C55.6207 6.60156 55.5954 6.73214 55.5644 6.73214C55.5335 6.73214 55.5081 6.83661 55.5081 6.96429C55.5081 7.09196 55.4828 7.19643 55.4519 7.19643C55.4209 7.19643 55.3956 7.30089 55.3956 7.42857C55.3956 7.55625 55.3702 7.66071 55.3393 7.66071C55.3083 7.66071 55.283 7.73906 55.283 7.83482C55.283 7.93058 55.2576 8.00893 55.2267 8.00893C55.1957 8.00893 55.1704 8.08728 55.1704 8.18304C55.1704 8.27879 55.145 8.35714 55.1141 8.35714C55.0831 8.35714 55.0578 8.40938 55.0578 8.47321C55.0578 8.53705 55.0324 8.58929 55.0015 8.58929C54.9705 8.58929 54.9452 8.63032 54.9452 8.68046C54.9452 8.88434 54.8005 8.9375 54.2455 8.9375H53.7067V10.8858C53.7067 12.497 53.7206 12.8485 53.7871 12.9171C53.8507 12.9826 54.0744 13 54.8567 13H55.8459V12.0714V11.1429H59.3363C61.6257 11.1429 62.8267 11.1628 62.8267 11.2009C62.8267 11.2328 62.8013 11.2589 62.7704 11.2589C62.6833 11.2589 62.6968 12.4017 62.7844 12.4438C62.8407 12.4709 62.8407 12.4845 62.7844 12.5115C62.689 12.5575 62.6953 12.8149 62.7945 12.9171C62.8581 12.9826 63.0819 13 63.8641 13H64.8533V10.9688V8.9375H64.3145C63.9226 8.9375 63.7537 8.91492 63.6953 8.85457C63.627 8.78423 63.6148 8.125 63.6148 4.50189V0.232143H59.7867H55.9585V2.20536ZM69.6526 0.318964C69.6139 0.36429 69.5822 0.467767 69.5822 0.548901C69.5822 0.630035 69.5569 0.696429 69.5259 0.696429C69.495 0.696429 69.4696 0.748661 69.4696 0.8125C69.4696 0.876339 69.4443 0.928571 69.4133 0.928571C69.3824 0.928571 69.357 0.980804 69.357 1.04464C69.357 1.10848 69.3317 1.16071 69.3007 1.16071C69.2698 1.16071 69.2444 1.21295 69.2444 1.27679C69.2444 1.34062 69.2191 1.39286 69.1881 1.39286C69.1572 1.39286 69.1319 1.47121 69.1319 1.56696C69.1319 1.66272 69.1065 1.74107 69.0756 1.74107C69.0446 1.74107 69.0193 1.7933 69.0193 1.85714C69.0193 1.92098 68.9939 1.97321 68.963 1.97321C68.932 1.97321 68.9067 2.02545 68.9067 2.08929C68.9067 2.15313 68.8813 2.20536 68.8504 2.20536C68.8194 2.20536 68.7941 2.25759 68.7941 2.32143C68.7941 2.38527 68.7687 2.4375 68.7378 2.4375C68.7068 2.4375 68.6815 2.51585 68.6815 2.61161C68.6815 2.70737 68.6562 2.78571 68.6252 2.78571C68.5942 2.78571 68.5689 2.83795 68.5689 2.90179C68.5689 2.96562 68.5436 3.01786 68.5126 3.01786C68.4816 3.01786 68.4563 3.07009 68.4563 3.13393C68.4563 3.19777 68.431 3.25 68.4 3.25C68.369 3.25 68.3437 3.32835 68.3437 3.42411C68.3437 3.51987 68.3184 3.59821 68.2874 3.59821C68.2564 3.59821 68.2311 3.65045 68.2311 3.71429C68.2311 3.77812 68.2058 3.83036 68.1748 3.83036C68.1439 3.83036 68.1185 3.88259 68.1185 3.94643C68.1185 4.01027 68.0932 4.0625 68.0622 4.0625C68.0313 4.0625 68.0059 4.11473 68.0059 4.17857C68.0059 4.24241 67.9806 4.29464 67.9496 4.29464C67.9187 4.29464 67.8933 4.37299 67.8933 4.46875C67.8933 4.56451 67.868 4.64286 67.837 4.64286C67.8061 4.64286 67.7807 4.69509 67.7807 4.75893C67.7807 4.82277 67.7554 4.875 67.7244 4.875C67.6935 4.875 67.6682 4.92723 67.6682 4.99107C67.6682 5.05491 67.6428 5.10714 67.6119 5.10714C67.5809 5.10714 67.5556 5.18549 67.5556 5.28125C67.5556 5.37701 67.5302 5.45536 67.4993 5.45536C67.4683 5.45536 67.443 5.50759 67.443 5.57143C67.443 5.63527 67.4176 5.6875 67.3867 5.6875C67.3557 5.6875 67.3304 5.73973 67.3304 5.80357C67.3304 5.86741 67.305 5.91964 67.2741 5.91964C67.2431 5.91964 67.2178 5.97187 67.2178 6.03571C67.2178 6.09955 67.1924 6.15179 67.1615 6.15179C67.1305 6.15179 67.1052 6.20402 67.1052 6.26786C67.1052 6.3317 67.0798 6.38393 67.0489 6.38393C67.0179 6.38393 66.9926 6.46228 66.9926 6.55804C66.9926 6.65379 66.9673 6.73214 66.9363 6.73214C66.9053 6.73214 66.88 6.78437 66.88 6.84821C66.88 6.91205 66.8547 6.96429 66.8237 6.96429C66.7927 6.96429 66.7674 7.01652 66.7674 7.08036C66.7674 7.1442 66.7421 7.19643 66.7111 7.19643C66.6801 7.19643 66.6548 7.27478 66.6548 7.37054C66.6548 7.46629 66.6295 7.54464 66.5985 7.54464C66.5676 7.54464 66.5422 7.59687 66.5422 7.66071C66.5422 7.72455 66.5169 7.77679 66.4859 7.77679C66.455 7.77679 66.4296 7.82902 66.4296 7.89286C66.4296 7.9567 66.4043 8.00893 66.3733 8.00893C66.3424 8.00893 66.317 8.08728 66.317 8.18304C66.317 8.27879 66.2917 8.35714 66.2607 8.35714C66.2298 8.35714 66.2044 8.40938 66.2044 8.47321C66.2044 8.53705 66.1791 8.58929 66.1481 8.58929C66.1172 8.58929 66.0919 8.64152 66.0919 8.70536C66.0919 8.7692 66.0665 8.82143 66.0356 8.82143C66.0046 8.82143 65.9793 8.87366 65.9793 8.9375C65.9793 9.00134 65.9539 9.05357 65.923 9.05357C65.892 9.05357 65.8667 9.13192 65.8667 9.22768C65.8667 9.32344 65.8413 9.40179 65.8104 9.40179C65.7794 9.40179 65.7541 9.45402 65.7541 9.51786C65.7541 9.5817 65.7287 9.63393 65.6978 9.63393C65.6668 9.63393 65.6415 9.68616 65.6415 9.75C65.6415 9.81384 65.6161 9.86607 65.5852 9.86607C65.5542 9.86607 65.5289 9.94442 65.5289 10.0402C65.5289 10.1359 65.5036 10.2143 65.4726 10.2143C65.4416 10.2143 65.4163 10.2665 65.4163 10.3304C65.4163 10.3942 65.391 10.4464 65.36 10.4464C65.329 10.4464 65.3037 10.4987 65.3037 10.5625C65.3037 10.6263 65.2784 10.6786 65.2474 10.6786C65.2164 10.6786 65.1911 10.7308 65.1911 10.7946C65.1911 10.8585 65.1658 10.9107 65.1348 10.9107C65.1039 10.9107 65.0785 10.9629 65.0785 11.0268C65.0785 11.1392 65.1161 11.1429 66.2607 11.1429H67.443V10.9688C67.443 10.873 67.4683 10.7946 67.4993 10.7946C67.5302 10.7946 67.5556 10.7424 67.5556 10.6786C67.5556 10.6147 67.5809 10.5625 67.6119 10.5625C67.6428 10.5625 67.6682 10.5103 67.6682 10.4464C67.6682 10.3826 67.6935 10.3304 67.7244 10.3304C67.7554 10.3304 67.7807 10.2781 67.7807 10.2143C67.7807 10.1504 67.8061 10.0982 67.837 10.0982C67.868 10.0982 67.8933 10.0199 67.8933 9.92411C67.8933 9.82835 67.9187 9.75 67.9496 9.75C67.9806 9.75 68.0059 9.69777 68.0059 9.63393C68.0059 9.57009 68.0313 9.51786 68.0622 9.51786C68.0932 9.51786 68.1185 9.46562 68.1185 9.40179C68.1185 9.33795 68.1439 9.28571 68.1748 9.28571C68.2058 9.28571 68.2311 9.23348 68.2311 9.16964C68.2311 9.05549 68.2687 9.05357 70.5393 9.05357H72.8474V9.22768C72.8474 9.32344 72.8727 9.40179 72.9037 9.40179C72.9347 9.40179 72.96 9.45402 72.96 9.51786C72.96 9.5817 72.9853 9.63393 73.0163 9.63393C73.0473 9.63393 73.0726 9.68616 73.0726 9.75C73.0726 9.81384 73.0979 9.86607 73.1289 9.86607C73.1599 9.86607 73.1852 9.9183 73.1852 9.98214C73.1852 10.046 73.2105 10.0982 73.2415 10.0982C73.2724 10.0982 73.2978 10.1708 73.2978 10.2595C73.2978 10.3542 73.3443 10.4553 73.4104 10.5045C73.4765 10.5536 73.523 10.6547 73.523 10.7494C73.523 10.8381 73.5483 10.9107 73.5793 10.9107C73.6102 10.9107 73.6356 10.9629 73.6356 11.0268C73.6356 11.1392 73.6731 11.1429 74.8178 11.1429C75.9624 11.1429 76 11.1392 76 11.0268C76 10.9629 75.9747 10.9107 75.9437 10.9107C75.9127 10.9107 75.8874 10.8585 75.8874 10.7946C75.8874 10.7308 75.8621 10.6786 75.8311 10.6786C75.8001 10.6786 75.7748 10.6263 75.7748 10.5625C75.7748 10.4987 75.7495 10.4464 75.7185 10.4464C75.6876 10.4464 75.6622 10.3942 75.6622 10.3304C75.6622 10.2665 75.6369 10.2143 75.6059 10.2143C75.575 10.2143 75.5496 10.1359 75.5496 10.0402C75.5496 9.94442 75.5243 9.86607 75.4933 9.86607C75.4624 9.86607 75.437 9.81384 75.437 9.75C75.437 9.68616 75.4117 9.63393 75.3807 9.63393C75.3498 9.63393 75.3244 9.5817 75.3244 9.51786C75.3244 9.45402 75.2991 9.40179 75.2682 9.40179C75.2372 9.40179 75.2119 9.32344 75.2119 9.22768C75.2119 9.13192 75.1865 9.05357 75.1556 9.05357C75.1246 9.05357 75.0993 9.00134 75.0993 8.9375C75.0993 8.87366 75.0739 8.82143 75.043 8.82143C75.012 8.82143 74.9867 8.7692 74.9867 8.70536C74.9867 8.64152 74.9613 8.58929 74.9304 8.58929C74.8994 8.58929 74.8741 8.53705 74.8741 8.47321C74.8741 8.40938 74.8487 8.35714 74.8178 8.35714C74.7868 8.35714 74.7615 8.27879 74.7615 8.18304C74.7615 8.08728 74.7361 8.00893 74.7052 8.00893C74.6742 8.00893 74.6489 7.9567 74.6489 7.89286C74.6489 7.82902 74.6236 7.77679 74.5926 7.77679C74.5616 7.77679 74.5363 7.72455 74.5363 7.66071C74.5363 7.59687 74.511 7.54464 74.48 7.54464C74.449 7.54464 74.4237 7.49241 74.4237 7.42857C74.4237 7.36473 74.3984 7.3125 74.3674 7.3125C74.3364 7.3125 74.3111 7.23415 74.3111 7.13839C74.3111 7.04263 74.2858 6.96429 74.2548 6.96429C74.2239 6.96429 74.1985 6.91205 74.1985 6.84821C74.1985 6.78437 74.1732 6.73214 74.1422 6.73214C74.1113 6.73214 74.0859 6.67991 74.0859 6.61607C74.0859 6.55223 74.0606 6.5 74.0296 6.5C73.9987 6.5 73.9733 6.42165 73.9733 6.32589C73.9733 6.23013 73.948 6.15179 73.917 6.15179C73.8861 6.15179 73.8607 6.09955 73.8607 6.03571C73.8607 5.97187 73.8354 5.91964 73.8044 5.91964C73.7735 5.91964 73.7481 5.86741 73.7481 5.80357C73.7481 5.73973 73.7228 5.6875 73.6918 5.6875C73.6609 5.6875 73.6356 5.63527 73.6356 5.57143C73.6356 5.50759 73.6102 5.45536 73.5793 5.45536C73.5483 5.45536 73.523 5.37701 73.523 5.28125C73.523 5.18549 73.4976 5.10714 73.4667 5.10714C73.4357 5.10714 73.4104 5.05491 73.4104 4.99107C73.4104 4.92723 73.385 4.875 73.3541 4.875C73.3231 4.875 73.2978 4.82277 73.2978 4.75893C73.2978 4.69509 73.2724 4.64286 73.2415 4.64286C73.2105 4.64286 73.1852 4.56451 73.1852 4.46875C73.1852 4.37299 73.1599 4.29464 73.1289 4.29464C73.0979 4.29464 73.0726 4.24241 73.0726 4.17857C73.0726 4.11473 73.0473 4.0625 73.0163 4.0625C72.9853 4.0625 72.96 4.01027 72.96 3.94643C72.96 3.88259 72.9347 3.83036 72.9037 3.83036C72.8727 3.83036 72.8474 3.77812 72.8474 3.71429C72.8474 3.65045 72.8221 3.59821 72.7911 3.59821C72.7601 3.59821 72.7348 3.51987 72.7348 3.42411C72.7348 3.32835 72.7095 3.25 72.6785 3.25C72.6476 3.25 72.6222 3.19777 72.6222 3.13393C72.6222 3.07009 72.5969 3.01786 72.5659 3.01786C72.535 3.01786 72.5096 2.96562 72.5096 2.90179C72.5096 2.83795 72.4843 2.78571 72.4533 2.78571C72.4224 2.78571 72.397 2.70737 72.397 2.61161C72.397 2.51585 72.3717 2.4375 72.3407 2.4375C72.3098 2.4375 72.2844 2.38527 72.2844 2.32143C72.2844 2.25759 72.2591 2.20536 72.2281 2.20536C72.1972 2.20536 72.1719 2.15313 72.1719 2.08929C72.1719 2.02545 72.1465 1.97321 72.1156 1.97321C72.0846 1.97321 72.0593 1.89487 72.0593 1.79911C72.0593 1.70335 72.0339 1.625 72.003 1.625C71.972 1.625 71.9467 1.57277 71.9467 1.50893C71.9467 1.44509 71.9213 1.39286 71.8904 1.39286C71.8594 1.39286 71.8341 1.34062 71.8341 1.27679C71.8341 1.21295 71.8087 1.16071 71.7778 1.16071C71.7468 1.16071 71.7215 1.10848 71.7215 1.04464C71.7215 0.980804 71.6962 0.928571 71.6652 0.928571C71.6342 0.928571 71.6089 0.850223 71.6089 0.754464C71.6089 0.658705 71.5836 0.580357 71.5526 0.580357C71.5216 0.580357 71.4963 0.539326 71.4963 0.489183C71.4963 0.266732 71.3647 0.232084 70.5292 0.234348C69.9054 0.236031 69.707 0.255183 69.6526 0.318964ZM27.0222 2.37946C27.0222 2.41138 27.1236 2.4375 27.2474 2.4375C27.3713 2.4375 27.4726 2.46362 27.4726 2.49554C27.4726 2.52746 27.5233 2.55357 27.5852 2.55357C27.6471 2.55357 27.6978 2.57969 27.6978 2.61161C27.6978 2.64353 27.7429 2.66964 27.7979 2.66964C27.853 2.66964 27.9346 2.72187 27.9793 2.78571C28.0239 2.84955 28.0933 2.90179 28.1335 2.90179C28.2359 2.90179 28.9363 3.63501 28.9363 3.7422C28.9363 3.79072 28.9616 3.83036 28.9926 3.83036C29.0236 3.83036 29.0489 3.88259 29.0489 3.94643C29.0489 4.01027 29.0742 4.0625 29.1052 4.0625C29.1361 4.0625 29.1615 4.11473 29.1615 4.17857C29.1615 4.24241 29.1868 4.29464 29.2178 4.29464C29.2487 4.29464 29.2741 4.37299 29.2741 4.46875C29.2741 4.56451 29.2994 4.64286 29.3304 4.64286C29.3631 4.64286 29.3867 4.83472 29.3867 5.10233C29.3867 5.41311 29.4094 5.57271 29.457 5.59563C29.5133 5.62267 29.5133 5.63625 29.457 5.6633C29.4094 5.68622 29.3867 5.84582 29.3867 6.1566C29.3867 6.4242 29.3631 6.61607 29.3304 6.61607C29.2994 6.61607 29.2741 6.69442 29.2741 6.79018C29.2741 6.88594 29.2487 6.96429 29.2178 6.96429C29.1868 6.96429 29.1615 7.03689 29.1615 7.12557C29.1615 7.22028 29.115 7.32138 29.0489 7.37054C28.987 7.41656 28.9363 7.51429 28.9363 7.58771C28.9363 7.73192 28.3756 8.35714 28.2462 8.35714C28.206 8.35714 28.1365 8.40938 28.0919 8.47321C28.0472 8.53705 27.9656 8.58929 27.9105 8.58929C27.8555 8.58929 27.8104 8.6154 27.8104 8.64732C27.8104 8.67924 27.7597 8.70536 27.6978 8.70536C27.6359 8.70536 27.5852 8.73147 27.5852 8.76339C27.5852 8.79531 27.5092 8.82143 27.4163 8.82143C27.3234 8.82143 27.2474 8.84754 27.2474 8.87946C27.2474 8.91138 27.1207 8.9375 26.9659 8.9375C26.8111 8.9375 26.6844 8.96362 26.6844 8.99554C26.6844 9.0278 26.5343 9.05357 26.3467 9.05357C26.159 9.05357 26.0089 9.0278 26.0089 8.99554C26.0089 8.96362 25.8822 8.9375 25.7274 8.9375C25.5726 8.9375 25.4459 8.91138 25.4459 8.87946C25.4459 8.84754 25.3699 8.82143 25.277 8.82143C25.1841 8.82143 25.1081 8.79531 25.1081 8.76339C25.1081 8.73147 25.0575 8.70536 24.9956 8.70536C24.9336 8.70536 24.883 8.67924 24.883 8.64732C24.883 8.6154 24.8446 8.58929 24.7977 8.58929C24.6866 8.58929 23.757 7.631 23.757 7.51644C23.757 7.46809 23.7317 7.42857 23.7007 7.42857C23.6698 7.42857 23.6444 7.37634 23.6444 7.3125C23.6444 7.24866 23.6191 7.19643 23.5881 7.19643C23.5572 7.19643 23.5319 7.1442 23.5319 7.08036C23.5319 7.01652 23.5065 6.96429 23.4756 6.96429C23.4446 6.96429 23.4193 6.88594 23.4193 6.79018C23.4193 6.69442 23.3939 6.61607 23.363 6.61607C23.3278 6.61607 23.3067 6.26786 23.3067 5.6875C23.3067 5.10714 23.3278 4.75893 23.363 4.75893C23.3939 4.75893 23.4193 4.68058 23.4193 4.58482C23.4193 4.48906 23.4446 4.41071 23.4756 4.41071C23.5065 4.41071 23.5319 4.33237 23.5319 4.23661C23.5319 4.14085 23.5572 4.0625 23.5881 4.0625C23.6191 4.0625 23.6444 4.01027 23.6444 3.94643C23.6444 3.88259 23.6698 3.83036 23.7007 3.83036C23.7317 3.83036 23.757 3.79072 23.757 3.7422C23.757 3.63501 24.4574 2.90179 24.5599 2.90179C24.6 2.90179 24.6694 2.84955 24.7141 2.78571C24.7587 2.72187 24.8403 2.66964 24.8954 2.66964C24.9505 2.66964 24.9956 2.64353 24.9956 2.61161C24.9956 2.57969 25.0462 2.55357 25.1081 2.55357C25.1701 2.55357 25.2207 2.52746 25.2207 2.49554C25.2207 2.46362 25.3221 2.4375 25.4459 2.4375C25.5698 2.4375 25.6711 2.41138 25.6711 2.37946C25.6711 2.344 25.9338 2.32143 26.3467 2.32143C26.7595 2.32143 27.0222 2.344 27.0222 2.37946ZM48.9778 2.37946C48.9778 2.41138 49.0791 2.4375 49.203 2.4375C49.3268 2.4375 49.4281 2.46362 49.4281 2.49554C49.4281 2.52746 49.4788 2.55357 49.5407 2.55357C49.6027 2.55357 49.6533 2.57969 49.6533 2.61161C49.6533 2.64353 49.6984 2.66964 49.7535 2.66964C49.8086 2.66964 49.8902 2.72187 49.9348 2.78571C49.9795 2.84955 50.0489 2.90179 50.089 2.90179C50.1842 2.90179 50.8919 3.63129 50.8919 3.72943C50.8919 3.77081 50.9425 3.84237 51.0044 3.88839C51.0705 3.93755 51.117 4.03865 51.117 4.13336C51.117 4.22204 51.1424 4.29464 51.1733 4.29464C51.2043 4.29464 51.2296 4.37299 51.2296 4.46875C51.2296 4.56451 51.255 4.64286 51.2859 4.64286C51.3172 4.64286 51.3422 4.79764 51.3422 4.99107C51.3422 5.1845 51.3672 5.33929 51.3985 5.33929C51.4298 5.33929 51.4548 5.49407 51.4548 5.6875C51.4548 5.88093 51.4298 6.03571 51.3985 6.03571C51.3672 6.03571 51.3422 6.1905 51.3422 6.38393C51.3422 6.57736 51.3172 6.73214 51.2859 6.73214C51.255 6.73214 51.2296 6.81049 51.2296 6.90625C51.2296 7.00201 51.2043 7.08036 51.1733 7.08036C51.1424 7.08036 51.117 7.13259 51.117 7.19643C51.117 7.26027 51.0917 7.3125 51.0607 7.3125C51.0298 7.3125 51.0044 7.36473 51.0044 7.42857C51.0044 7.49241 50.9791 7.54464 50.9481 7.54464C50.9172 7.54464 50.8919 7.58428 50.8919 7.6328C50.8919 7.73999 50.1915 8.47321 50.089 8.47321C50.0489 8.47321 49.9795 8.52545 49.9348 8.58929C49.8902 8.65312 49.8086 8.70536 49.7535 8.70536C49.6984 8.70536 49.6533 8.73147 49.6533 8.76339C49.6533 8.79531 49.5773 8.82143 49.4844 8.82143C49.3916 8.82143 49.3156 8.84754 49.3156 8.87946C49.3156 8.91138 49.1889 8.9375 49.0341 8.9375C48.8793 8.9375 48.7526 8.96362 48.7526 8.99554C48.7526 9.02867 48.5837 9.05357 48.3585 9.05357C48.1333 9.05357 47.9644 9.02867 47.9644 8.99554C47.9644 8.96362 47.8378 8.9375 47.683 8.9375C47.5281 8.9375 47.4015 8.91138 47.4015 8.87946C47.4015 8.84754 47.3255 8.82143 47.2326 8.82143C47.1397 8.82143 47.0637 8.79531 47.0637 8.76339C47.0637 8.73147 47.0186 8.70536 46.9636 8.70536C46.9084 8.70536 46.8269 8.65312 46.7822 8.58929C46.7376 8.52545 46.6683 8.47321 46.6281 8.47321C46.5257 8.47321 45.7126 7.62357 45.7126 7.51655C45.7126 7.46815 45.6873 7.42857 45.6563 7.42857C45.6253 7.42857 45.6 7.37634 45.6 7.3125C45.6 7.24866 45.5747 7.19643 45.5437 7.19643C45.5127 7.19643 45.4874 7.11808 45.4874 7.02232C45.4874 6.92656 45.4621 6.84821 45.4311 6.84821C45.4001 6.84821 45.3748 6.76987 45.3748 6.67411C45.3748 6.57835 45.3495 6.5 45.3185 6.5C45.2837 6.5 45.2622 6.1905 45.2622 5.6875C45.2622 5.1845 45.2837 4.875 45.3185 4.875C45.3495 4.875 45.3748 4.77054 45.3748 4.64286C45.3748 4.51518 45.4001 4.41071 45.4311 4.41071C45.4621 4.41071 45.4874 4.33237 45.4874 4.23661C45.4874 4.14085 45.5127 4.0625 45.5437 4.0625C45.5747 4.0625 45.6 4.02129 45.6 3.97092C45.6 3.92049 45.7013 3.77894 45.8252 3.65625C45.949 3.53356 46.0504 3.40385 46.0504 3.36799C46.0504 3.27739 46.3105 3.01786 46.4013 3.01786C46.4423 3.01786 46.5124 2.96562 46.557 2.90179C46.6017 2.83795 46.6777 2.78571 46.7259 2.78571C46.7742 2.78571 46.8502 2.73348 46.8948 2.66964C46.9425 2.60151 47.0406 2.55357 47.1324 2.55357C47.2185 2.55357 47.2889 2.52746 47.2889 2.49554C47.2889 2.46362 47.3649 2.4375 47.4578 2.4375C47.5507 2.4375 47.6267 2.41138 47.6267 2.37946C47.6267 2.344 47.8894 2.32143 48.3022 2.32143C48.715 2.32143 48.9778 2.344 48.9778 2.37946ZM16.3259 2.49554C16.3259 2.52746 16.4019 2.55357 16.4948 2.55357C16.5877 2.55357 16.6637 2.57969 16.6637 2.61161C16.6637 2.64353 16.7035 2.66964 16.7521 2.66964C16.8659 2.66964 17.0015 2.80939 17.0015 2.92668C17.0015 2.97683 17.0268 3.01786 17.0578 3.01786C17.0903 3.01786 17.1141 3.20229 17.1141 3.45504C17.1141 3.87655 17.107 3.89948 16.9189 4.09343C16.8116 4.20411 16.6849 4.29464 16.6374 4.29464C16.59 4.29464 16.5511 4.32076 16.5511 4.35268C16.5511 4.3846 16.4244 4.41071 16.2696 4.41071C16.1148 4.41071 15.9881 4.43683 15.9881 4.46875C15.9881 4.50578 15.519 4.52679 14.6933 4.52679H13.3985V3.48214V2.4375H14.8622C15.8005 2.4375 16.3259 2.45833 16.3259 2.49554ZM61.363 5.6875V8.9375H59.3363H57.3096V8.70536C57.3096 8.57768 57.335 8.47321 57.3659 8.47321C57.3969 8.47321 57.4222 8.39487 57.4222 8.29911C57.4222 8.20335 57.4476 8.125 57.4785 8.125C57.5095 8.125 57.5348 8.04665 57.5348 7.95089C57.5348 7.85513 57.5602 7.77679 57.5911 7.77679C57.6221 7.77679 57.6474 7.6462 57.6474 7.48661C57.6474 7.32701 57.6727 7.19643 57.7037 7.19643C57.7347 7.19643 57.76 7.06585 57.76 6.90625C57.76 6.74665 57.7853 6.61607 57.8163 6.61607C57.8476 6.61607 57.8726 6.46129 57.8726 6.26786C57.8726 6.07442 57.8976 5.91964 57.9289 5.91964C57.9623 5.91964 57.9852 5.70683 57.9852 5.39732C57.9852 5.08782 58.0081 4.875 58.0415 4.875C58.0772 4.875 58.0978 4.43004 58.0978 3.65625V2.4375H59.7304H61.363V5.6875ZM70.6277 3.91329C70.672 3.95885 70.7081 4.0372 70.7081 4.0874C70.7081 4.13754 70.7335 4.17857 70.7644 4.17857C70.7954 4.17857 70.8207 4.25692 70.8207 4.35268C70.8207 4.44844 70.8461 4.52679 70.877 4.52679C70.908 4.52679 70.9333 4.57902 70.9333 4.64286C70.9333 4.7067 70.9587 4.75893 70.9896 4.75893C71.0206 4.75893 71.0459 4.81116 71.0459 4.875C71.0459 4.93884 71.0713 4.99107 71.1022 4.99107C71.1332 4.99107 71.1585 5.06942 71.1585 5.16518C71.1585 5.26094 71.1839 5.33929 71.2148 5.33929C71.2458 5.33929 71.2711 5.39152 71.2711 5.45536C71.2711 5.5192 71.2964 5.57143 71.3274 5.57143C71.3584 5.57143 71.3837 5.62366 71.3837 5.6875C71.3837 5.75134 71.409 5.80357 71.44 5.80357C71.471 5.80357 71.4963 5.88192 71.4963 5.97768C71.4963 6.07344 71.5216 6.15179 71.5526 6.15179C71.5836 6.15179 71.6089 6.20402 71.6089 6.26786C71.6089 6.3317 71.6342 6.38393 71.6652 6.38393C71.6962 6.38393 71.7215 6.46228 71.7215 6.55804C71.7215 6.65379 71.7468 6.73214 71.7778 6.73214C71.8087 6.73214 71.8341 6.78437 71.8341 6.84821C71.8341 6.91205 71.8594 6.96429 71.8904 6.96429C71.9213 6.96429 71.9467 6.9904 71.9467 7.02232C71.9467 7.05946 71.44 7.08036 70.5393 7.08036H69.1319V6.90625C69.1319 6.81049 69.1572 6.73214 69.1881 6.73214C69.2191 6.73214 69.2444 6.67991 69.2444 6.61607C69.2444 6.55223 69.2698 6.5 69.3007 6.5C69.3317 6.5 69.357 6.42165 69.357 6.32589C69.357 6.23013 69.3824 6.15179 69.4133 6.15179C69.4443 6.15179 69.4696 6.09955 69.4696 6.03571C69.4696 5.97187 69.495 5.91964 69.5259 5.91964C69.5569 5.91964 69.5822 5.86741 69.5822 5.80357C69.5822 5.73973 69.6076 5.6875 69.6385 5.6875C69.6695 5.6875 69.6948 5.63527 69.6948 5.57143C69.6948 5.50759 69.7201 5.45536 69.7511 5.45536C69.7821 5.45536 69.8074 5.40312 69.8074 5.33929C69.8074 5.27545 69.8327 5.22321 69.8637 5.22321C69.8947 5.22321 69.92 5.14487 69.92 5.04911C69.92 4.95335 69.9453 4.875 69.9763 4.875C70.0073 4.875 70.0326 4.82277 70.0326 4.75893C70.0326 4.69509 70.0579 4.64286 70.0889 4.64286C70.1199 4.64286 70.1452 4.59062 70.1452 4.52679C70.1452 4.46295 70.1705 4.41071 70.2015 4.41071C70.2324 4.41071 70.2578 4.35848 70.2578 4.29464C70.2578 4.2308 70.2831 4.17857 70.3141 4.17857C70.345 4.17857 70.3704 4.10022 70.3704 4.00446C70.3704 3.81196 70.4888 3.77 70.6277 3.91329ZM38.6193 6.55804C38.6193 6.58996 38.7206 6.61607 38.8444 6.61607C38.9683 6.61607 39.0696 6.64219 39.0696 6.67411C39.0696 6.70603 39.1094 6.73214 39.1581 6.73214C39.2718 6.73214 39.4074 6.87189 39.4074 6.98918C39.4074 7.03933 39.4327 7.08036 39.4637 7.08036C39.4947 7.08036 39.52 7.15871 39.52 7.25446C39.52 7.35022 39.5453 7.42857 39.5763 7.42857C39.6073 7.42857 39.6326 7.53304 39.6326 7.66071C39.6326 7.78839 39.6073 7.89286 39.5763 7.89286C39.5453 7.89286 39.52 7.95884 39.52 8.03946C39.52 8.20341 39.0755 8.70536 38.9304 8.70536C38.8831 8.70536 38.8444 8.73147 38.8444 8.76339C38.8444 8.79566 38.6943 8.82143 38.5067 8.82143C38.319 8.82143 38.1689 8.8472 38.1689 8.87946C38.1689 8.91649 37.6998 8.9375 36.8741 8.9375H35.5793V7.71875V6.5H37.0993C38.075 6.5 38.6193 6.52078 38.6193 6.55804ZM16.4385 6.67411C16.4385 6.70603 16.5399 6.73214 16.6637 6.73214C16.7876 6.73214 16.8889 6.75826 16.8889 6.79018C16.8889 6.8221 16.928 6.84821 16.9759 6.84821C17.0885 6.84821 17.3393 7.10671 17.3393 7.22283C17.3393 7.27217 17.3646 7.3125 17.3956 7.3125C17.4281 7.3125 17.4519 7.49676 17.4519 7.74928V8.18611L17.2 8.44571C17.0615 8.58853 16.9095 8.70536 16.8622 8.70536C16.815 8.70536 16.7763 8.73147 16.7763 8.76339C16.7763 8.79566 16.6262 8.82143 16.4385 8.82143C16.2509 8.82143 16.1007 8.8472 16.1007 8.87946C16.1007 8.91655 15.6128 8.9375 14.7496 8.9375H13.3985V7.77679V6.61607H14.9185C15.8943 6.61607 16.4385 6.63685 16.4385 6.67411ZM8.78222 8.29911C8.78222 8.33103 8.75689 8.35714 8.72593 8.35714C8.69496 8.35714 8.66963 8.33103 8.66963 8.29911C8.66963 8.26719 8.69496 8.24107 8.72593 8.24107C8.75689 8.24107 8.78222 8.26719 8.78222 8.29911Z" fill="#73778D"/>
</svg>
