<svg width="50" height="50" viewBox="0 0 50 50" fill="none" xmlns="http://www.w3.org/2000/svg">
<path d="M7.14287 18.5186C3.56324 18.5186 0.661377 21.4204 0.661377 25C0.661377 28.5797 3.56324 31.4815 7.14287 31.4815C10.7225 31.4815 13.6244 28.5797 13.6244 25C13.6244 21.4204 10.7225 18.5186 7.14287 18.5186ZM7.14287 28.836C5.02436 28.836 3.30689 27.1185 3.30689 25C3.30689 22.8815 5.02436 21.1641 7.14287 21.1641C9.26138 21.1641 10.9788 22.8815 10.9788 25C10.9788 27.1185 9.2615 28.836 7.14287 28.836Z" fill="#4351D8"/>
<path d="M48.016 23.6773H18.1218C17.3913 23.6773 16.7991 24.2695 16.7991 25.0001C16.7991 25.7306 17.3913 26.3228 18.1218 26.3228H48.016C48.7466 26.3228 49.3388 25.7306 49.3388 25.0001C49.3388 24.2695 48.7466 23.6773 48.016 23.6773Z" fill="#4351D8"/>
<path d="M7.14287 0C3.56324 0 0.661377 2.90186 0.661377 6.48149C0.661377 10.0611 3.56324 12.963 7.14287 12.963C10.7225 12.963 13.6244 10.0611 13.6244 6.48149C13.6244 2.90186 10.7225 0 7.14287 0ZM7.14287 10.3175C5.02436 10.3175 3.30689 8.59999 3.30689 6.48149C3.30689 4.36298 5.02436 2.64551 7.14287 2.64551C9.26138 2.64551 10.9788 4.36298 10.9788 6.48149C10.9788 8.59999 9.2615 10.3175 7.14287 10.3175Z" fill="#4351D8"/>
<path d="M18.1218 7.80427H48.016C48.7466 7.80427 49.3388 7.21207 49.3388 6.48151C49.3388 5.75095 48.7466 5.15875 48.016 5.15875H18.1218C17.3913 5.15875 16.7991 5.75095 16.7991 6.48151C16.7991 7.21207 17.3913 7.80427 18.1218 7.80427Z" fill="#4351D8"/>
<path d="M7.14287 37.037C3.56324 37.037 0.661377 39.9388 0.661377 43.5185C0.661377 47.0981 3.56324 49.9999 7.14287 49.9999C10.7225 49.9999 13.6244 47.0981 13.6244 43.5185C13.6244 39.9388 10.7225 37.037 7.14287 37.037ZM10.9788 43.5185C10.9788 45.637 9.26138 47.3544 7.14287 47.3544C5.02436 47.3544 3.30689 45.637 3.30689 43.5185C3.30689 41.4 5.02436 39.6825 7.14287 39.6825C9.26138 39.6825 10.9788 41.4 10.9788 43.5185Z" fill="#4351D8"/>
<path d="M48.016 42.1958H18.1218C17.3913 42.1958 16.7991 42.788 16.7991 43.5186C16.7991 44.2491 17.3913 44.8413 18.1218 44.8413H48.016C48.7466 44.8413 49.3388 44.2491 49.3388 43.5186C49.3388 42.788 48.7466 42.1958 48.016 42.1958Z" fill="#4351D8"/>
</svg>
