<svg width="34" height="34" viewBox="0 0 34 34" fill="none" xmlns="http://www.w3.org/2000/svg">
<path d="M21.5595 21.5789C21.6196 21.481 21.6798 21.3849 21.7399 21.2852C24.4454 16.806 25.8069 12.8878 25.7873 9.64063C25.7753 7.40661 24.8795 5.26815 23.2957 3.69255C21.7119 2.11695 19.5688 1.23231 17.3347 1.23193C15.1007 1.23156 12.9573 2.11547 11.3729 3.69053C9.78855 5.2656 8.89204 7.40374 8.87926 9.63777C8.85947 12.8878 10.2212 16.8065 12.9267 21.2852C12.9868 21.3849 13.047 21.481 13.1071 21.5789C7.4113 22.2828 3.63525 24.3185 3.63525 26.7354C3.63525 29.7698 9.65088 32.1466 17.3332 32.1466C25.0155 32.1466 31.0311 29.7698 31.0311 26.7354C31.0311 24.3185 27.255 22.2828 21.5595 21.5789ZM9.79072 9.64063C9.78507 8.6464 9.97604 7.66086 10.3527 6.7407C10.7293 5.82053 11.2841 4.98391 11.9852 4.27894C12.6863 3.57397 13.5199 3.01457 14.4379 2.63291C15.356 2.25125 16.3405 2.05487 17.3347 2.05506C18.329 2.05525 19.3134 2.25201 20.2313 2.63401C21.1493 3.01602 21.9826 3.57573 22.6835 4.28097C23.3843 4.9862 23.9388 5.82304 24.3151 6.74335C24.6913 7.66365 24.8819 8.64927 24.8759 9.6435C24.9149 16.1169 18.8629 24.101 17.3332 26.0156C15.8035 24.101 9.75114 16.1167 9.79072 9.64063ZM17.3332 31.2352C9.68447 31.2352 4.54671 28.9083 4.54671 26.7354C4.54671 24.8083 8.35635 23.0154 13.6441 22.4339C14.6668 24.0307 15.7827 25.5658 16.986 27.0313C17.0288 27.0816 17.082 27.1221 17.1419 27.1499C17.2018 27.1776 17.2671 27.192 17.3332 27.192C17.3992 27.192 17.4645 27.1776 17.5244 27.1499C17.5844 27.1221 17.6376 27.0816 17.6803 27.0313C18.8837 25.5658 19.9997 24.0307 21.0225 22.4339C26.309 23.0154 30.1199 24.8073 30.1199 26.7354C30.1196 28.9083 24.9819 31.2352 17.3332 31.2352Z" fill="#3E425B"/>
<path d="M13.6074 28.5956C11.585 28.3368 9.96158 27.8811 9.03762 27.3131C8.98663 27.2805 8.92966 27.2584 8.87003 27.248C8.8104 27.2377 8.74931 27.2393 8.69032 27.2529C8.63134 27.2664 8.57563 27.2915 8.52646 27.3268C8.47729 27.3621 8.43564 27.4068 8.40394 27.4584C8.37225 27.5099 8.35113 27.5673 8.34183 27.6271C8.33254 27.6869 8.33525 27.7479 8.3498 27.8067C8.36435 27.8654 8.39046 27.9206 8.42659 27.9692C8.46273 28.0177 8.50818 28.0586 8.56028 28.0894C9.59231 28.7238 11.3439 29.2248 13.4918 29.4995C13.5111 29.502 13.5306 29.5033 13.5501 29.5032C13.6656 29.5026 13.7766 29.4582 13.8607 29.379C13.9447 29.2997 13.9955 29.1915 14.0027 29.0762C14.01 28.9609 13.9732 28.8471 13.8999 28.7579C13.8265 28.6687 13.7219 28.6107 13.6074 28.5956Z" fill="#3E425B"/>
<path d="M18.0986 28.8133C17.4635 28.8279 16.802 28.8245 16.1564 28.8008C16.0966 28.7986 16.0369 28.8082 15.9807 28.829C15.9246 28.8499 15.8731 28.8816 15.8293 28.9224C15.7854 28.9631 15.75 29.0121 15.725 29.0666C15.7001 29.121 15.6861 29.1799 15.6839 29.2397C15.6817 29.2996 15.6913 29.3593 15.7122 29.4154C15.733 29.4715 15.7647 29.523 15.8055 29.5669C15.8463 29.6108 15.8953 29.6462 15.9497 29.6711C16.0042 29.6961 16.063 29.71 16.1228 29.7122C16.5234 29.7268 16.9301 29.7344 17.3332 29.7344C17.5984 29.7344 17.8606 29.7312 18.12 29.725C18.2408 29.7222 18.3556 29.6715 18.439 29.5841C18.5225 29.4967 18.5678 29.3797 18.565 29.2589C18.5644 29.1987 18.5517 29.1394 18.5278 29.0842C18.5039 29.0291 18.4692 28.9793 18.4257 28.9378C18.3823 28.8962 18.3309 28.8638 18.2747 28.8425C18.2186 28.8211 18.1587 28.8112 18.0986 28.8133Z" fill="#3E425B"/>
<path d="M21.1812 9.64064C21.1811 8.8795 20.9553 8.13549 20.5324 7.50268C20.1095 6.86987 19.5084 6.37669 18.8051 6.0855C18.1019 5.79431 17.3281 5.71818 16.5816 5.86676C15.8351 6.01533 15.1494 6.38192 14.6113 6.92018C14.0731 7.45844 13.7067 8.14419 13.5583 8.89072C13.4098 9.63725 13.4861 10.411 13.7774 11.1142C14.0688 11.8174 14.5621 12.4184 15.195 12.8412C15.8279 13.264 16.5719 13.4896 17.3331 13.4896C18.3534 13.4884 19.3316 13.0824 20.053 12.3608C20.7745 11.6393 21.1802 10.661 21.1812 9.64064ZM14.3961 9.64064C14.3962 9.05978 14.5685 8.492 14.8913 8.00908C15.2141 7.52617 15.6728 7.14981 16.2095 6.9276C16.7462 6.70539 17.3367 6.6473 17.9064 6.76068C18.4761 6.87406 18.9993 7.15382 19.41 7.56459C19.8207 7.97535 20.1004 8.49867 20.2137 9.06838C20.3269 9.63808 20.2687 10.2286 20.0464 10.7652C19.8241 11.3018 19.4477 11.7605 18.9647 12.0832C18.4817 12.4059 17.9139 12.5781 17.3331 12.5781C16.5543 12.5773 15.8077 12.2675 15.257 11.7168C14.7064 11.1661 14.3968 10.4194 14.3961 9.64064Z" fill="#3E425B"/>
</svg>
