<svg width="75" height="75" viewBox="0 0 75 75" fill="none" xmlns="http://www.w3.org/2000/svg">
<path d="M68.4082 11.1328H6.5918C2.94976 11.1328 0 14.1009 0 17.7246V57.2754C0 60.9207 2.97144 63.8672 6.5918 63.8672H68.4082C72.0198 63.8672 75 60.9331 75 57.2754V17.7246C75 14.1073 72.062 11.1328 68.4082 11.1328ZM67.4851 15.5273C66.1383 16.8669 42.9614 39.9218 42.1611 40.7178C40.916 41.9629 39.2607 42.6485 37.5 42.6485C35.7393 42.6485 34.084 41.9628 32.8348 40.7137C32.2966 40.1783 9.37544 17.378 7.51494 15.5273H67.4851ZM4.39453 56.381V18.6218L23.3845 37.5117L4.39453 56.381ZM7.51772 59.4727L26.5002 40.6109L29.7315 43.8252C31.8066 45.9003 34.5655 47.043 37.5 47.043C40.4345 47.043 43.1934 45.9003 45.2644 43.8293L48.4998 40.6109L67.4823 59.4727H7.51772ZM70.6055 56.381L51.6155 37.5117L70.6055 18.6218V56.381Z" fill="white"/>
</svg>
