<svg width="77" height="77" viewBox="0 0 77 77" fill="none" xmlns="http://www.w3.org/2000/svg">
<path d="M76.2342 29.6397C76.2361 29.6461 76.2402 29.66 76.2436 29.6759C76.2473 29.6937 76.2511 29.7175 76.2512 29.7455L76.2512 29.7469V72.2499V72.2504C76.2494 73.0906 75.9803 73.9081 75.4832 74.585C75.4771 74.5981 75.4676 74.6163 75.4541 74.6354C75.436 74.6612 75.4166 74.6796 75.4016 74.6919C75.3997 74.6935 75.3978 74.6951 75.3959 74.6966C74.6449 75.6722 73.4842 76.2463 72.2517 76.25H72.251H4.74644H4.74537C3.51545 76.2447 2.35755 75.6713 1.6077 74.6977C1.60497 74.6955 1.60183 74.693 1.59881 74.6904C1.59215 74.6848 1.57823 74.6729 1.56376 74.6565L1.56239 74.655C1.54349 74.6332 1.53104 74.6121 1.52297 74.5962C1.52059 74.5915 1.51847 74.587 1.51662 74.5829C1.02045 73.9065 0.751856 73.0897 0.750001 72.2503L0.749999 72.2497L0.75 29.7434C0.75 29.7131 0.754336 29.6876 0.758458 29.6693C0.761261 29.6569 0.764562 29.6455 0.766677 29.6384C0.77633 29.5412 0.79583 29.4452 0.82506 29.3518C0.845389 29.267 0.873119 29.1836 0.908383 29.1031L0.911548 29.0958L0.915162 29.0888C0.956548 29.0085 1.00571 28.9328 1.06175 28.8625C1.11694 28.7831 1.18014 28.7094 1.25021 28.6428L1.25067 28.6421C1.25862 28.6309 1.28238 28.5973 1.3192 28.5668L1.32515 28.5619L1.32522 28.562L13.2468 19.3002V9.74563C13.2468 7.53627 15.0379 5.74538 17.2471 5.74538H30.7086L36.066 1.58668C36.066 1.58663 36.0661 1.58658 36.0662 1.58652L36.0664 1.58633L36.2197 1.78382C37.5597 0.738728 39.4388 0.738728 40.7788 1.78382L76.2342 29.6397ZM76.2342 29.6397C76.2248 29.5422 76.2053 29.4456 76.176 29.3517C76.1556 29.2665 76.1277 29.1835 76.093 29.1035L76.0897 29.0959L76.0858 29.0885C76.0446 29.0085 75.9955 28.9327 75.9393 28.8624C75.884 28.7827 75.8207 28.7092 75.7509 28.6426L75.7506 28.6423C75.7428 28.6311 75.7187 28.5968 75.6811 28.566L75.6812 28.5659L75.6758 28.5618L63.7504 19.3001V9.74563C63.7504 7.53643 61.9594 5.74538 59.7502 5.74538H46.2887L40.9325 1.58668L76.2342 29.6397ZM37.9021 3.95362L37.9041 3.95209C38.2495 3.67755 38.7388 3.67755 39.0843 3.9521L39.0865 3.95384L41.394 5.74523H35.6012L37.9021 3.95362ZM39.0866 48.3069L71.2063 73.2499H5.79079L37.902 48.3068L37.904 48.3053C38.2499 48.0311 38.7389 48.0311 39.0846 48.3053L39.0866 48.3069ZM53.1349 47.7813L73.2507 32.1614V71.04L40.9324 45.9395C39.5018 44.8249 37.4967 44.8249 36.0661 45.9395L3.74626 71.0403V32.1614L23.8281 47.7556L23.8282 47.7557C24.4832 48.2635 25.4257 48.1444 25.9336 47.4894C26.4414 46.8345 26.3222 45.8919 25.6672 45.3841L5.11017 29.4218L13.247 23.0985V32.247C13.247 33.0755 13.9187 33.747 14.747 33.747C15.5755 33.747 16.2471 33.0753 16.2471 32.247V9.74549C16.2471 9.19313 16.6947 8.74545 17.2471 8.74545H59.7499C60.3023 8.74545 60.7499 9.19313 60.7499 9.74549V32.247C60.7499 33.0755 61.4215 33.747 62.25 33.747C63.0785 33.747 63.75 33.0753 63.75 32.247V23.0985L71.8868 29.4218L51.2958 45.4112C51.2954 45.4115 51.2951 45.4118 51.2948 45.412C50.8651 45.7382 50.6435 46.27 50.7148 46.805C50.7862 47.3402 51.1397 47.7959 51.6405 47.9979C52.1408 48.1996 52.7109 48.1174 53.1336 47.7823C53.134 47.782 53.1345 47.7816 53.1349 47.7813Z" fill="transparent" stroke="white" stroke-width="3"/>
<path d="M53.4997 30.997V25.9967C53.4997 17.7119 46.7835 10.9957 38.4987 10.9957C30.2139 10.9957 23.4977 17.7119 23.4977 25.9967C23.4977 34.2816 30.2139 40.9977 38.4987 40.9977C39.1891 40.9977 39.7487 40.4381 39.7487 39.7477C39.7487 39.0573 39.1891 38.4977 38.4987 38.4977C31.5947 38.4977 25.9979 32.9009 25.9979 25.9969C25.9979 19.0929 31.5947 13.4961 38.4987 13.4961C45.4027 13.4961 50.9995 19.0929 50.9995 25.9969V30.9972C50.9995 32.378 49.8801 33.4974 48.4993 33.4974C47.1184 33.4974 45.999 32.378 45.999 30.9972V25.9969C45.999 25.3065 45.4394 24.7468 44.749 24.7468C44.0586 24.7468 43.499 25.3065 43.499 25.9969C43.499 28.7584 41.2603 30.9972 38.4987 30.9972C35.7371 30.9972 33.4984 28.7584 33.4984 25.9969C33.4984 23.2353 35.7371 20.9966 38.4987 20.9966C39.1891 20.9966 39.7487 20.437 39.7487 19.7466C39.7487 19.0561 39.1891 18.4965 38.4987 18.4965C35.1418 18.4891 32.1886 20.713 31.2686 23.9414C30.3486 27.1699 31.6857 30.6164 34.5423 32.3796C37.399 34.1428 41.0792 33.7933 43.5527 31.5237C43.8249 34.1673 46.1227 36.133 48.7766 35.9925C51.4306 35.8518 53.508 33.6547 53.4997 30.997Z" fill="white"/>
</svg>
