<svg width="240" height="42" viewBox="0 0 240 42" fill="none" xmlns="http://www.w3.org/2000/svg">
<path d="M74.0119 22.1021C74.2443 20.7468 74.3983 19.0981 74.4762 17.1559L74.5343 15.7138H79.2053V25.3465H72.9386C73.4219 24.5393 73.7799 23.4574 74.0123 22.1021H74.0119ZM70.7916 30.6247H82.3387V34.5759H88.6054V25.3465H85.9364V10.436H68.7608L68.5284 16.5792C68.3929 19.463 68.0834 21.6456 67.6002 23.1258C67.1165 24.6069 66.2846 25.3465 65.105 25.3465H64.5245V34.5759H70.7912V30.6247H70.7916Z" fill="#3E425B"/>
<path d="M40.9272 36.4821C43.1892 35.1303 45.2725 33.5496 47.1488 31.7815H44.2865V27.3058C42.5122 29.1004 40.4814 30.7038 38.2277 32.0493L38.2161 32.0561C29.3828 37.2804 18.6564 37.6782 10.491 33.1791C10.4721 31.9449 10.5551 30.7124 10.729 29.4897L8.06211 24.4845H8.01133V31.7815H5.29499C5.25712 32.8159 5.27476 33.8503 5.35007 34.8809L5.44561 36.1856L6.55848 36.8838C11.347 39.8895 17.0331 41.4762 23.0119 41.4762C23.0627 41.4762 23.1139 41.4762 23.1647 41.4758C29.3156 41.448 35.4476 39.7274 40.8984 36.4997L40.9281 36.4817L40.9272 36.4821Z" fill="#4351D8"/>
<path d="M40.9272 36.4821C43.1892 35.1303 45.2725 33.5496 47.1488 31.7815H44.2865V27.3058C42.5122 29.1004 40.4814 30.7038 38.2277 32.0493L38.2161 32.0561C29.3828 37.2804 18.6564 37.6782 10.491 33.1791C10.4721 31.9449 10.5551 30.7124 10.729 29.4897L8.06211 24.4845H8.01133V31.7815H5.29499C5.25712 32.8159 5.27476 33.8503 5.35007 34.8809L5.44561 36.1856L6.55848 36.8838C11.347 39.8895 17.0331 41.4762 23.0119 41.4762C23.0627 41.4762 23.1139 41.4762 23.1647 41.4758C29.3156 41.448 35.4476 39.7274 40.8984 36.4997L40.9281 36.4817L40.9272 36.4821Z" fill="#4351D8"/>
<path d="M22.4718 9.27938L21.3886 11.0398L20.648 12.2432C21.8715 11.2199 23.1892 10.28 24.5934 9.44109C33.437 4.20013 44.1742 3.79201 52.3396 8.28946C52.3447 8.61972 52.3413 8.94998 52.3322 9.27981H55.2272C56.0362 9.27981 56.8087 9.33671 57.5442 9.44537C57.57 8.50079 57.5498 7.55664 57.4818 6.61591L57.4676 6.41998L57.1779 5.15198L56.2656 4.57959C51.4866 1.58157 45.8121 0 39.8423 0C39.7803 0 39.7179 0 39.656 0.000427799C33.5067 0.0342239 27.3752 1.75954 21.9106 4.99797C19.8277 6.24244 17.8955 7.67942 16.1371 9.27938H22.4718Z" fill="#4351D8"/>
<path d="M22.4718 9.27938L21.3886 11.0398L20.648 12.2432C21.8715 11.2199 23.1892 10.28 24.5934 9.44109C33.437 4.20013 44.1742 3.79201 52.3396 8.28946C52.3447 8.61972 52.3413 8.94998 52.3322 9.27981H55.2272C56.0362 9.27981 56.8087 9.33671 57.5442 9.44537C57.57 8.50079 57.5498 7.55664 57.4818 6.61591L57.4676 6.41998L57.1779 5.15198L56.2656 4.57959C51.4866 1.58157 45.8121 0 39.8423 0C39.7803 0 39.7179 0 39.656 0.000427799C33.5067 0.0342239 27.3752 1.75954 21.9106 4.99797C19.8277 6.24244 17.8955 7.67942 16.1371 9.27938H22.4718Z" fill="#4351D8"/>
<path d="M6.84724 23.3282H8.76186L12.6496 30.6247H20.367L14.3615 20.242L20.3963 10.436H13.259L8.93615 17.9632H6.84724V10.436H0V30.6247H6.84724V23.3282Z" fill="#3E425B"/>
<path d="M112.752 24.273C110.282 24.273 108.274 22.276 108.274 19.8213C108.274 17.3666 110.282 15.3696 112.752 15.3696C115.221 15.3696 117.23 17.3666 117.23 19.8213C117.23 22.276 115.221 24.273 112.752 24.273ZM112.752 9.1366C106.825 9.1366 102.004 13.9297 102.004 19.8213C102.004 25.7125 106.825 30.5056 112.752 30.5056C118.678 30.5056 123.5 25.7125 123.5 19.8213C123.5 13.9297 118.678 9.1366 112.752 9.1366Z" fill="#3E425B"/>
<path d="M126.052 29.9838H132.783V15.0729H138.962V29.9838H145.693V9.79517H126.052V29.9838Z" fill="#3E425B"/>
<path d="M148.852 15.0726H154.8V29.9831H161.531V15.0726H167.478V9.79443H148.852V15.0726Z" fill="#3E425B"/>
<path d="M177.817 20.2926V9.79443H171.086V29.9831H177.555L184.518 19.514V29.9831H191.249V9.79443H184.809L177.817 20.2926H177.817Z" fill="#3E425B"/>
<path d="M225.725 21.5622L227.698 16.4864L229.672 21.5622H225.725ZM231.121 9.79517H224.392L215.889 29.1291L210.378 19.6012L216.413 9.79517H209.276L204.953 17.3227H202.864V9.79517H196.017V29.9838H202.864V22.6873H204.779L208.666 29.9838H222.477L223.84 26.4652H231.557L232.922 29.9838H240L231.121 9.79517Z" fill="#3E425B"/>
<path d="M31.8771 31.2854C37.8034 31.2854 42.625 26.4924 42.625 20.6007C42.625 14.7091 37.8034 9.91602 31.8771 9.91602V16.1486C34.3464 16.1486 36.3553 18.146 36.3553 20.6003C36.3553 23.055 34.346 25.052 31.8771 25.052C29.4078 25.052 27.3989 23.0546 27.3989 20.6003C27.3989 19.491 27.8099 18.4763 28.4873 17.696L23.8357 13.5219C22.1534 15.4085 21.1292 17.8868 21.1292 20.6003C21.1292 26.4919 25.9508 31.285 31.8771 31.285V31.2854Z" fill="#3E425B"/>
<path d="M57.5769 18.05C57.5769 18.7999 57.3449 19.3817 56.881 19.7946C56.4167 20.2082 55.7204 20.4144 54.7917 20.4144H52.2965V15.6847H54.7917C55.7204 15.6847 56.4162 15.8918 56.881 16.3046C57.3449 16.7183 57.5769 17.2996 57.5769 18.0496V18.05ZM45.4497 10.436V30.6247H52.297V25.664H55.2272C57.1031 25.664 58.7375 25.3568 60.1305 24.7412C61.5232 24.126 62.5964 23.2413 63.3508 22.088C64.1052 20.9342 64.4822 19.5888 64.4822 18.05C64.4822 16.5121 64.1052 15.1658 63.3508 14.0124C62.5964 12.8587 61.5227 11.9744 60.1305 11.3588C58.7379 10.7436 57.1031 10.436 55.2272 10.436H45.4497Z" fill="#3E425B"/>
</svg>
