<svg width="275" height="48" viewBox="0 0 275 48" fill="none" xmlns="http://www.w3.org/2000/svg">
<path d="M84.8053 25.4763C85.0715 23.9141 85.2481 22.0137 85.3373 19.775L85.4039 18.1127H90.7561V29.216H83.5755C84.1292 28.2855 84.5395 27.0384 84.8058 25.4763H84.8053ZM81.1154 35.2999H94.3464V39.8542H101.527V29.216H98.4687V12.0293H78.7884L78.5221 19.1103C78.3668 22.4343 78.0122 24.9501 77.4585 26.6563C76.9042 28.3634 75.9511 29.216 74.5995 29.216H73.9343V39.8542H81.1149V35.2999H81.1154Z" fill="#040606"/>
<path d="M46.8958 42.0515C49.4875 40.4933 51.8747 38.6713 54.0246 36.6333H50.745V31.4744C48.7119 33.543 46.3849 35.3912 43.8025 36.942L43.7892 36.9499C33.6677 42.9717 21.3771 43.4303 12.0209 38.2443C11.9992 36.8217 12.0944 35.401 12.2936 33.9917L9.23782 28.2224H9.17963V36.6333H6.06715C6.02376 37.8256 6.04397 39.018 6.13027 40.2059L6.23974 41.7098L7.51491 42.5146C13.0017 45.9791 19.5171 47.8081 26.3678 47.8081C26.426 47.8081 26.4847 47.8081 26.5429 47.8076C33.5908 47.7755 40.6171 45.7922 46.8627 42.0718L46.8968 42.0511L46.8958 42.0515Z" fill="#4351D8"/>
<path d="M46.8958 42.0515C49.4875 40.4933 51.8747 38.6713 54.0246 36.6333H50.745V31.4744C48.7119 33.543 46.3849 35.3912 43.8025 36.942L43.7892 36.9499C33.6677 42.9717 21.3771 43.4303 12.0209 38.2443C11.9992 36.8217 12.0944 35.401 12.2936 33.9917L9.23782 28.2224H9.17963V36.6333H6.06715C6.02376 37.8256 6.04397 39.018 6.13027 40.2059L6.23974 41.7098L7.51491 42.5146C13.0017 45.9791 19.5171 47.8081 26.3678 47.8081C26.426 47.8081 26.4847 47.8081 26.5429 47.8076C33.5908 47.7755 40.6171 45.7922 46.8627 42.0718L46.8968 42.0511L46.8958 42.0515Z" fill="url(#paint0_linear)"/>
<path d="M25.749 10.6959L24.5078 12.7251L23.6592 14.1122C25.0611 12.9327 26.571 11.8493 28.18 10.8823C38.3133 4.84131 50.6163 4.37089 59.9724 9.5549C59.9784 9.93558 59.9744 10.3163 59.9641 10.6964H63.2812C64.2082 10.6964 65.0933 10.762 65.9361 10.8873C65.9656 9.7985 65.9425 8.71021 65.8646 7.62587L65.8483 7.40003L65.5164 5.93847L64.471 5.27869C58.9951 1.82301 52.493 0 45.6527 0C45.5817 0 45.5102 0 45.4391 0.000493105C38.3932 0.0394484 31.3674 2.02814 25.1059 5.76095C22.7193 7.19539 20.5053 8.85174 18.4904 10.6959H25.749Z" fill="#4351D8"/>
<path d="M25.749 10.6959L24.5078 12.7251L23.6592 14.1122C25.0611 12.9327 26.571 11.8493 28.18 10.8823C38.3133 4.84131 50.6163 4.37089 59.9724 9.5549C59.9784 9.93558 59.9744 10.3163 59.9641 10.6964H63.2812C64.2082 10.6964 65.0933 10.762 65.9361 10.8873C65.9656 9.7985 65.9425 8.71021 65.8646 7.62587L65.8483 7.40003L65.5164 5.93847L64.471 5.27869C58.9951 1.82301 52.493 0 45.6527 0C45.5817 0 45.5102 0 45.4391 0.000493105C38.3932 0.0394484 31.3674 2.02814 25.1059 5.76095C22.7193 7.19539 20.5053 8.85174 18.4904 10.6959H25.749Z" fill="url(#paint1_linear)"/>
<path d="M7.8458 26.8895H10.0396L14.4943 35.2999H23.3372L16.4559 23.3323L23.3707 12.0293H15.1926L10.2393 20.7055H7.8458V12.0293H0V35.2999H7.8458V26.8895Z" fill="#040606"/>
<path d="M129.195 27.9784C126.365 27.9784 124.063 25.6766 124.063 22.8472C124.063 20.0177 126.365 17.7159 129.195 17.7159C132.024 17.7159 134.326 20.0177 134.326 22.8472C134.326 25.6766 132.024 27.9784 129.195 27.9784ZM129.195 10.5314C122.404 10.5314 116.879 16.0561 116.879 22.8472C116.879 29.6377 122.404 35.1625 129.195 35.1625C135.986 35.1625 141.51 29.6377 141.51 22.8472C141.51 16.0561 135.985 10.5314 129.195 10.5314Z" fill="#040606"/>
<path d="M144.434 34.561H152.147V17.3738H159.228V34.561H166.94V11.2904H144.434V34.561Z" fill="#040606"/>
<path d="M170.56 17.3736H177.375V34.5603H185.088V17.3736H191.902V11.2897H170.56V17.3736Z" fill="#040606"/>
<path d="M203.748 23.3905V11.2897H196.036V34.5603H203.449L211.427 22.493V34.5603H219.14V11.2897H211.76L203.749 23.3905H203.748Z" fill="#040606"/>
<path d="M258.644 24.8538L260.905 19.0031L263.165 24.8538H258.644ZM264.827 11.2904H257.115L247.373 33.5758L241.058 22.5934L247.973 11.2904H239.795L234.842 19.9671H232.448V11.2904H224.603V34.561H232.448V26.1506H234.642L239.097 34.561H254.922L256.484 30.5052H265.325L266.889 34.561H275L264.827 11.2904Z" fill="#040606"/>
<path d="M36.5258 36.0614C43.3164 36.0614 48.8411 30.5367 48.8411 23.7456C48.8411 16.9546 43.3164 11.4298 36.5258 11.4298V18.6139C39.3553 18.6139 41.6571 20.9162 41.6571 23.7451C41.6571 26.5746 39.3548 28.8764 36.5258 28.8764C33.6964 28.8764 31.3946 26.5741 31.3946 23.7451C31.3946 22.4665 31.8655 21.2969 32.6416 20.3974L27.3116 15.5862C25.3841 17.7608 24.2105 20.6174 24.2105 23.7451C24.2105 30.5362 29.7353 36.0609 36.5258 36.0609V36.0614Z" fill="#040606"/>
<path d="M65.9735 20.8056C65.9735 21.67 65.7077 22.3406 65.1762 22.8165C64.6441 23.2933 63.8463 23.531 62.7822 23.531H59.9231V18.0792H62.7822C63.8463 18.0792 64.6436 18.3179 65.1762 18.7937C65.7077 19.2706 65.9735 19.9407 65.9735 20.8051V20.8056ZM52.0778 12.0293V35.2999H59.9236V29.5819H63.2812C65.4306 29.5819 67.3034 29.2278 68.8996 28.5182C70.4953 27.8092 71.7251 26.7894 72.5895 25.46C73.4539 24.1301 73.8859 22.5793 73.8859 20.8056C73.8859 19.0329 73.4539 17.4811 72.5895 16.1517C71.7251 14.8218 70.4948 13.8025 68.8996 13.0929C67.3039 12.3838 65.4306 12.0293 63.2812 12.0293H52.0778Z" fill="#040606"/>
<defs>
<linearGradient id="paint0_linear" x1="6.04504" y1="38.0155" x2="54.0246" y2="38.0155" gradientUnits="userSpaceOnUse">
<stop stop-color="#4351D8"/>
<stop offset="1" stop-color="#6D7BFF"/>
</linearGradient>
<linearGradient id="paint1_linear" x1="18.4904" y1="7.05631" x2="65.9485" y2="7.05631" gradientUnits="userSpaceOnUse">
<stop stop-color="#4351D8"/>
<stop offset="1" stop-color="#6D7BFF"/>
</linearGradient>
</defs>
</svg>
