<svg width="31" height="33" viewBox="0 0 31 33" fill="none" xmlns="http://www.w3.org/2000/svg">
<path d="M23.4674 22.835L23.1314 22.7679L22.943 22.0143C25.1778 21.4476 26.8387 19.4249 26.8387 17.0161V15.9839H27.3548C28.7778 15.9839 29.9355 14.8262 29.9355 13.4032V6.39161C30.5858 5.32426 30.9677 4.07574 30.9677 2.7369C30.9677 2.07265 30.4274 1.53226 29.7636 1.53226C29.3868 1.53226 29.0261 1.71239 28.8 2.01432L28.2018 2.81226C27.8328 3.30361 27.2459 3.59677 26.6323 3.59677C26.2111 3.59677 25.793 3.45742 25.4555 3.20452L24.3458 2.372C22.736 1.16477 20.7417 0.5 18.7293 0.5H17.8065C15.2862 0.5 12.9234 1.78877 11.5468 3.88529C10.8232 3.70361 10.0697 3.59677 9.29032 3.59677C4.16774 3.59677 0 7.76452 0 12.8871C0 18.0097 4.16774 22.1774 9.29032 22.1774C11.3125 22.1774 13.1799 21.5209 14.7071 20.4195C15.3992 21.2055 16.3102 21.7609 17.3146 22.0164L17.1267 22.7679L16.7907 22.835C12.4444 23.7041 9.29032 27.5519 9.29032 31.9839V32.5H30.9677V31.9839C30.9677 27.5519 27.8137 23.7041 23.4674 22.835ZM19.3192 25.7103L17.4601 26.949L17.1474 23.8161L17.3791 23.7697L19.3192 25.7103ZM19.6129 26.7545L20.129 26.4102L20.6452 26.7545V29.1895L20.129 29.7057L19.6129 29.1895V26.7545ZM20.9388 25.7103L22.879 23.7702L23.1107 23.8166L22.7979 26.9495L20.9388 25.7103ZM27.3548 14.9516H26.8387V11.8548H27.3548C28.2085 11.8548 28.9032 12.5495 28.9032 13.4032C28.9032 14.2569 28.2085 14.9516 27.3548 14.9516ZM28.9032 11.3521C28.4707 11.0244 27.9381 10.8226 27.3548 10.8226H26.8387V9.14723C27.6103 8.79368 28.3107 8.3111 28.9032 7.71755V11.3521ZM17.8065 1.53226H18.7293C20.5197 1.53226 22.2937 2.12374 23.7265 3.19781L24.8361 4.03032C25.3507 4.41639 25.9892 4.62903 26.6323 4.62903C27.569 4.62903 28.4645 4.18155 29.0276 3.43161L29.6258 2.63368C29.7141 2.51394 29.9355 2.58723 29.9355 2.73639C29.9355 6.05716 27.2346 8.75806 23.9138 8.75806C22.1533 8.75806 20.432 8.42619 18.7969 7.77226L16.5012 6.85406C16.4305 6.82568 16.3561 6.81071 16.2828 6.78955C15.2883 5.65045 14.0227 4.7591 12.5858 4.21148C13.7915 2.54955 15.7337 1.53226 17.8065 1.53226ZM1.03226 12.8871C1.03226 8.33381 4.73703 4.62903 9.29032 4.62903C13.8436 4.62903 17.5484 8.33381 17.5484 12.8871C17.5484 17.4404 13.8436 21.1452 9.29032 21.1452C4.73703 21.1452 1.03226 17.4404 1.03226 12.8871ZM15.5076 19.7702C17.3894 18.069 18.5806 15.6174 18.5806 12.8871C18.5806 11.2236 18.1352 9.66439 17.3662 8.31213L18.4139 8.73123C20.1708 9.43419 22.0217 9.79032 23.9138 9.79032C24.5703 9.79032 25.2031 9.69329 25.8065 9.52503V17.0161C25.8065 19.2928 23.9541 21.1452 21.6774 21.1452H18.5806C17.4044 21.1452 16.2865 20.6373 15.5076 19.7702ZM18.5806 22.1774H21.6774C21.7585 22.1774 21.8369 22.1692 21.9169 22.1655L22.1383 23.0512L20.129 25.0605L18.1197 23.0512L18.3417 22.163C18.4217 22.1666 18.5001 22.1774 18.5806 22.1774ZM10.3386 31.4677C10.5523 28.0422 12.8831 25.0966 16.1352 24.0732L16.6039 28.7606L18.5806 27.443V29.6169L20.129 31.1653L21.6774 29.6169V27.443L23.6537 28.7606L24.1223 24.0732C27.3745 25.0966 29.7053 28.0422 29.919 31.4677H10.3386Z" fill="white"/>
<path d="M23.2256 14.4354C24.0793 14.4354 24.774 13.7407 24.774 12.887C24.774 12.0333 24.0793 11.3386 23.2256 11.3386C22.372 11.3386 21.6772 12.0333 21.6772 12.887C21.6772 13.7407 22.372 14.4354 23.2256 14.4354ZM23.2256 12.3709C23.5105 12.3709 23.7418 12.6026 23.7418 12.887C23.7418 13.1714 23.5105 13.4031 23.2256 13.4031C22.9407 13.4031 22.7095 13.1714 22.7095 12.887C22.7095 12.6026 22.9407 12.3709 23.2256 12.3709Z" fill="white"/>
<path d="M23.2257 17.0161H22.1935C22.1935 17.5854 21.7305 18.0484 21.1612 18.0484H18.0645V19.0806H21.1612C22.2998 19.0806 23.2257 18.1547 23.2257 17.0161Z" fill="white"/>
<path d="M16.4234 13.1823L16.6293 12.8871L16.4239 12.5919C14.7517 10.1913 12.0848 8.75806 9.2905 8.75806C6.49618 8.75806 3.82934 10.1913 2.1576 12.5919L1.95166 12.8871L2.15708 13.1823C3.82934 15.5828 6.49618 17.0161 9.2905 17.0161C12.0848 17.0161 14.7517 15.5828 16.4234 13.1823ZM12.3873 12.8871C12.3873 14.4757 11.1847 15.7867 9.6425 15.9622C9.52482 15.9684 9.40869 15.9839 9.2905 15.9839C9.17231 15.9839 9.05618 15.9684 8.9385 15.9622C7.39631 15.7867 6.19372 14.4757 6.19372 12.8871C6.19372 11.2984 7.39631 9.98748 8.9385 9.81199C9.05618 9.8058 9.17231 9.79031 9.2905 9.79031C9.40869 9.79031 9.52482 9.8058 9.6425 9.81199C11.1847 9.98748 12.3873 11.2984 12.3873 12.8871ZM3.21927 12.8871C3.9305 11.956 4.81772 11.2138 5.80353 10.6853C5.3994 11.3237 5.16147 12.0773 5.16147 12.8871C5.16147 13.6969 5.3994 14.4504 5.80353 15.0889C4.81824 14.5604 3.9305 13.8182 3.21927 12.8871ZM12.7775 15.0889C13.1816 14.4504 13.4195 13.6969 13.4195 12.8871C13.4195 12.0773 13.1816 11.3237 12.7775 10.6853C13.7628 11.2133 14.6505 11.956 15.3617 12.8871C14.6505 13.8182 13.7628 14.5604 12.7775 15.0889Z" fill="white"/>
</svg>
