<svg width="41" height="24" viewBox="0 0 41 24" fill="none" xmlns="http://www.w3.org/2000/svg">
<path d="M28.1696 3.82547e-07C25.0733 0.000828054 22.2509 1.17447 20.1238 3.10211C17.995 1.17695 15.1743 0.00248361 12.0813 0.00248361C12.0557 0.00248361 12.0292 0.00248361 12.0044 0.00248361C5.41775 0.0455225 0.0842285 5.40387 0.0842285 11.9996C0.0842285 18.6218 5.45913 23.9959 12.0805 23.9959C15.1735 23.9959 17.9942 22.823 20.1222 20.8962C19.6777 20.4948 19.2755 20.0503 18.8956 19.5852H21.3728C20.9995 20.0429 20.5923 20.4716 20.1544 20.8706H20.1528C20.1429 20.8813 20.1321 20.888 20.1222 20.8971C22.2518 22.8255 25.0758 24.0008 28.1738 24C34.7993 23.9975 40.1684 18.6243 40.1667 11.9996C40.1667 11.9971 40.1667 11.9954 40.1667 11.9938C40.1675 5.36911 34.7951 -0.00165496 28.1696 3.82547e-07ZM19.0329 4.34114H21.3132C21.6492 4.74835 21.9612 5.17709 22.2443 5.62569H18.1763C18.4387 5.19695 18.7267 4.7558 19.0329 4.34114ZM17.4678 6.8854H22.9362C23.1307 7.30089 23.3029 7.73045 23.4535 8.17077H16.8198C16.886 8.04662 17.1177 7.54671 17.4678 6.8854ZM4.98156 15.0553L5.70909 10.4684L4.06781 15.0553H3.188L3.07378 10.4684L2.2966 15.0553H1.06419L2.08554 8.97196H3.94946L4.01484 12.7048L5.27373 8.97196H7.29573L6.28846 15.0553H4.98156ZM9.33925 15.0454L9.38146 14.5596C9.3616 14.5621 8.9726 15.1464 8.07126 15.1464C7.59949 15.1464 6.83803 14.889 6.83803 13.77C6.83803 12.3472 7.99843 11.8754 9.10337 11.8754C9.27718 11.8754 9.65211 11.9069 9.65211 11.9069C9.65211 11.9069 9.69433 11.82 9.69433 11.5849C9.69433 11.1984 9.3467 11.1454 8.87079 11.1454C8.03236 11.1454 7.47865 11.3697 7.47865 11.3697L7.66405 10.2689C7.66405 10.2689 8.33612 9.98752 9.21097 9.98752C9.6637 9.98752 10.9656 10.0355 10.9656 11.5278L10.4641 15.0454H9.33925ZM14.0926 13.496C14.0926 15.1936 12.448 15.1207 12.1608 15.1207C11.089 15.1207 10.7579 14.9726 10.7273 14.9643L10.8978 13.8469C10.8994 13.837 11.4357 14.0415 12.0325 14.0415C12.3768 14.0415 12.8238 14.0075 12.8238 13.5962C12.8238 12.9804 11.2247 13.1277 11.2247 11.6652C11.2247 10.3749 12.1831 9.99745 13.1283 9.99745C13.8583 9.99745 14.3069 10.0976 14.3069 10.0976L14.1455 11.2249C14.1455 11.2249 13.4528 11.1678 13.2732 11.1678C12.8188 11.1678 12.5713 11.2671 12.5713 11.5849C12.5705 12.2239 14.0926 11.911 14.0926 13.496ZM16.0674 13.9413C16.1808 13.9413 16.3091 13.9024 16.3968 13.9024L16.2371 14.9875C16.1088 15.0231 15.7454 15.1522 15.2795 15.1555C14.6844 15.1605 14.2614 14.8277 14.2614 14.0729C14.2614 13.5664 14.9873 9.39242 15.0154 9.36511H16.2925L16.1626 10.1117H16.7999L16.6368 11.3143H15.9606L15.6014 13.5299C15.5741 13.7062 15.6229 13.9413 16.0674 13.9413ZM18.8765 9.97096C20.2786 9.97096 20.6982 10.9973 20.6982 11.839C20.6982 12.1759 20.5294 13.0036 20.5294 13.0036H17.9338C17.9338 13.0036 17.6938 14.0257 19.0652 14.0257C19.7083 14.0257 20.4218 13.7112 20.4218 13.7112L20.1967 14.942C20.1967 14.942 19.7845 15.1522 18.8475 15.1522C17.832 15.1522 16.641 14.7226 16.641 12.9183C16.6418 11.3548 17.592 9.97096 18.8765 9.97096ZM22.2592 18.3495H18.0033C17.7443 17.9356 17.5026 17.5111 17.2948 17.0649H22.9586C22.75 17.5086 22.5166 17.9373 22.2592 18.3495ZM21.9737 15.0645H20.6626L21.4597 10.1133H22.649L22.5348 10.8309C22.5348 10.8309 22.9586 10.0504 23.5305 10.0504C23.6969 10.0504 23.7772 10.067 23.7772 10.067C23.6075 10.4129 23.4577 10.7299 23.3021 11.5485C22.4148 11.234 22.3469 12.9498 21.9737 15.0645ZM26.9687 14.9875C26.9687 14.9875 26.2817 15.1629 25.8513 15.1629C24.3267 15.1629 23.5529 14.111 23.5529 12.5177C23.5529 10.115 24.9872 8.8354 26.4613 8.8354C27.1276 8.8354 27.8998 9.14826 27.8998 9.14826L27.6912 10.5015C27.6912 10.5015 27.169 10.1365 26.5192 10.1365C25.6502 10.1365 24.8705 10.9658 24.8705 12.473C24.8705 13.2154 25.2339 13.9074 26.141 13.9074C26.5722 13.9074 27.1971 13.5937 27.1971 13.5937L26.9687 14.9875ZM30.0435 15.0479L30.0865 14.5587C30.0658 14.5612 29.6768 15.1456 28.7763 15.1456C28.3045 15.1456 27.5431 14.8882 27.5431 13.7691C27.5431 12.3464 28.7035 11.8746 29.8076 11.8746C29.9814 11.8746 30.3572 11.9061 30.3572 11.9061C30.3572 11.9061 30.4002 11.82 30.4002 11.5849C30.4002 11.1984 30.0526 11.1454 29.5758 11.1454C28.7374 11.1454 28.1845 11.3697 28.1845 11.3697L28.3699 10.2689C28.3699 10.2689 29.042 9.98752 29.9177 9.98752C30.3696 9.98752 31.6723 10.0355 31.6715 11.5278L31.1699 15.0454C31.1691 15.0479 30.0435 15.0479 30.0435 15.0479ZM32.6978 15.0645H31.3868L32.1838 10.1133H33.374L33.2598 10.8309C33.2598 10.8309 33.6844 10.0504 34.2563 10.0504C34.4227 10.0504 34.5021 10.067 34.5021 10.067C34.3333 10.4129 34.1818 10.7299 34.027 11.5485C33.139 11.234 33.0711 12.9498 32.6978 15.0645ZM36.6119 15.0512L36.6673 14.5952C36.6673 14.5952 36.2436 15.1298 35.4771 15.1298C34.4152 15.1298 33.8946 14.1044 33.8946 13.0565C33.8946 11.4359 34.8696 10.0231 36.0399 10.0231C36.7931 10.0248 37.274 10.6894 37.274 10.6894L37.5504 8.98024L38.8309 8.97776L37.8542 15.0512H36.6119ZM39.1379 14.8799C39.104 14.9411 39.056 14.9883 38.9947 15.0247C38.9343 15.0587 38.8698 15.076 38.8019 15.076C38.7357 15.076 38.6719 15.0587 38.6107 15.0247C38.5494 14.9883 38.5014 14.9411 38.4675 14.8799C38.4327 14.8178 38.4162 14.7549 38.4162 14.6879C38.4162 14.62 38.4336 14.5554 38.4675 14.4942C38.5014 14.4329 38.5519 14.3833 38.6124 14.3502C38.6753 14.3162 38.7373 14.2989 38.8019 14.2989C38.8681 14.2989 38.931 14.3162 38.9922 14.3502C39.0552 14.3841 39.1032 14.4313 39.1379 14.4942C39.1735 14.5563 39.1892 14.6208 39.1892 14.6879C39.1892 14.7549 39.1727 14.8186 39.1379 14.8799Z" fill="#73778D"/>
<path d="M39.0358 18.541C39.0275 18.5352 39.0201 18.5261 39.0068 18.5211C38.9936 18.5162 38.9729 18.5137 38.9406 18.5137H38.8628V18.6378H38.9456C38.9845 18.6378 39.0101 18.6345 39.025 18.6204C39.0391 18.6089 39.0457 18.5948 39.0457 18.5749C39.0457 18.5617 39.0424 18.5526 39.0358 18.541Z" fill="#73778D"/>
<path d="M39.3025 18.4663C39.2669 18.4018 39.2181 18.3562 39.156 18.3223C39.0939 18.2884 39.031 18.271 38.9665 18.271C38.9002 18.271 38.8373 18.2884 38.7761 18.3223C38.7148 18.3562 38.6644 18.4034 38.6304 18.4663C38.5948 18.5276 38.5791 18.5921 38.5791 18.6583C38.5791 18.7246 38.5965 18.7899 38.6304 18.8504C38.666 18.9116 38.714 18.9613 38.7744 18.9952C38.8357 19.0291 38.9002 19.0465 38.9681 19.0465C39.0343 19.0465 39.0989 19.0291 39.1593 18.9952C39.2197 18.9613 39.2686 18.9116 39.3025 18.8504C39.3372 18.7899 39.3538 18.7254 39.3538 18.6583C39.3538 18.5913 39.3364 18.5267 39.3025 18.4663ZM39.0641 18.8735L39.0277 18.8082C38.9987 18.7568 38.9747 18.7229 38.9565 18.7097C38.9449 18.7014 38.9267 18.6948 38.9036 18.6948H38.8646V18.8727H38.7968V18.4547H38.9408C38.9905 18.4547 39.026 18.4589 39.0459 18.4672C39.0683 18.4754 39.0873 18.487 39.0989 18.5077C39.1121 18.5267 39.1179 18.5474 39.1179 18.569C39.1179 18.5996 39.1063 18.6252 39.0856 18.6492C39.0641 18.6708 39.0343 18.6848 38.9987 18.6873C39.0136 18.6923 39.0252 18.7006 39.0343 18.7097C39.0517 18.7262 39.0716 18.7535 39.0964 18.7916L39.1477 18.8735H39.0641Z" fill="#73778D"/>
<path d="M9.20669 12.8247C8.27059 12.8247 8.08105 13.2452 8.08105 13.5953C8.08105 13.7757 8.18451 14.077 8.58097 14.077C9.34988 14.077 9.50962 13.0689 9.48479 12.8545C9.44837 12.8471 9.42519 12.8255 9.20669 12.8247Z" fill="#73778D"/>
<path d="M18.8814 11.1143C18.1854 11.1143 18.0513 11.9063 18.0513 11.9899H19.4691C19.4691 11.9262 19.6023 11.1143 18.8814 11.1143Z" fill="#73778D"/>
<path d="M36.261 11.252C35.699 11.252 35.2545 11.9042 35.2554 12.8949C35.2554 13.4991 35.4706 13.8864 35.9308 13.8864C36.6227 13.8864 36.9562 12.9834 36.9562 12.3105C36.9562 11.5681 36.7204 11.252 36.261 11.252Z" fill="#73778D"/>
<path d="M39.081 14.5273C39.052 14.476 39.0114 14.4363 38.9601 14.4073C38.9088 14.3783 38.8567 14.3643 38.802 14.3643C38.7491 14.3643 38.6953 14.3792 38.644 14.4073C38.5926 14.4338 38.5521 14.4752 38.5231 14.5273C38.4941 14.5795 38.4792 14.6349 38.4792 14.6887C38.4792 14.7442 38.4941 14.7988 38.5215 14.8493C38.5521 14.9006 38.591 14.9395 38.6423 14.9701C38.6936 14.9983 38.7466 15.0148 38.802 15.0148C38.8575 15.0148 38.9121 14.9983 38.9618 14.9701C39.0131 14.9411 39.0528 14.9014 39.0826 14.8493C39.1116 14.798 39.1248 14.7442 39.1248 14.6887C39.1248 14.6341 39.1099 14.5795 39.081 14.5273ZM38.9014 14.9014L38.8641 14.8369C38.8351 14.7847 38.812 14.7516 38.7946 14.7392C38.7805 14.7284 38.764 14.7235 38.74 14.7235H38.7019V14.9006H38.6324V14.4834H38.7772C38.826 14.4834 38.8625 14.4876 38.8832 14.4967C38.9038 14.5041 38.9221 14.5182 38.9361 14.5364C38.9502 14.5546 38.9552 14.5753 38.9552 14.5977C38.9552 14.6283 38.9436 14.6539 38.9221 14.6771C38.9005 14.7011 38.8707 14.7111 38.836 14.7152C38.8525 14.7218 38.8633 14.7293 38.8716 14.7367C38.8889 14.7541 38.9088 14.7789 38.9328 14.8187L38.9841 14.9014H38.9014Z" fill="#73778D"/>
<path d="M29.9123 12.8247C28.9762 12.8247 28.7866 13.2452 28.7866 13.5953C28.7866 13.7757 28.8893 14.077 29.2865 14.077C30.0554 14.077 30.2144 13.0689 30.1904 12.8545C30.1531 12.8471 30.1299 12.8255 29.9123 12.8247Z" fill="#73778D"/>
<path d="M38.8725 14.5685C38.8659 14.5602 38.8568 14.5536 38.8444 14.5478C38.8303 14.5437 38.8096 14.5396 38.7765 14.5396V14.5404H38.7012V14.6662H38.7831C38.822 14.6662 38.8477 14.6612 38.8634 14.6488C38.8758 14.6364 38.8833 14.6207 38.8833 14.6025C38.8833 14.5884 38.8799 14.5801 38.8725 14.5685Z" fill="#73778D"/>
</svg>
