<svg width="85" height="24" viewBox="0 0 85 24" fill="none" xmlns="http://www.w3.org/2000/svg">
<path fill-rule="evenodd" clip-rule="evenodd" d="M23.0135 0.0104857V4.56806e-07H30.5581V23.9998H23.0135V9.75642H22.3845L17.9815 23.9998H12.7433L8.34029 9.74594H7.71129V23.9999H0.166748V4.56806e-07H7.70779C7.70779 4.56806e-07 11.0205 -0.0104834 11.9011 3.14501C12.7188 6.09084 15.0462 14.2539 15.0462 14.2539H15.6752C15.7381 14.0337 18.013 6.04891 18.8202 3.1555C19.699 0.00638454 22.9897 0.0104562 23.0134 0.0104855L23.0135 0.0104857ZM47.3245 2.51612C48.3623 0.199184 50.5743 4.56806e-07 50.5743 4.56806e-07H57.6996V23.9999H50.1551V9.74604H49.5261L44.2879 21.4839C43.2499 23.7903 40.9331 23.9999 40.9331 23.9999H33.8079V4.56806e-07H41.3524V14.2539H41.9814L47.3245 2.51612ZM61.0542 23.9999V10.9027H84.4742C83.3524 14.0757 80.3367 16.3506 76.7724 16.3506H68.5987V23.9999H61.0542ZM59.995 4.56806e-07H76.7754C81.2902 4.56806e-07 84.9489 3.6587 84.9488 8.17365C84.9488 8.75023 84.8964 9.30585 84.7811 9.85099H71.8481C70.7823 9.8512 69.7213 9.71016 68.6926 9.43155C64.2616 8.23644 60.8337 4.57075 59.995 4.56806e-07Z" fill="#73778D"/>
</svg>
