<svg width="19" height="18" viewBox="0 0 19 18" fill="none" xmlns="http://www.w3.org/2000/svg">
<path d="M17.6356 10.257C17.4507 10.2108 17.2658 10.257 17.104 10.3726C16.503 10.881 15.8096 11.2971 15.0469 11.5745C14.3304 11.8518 13.5445 11.9905 12.7124 11.9905C10.8402 11.9905 9.12982 11.2278 7.90481 10.0027C6.6798 8.77772 5.91705 7.06733 5.91705 5.19513C5.91705 4.40928 6.05573 3.64653 6.28687 2.95313C6.54111 2.21349 6.91093 1.5432 7.39631 0.965367C7.60433 0.711119 7.55811 0.341303 7.30386 0.133282C7.14206 0.0177143 6.95716 -0.0285126 6.77225 0.0177143C4.8076 0.549324 3.09721 1.72811 1.87219 3.29983C0.693404 4.84843 0 6.76685 0 8.84706C0 11.3664 1.01699 13.6547 2.68116 15.3188C4.34533 16.983 6.61045 18 9.15294 18C11.2794 18 13.244 17.2604 14.8157 16.0354C16.4106 14.7872 17.5662 13.0075 18.0516 10.9735C18.1441 10.6499 17.9592 10.3263 17.6356 10.257Z" fill="white"/>
</svg>
