<svg width="50" height="50" viewBox="0 0 50 50" fill="none" xmlns="http://www.w3.org/2000/svg">
<path d="M47.5 41.5C42.5264 38.8625 38.7113 37.3836 35.3152 36.8166L35.6667 36.3334C35.8334 36.1667 35.9167 35.9167 35.8334 35.6667L35.0524 32.543C35.3355 32.1429 35.6024 31.7292 35.8525 31.3039C38.958 30.247 40.5284 28.4604 40.7923 25.8299C42.1564 25.7588 43.3333 24.5413 43.3333 23.1667V16.9167C43.3333 15.5483 42.2447 14.3357 40.8187 14.2546C40.6352 9.44053 38.5125 0 25 0C11.4872 0 9.36475 9.44092 9.18125 14.2549C7.82842 14.3348 6.6667 15.4706 6.6667 16.9166V23.1666C6.6667 24.5833 7.9167 25.8333 9.4167 25.8333H10.6667C11.1261 25.8333 11.5676 25.7013 11.9521 25.4753C12.4247 27.9836 13.4676 30.4507 14.9477 32.5429L14.1667 35.6666C14.1667 35.8333 14.1667 36.0833 14.3334 36.3333L14.6849 36.8165C11.2888 37.3836 7.47373 38.8624 2.5001 41.4999C0.916699 42.25 0 43.8333 0 45.5833V49.1666C0 49.6667 0.333301 50 0.833301 50H20.8333H21.1666H28.8333H29.1666H49.1666C49.6666 50 49.9999 49.6667 49.9999 49.1667V45.5834C50 43.9167 49 42.3333 47.5 41.5ZM25.0046 39.5938L27 44.1667H22.9722L25.0046 39.5938ZM22.3667 45.8333H27.6301L28.1179 48.3333H21.8666L22.3667 45.8333ZM33.75 34.1667L34.0833 35.6667L33.232 36.8355C33.1777 36.88 33.1274 36.9338 33.0833 37L29.617 41.7995L28.5172 43.3097L26.2706 38.2549C29.0106 37.9207 31.4507 36.5242 33.407 34.5232C33.5227 34.4066 33.6371 34.2882 33.75 34.1667ZM37.004 28.9828C37.474 27.8392 37.8283 26.6504 38.0523 25.4521C38.3696 25.6443 38.7309 25.7728 39.1203 25.8163C38.9759 26.9942 38.4525 28.1063 37.004 28.9828ZM41.5833 16.8333V23.0833C41.5833 23.5833 41.1666 24.0833 40.5833 24.0833H39.3333C38.8333 24.0833 38.3333 23.6666 38.3333 23.0833V22.5V16.8333C38.3333 16.3333 38.75 15.8333 39.3333 15.8333H40.5833C41.0833 15.8333 41.5833 16.25 41.5833 16.8333ZM25 1.6667C30.1364 1.6667 38.7811 3.34346 39.1527 14.2636C38.8035 14.2994 38.469 14.4056 38.1665 14.5687C37.1524 8.22285 31.6198 3.3333 25 3.3333C18.3811 3.3333 12.849 8.22148 11.8339 14.5659C11.5358 14.405 11.203 14.2986 10.8472 14.2633C11.219 3.34346 19.8637 1.6667 25 1.6667ZM11.5833 23.0833C11.5833 23.5833 11.1666 24.0833 10.5833 24.0833H9.3333C8.8333 24.0833 8.3333 23.6666 8.3333 23.0833V16.8333C8.3333 16.3333 8.75 15.8333 9.3333 15.8333H10.5833C11.0833 15.8333 11.5833 16.25 11.5833 16.8333V23.0833ZM13.3333 16.6667C13.3333 10.25 18.5833 5 25 5C31.4167 5 36.6667 10.25 36.6667 16.6667V22.5C36.6667 25.257 35.9489 27.7812 34.7853 29.9108C32.7962 30.4878 29.9348 30.8333 25.8334 30.8333C25.3334 30.8333 25.0001 31.1666 25.0001 31.6666C25.0001 32.1666 25.3334 32.4999 25.8334 32.4999C28.8358 32.4999 31.3469 32.3155 33.4032 31.9301C33.3522 31.9812 33.3011 32.0322 33.25 32.0833C32.8308 32.6423 32.3883 33.152 31.926 33.6115C29.9638 35.4396 27.6234 36.5469 25.3682 36.6565C25.2547 36.6078 25.1274 36.5833 25 36.5833C24.8719 36.5833 24.7564 36.6084 24.6529 36.6576C23.2725 36.5943 21.8597 36.1567 20.5205 35.4083C19.1638 34.6288 17.8875 33.5051 16.75 32.0833C16.6667 32 16.5833 31.9166 16.5 31.8333L16.4514 31.8171C14.5799 29.3626 13.3333 26.1336 13.3333 22.5V16.6667ZM23.7293 38.2549L21.4827 43.3097L20.3829 41.7995L16.9166 37C16.89 36.9734 16.8607 36.9472 16.8303 36.9213L15.9166 35.6667L16.2499 34.1667C16.3627 34.2882 16.4771 34.4065 16.5926 34.523C18.549 36.524 20.9893 37.9206 23.7293 38.2549ZM1.6667 45.5833C1.6667 44.5 2.25 43.5 3.25 43C8.56182 40.1781 12.3855 38.7618 15.7918 38.3388L20.7647 45.1765L20.1333 48.3333H1.6667V45.5833ZM48.3333 48.3333H29.8667L29.2354 45.1765L34.2621 38.2646C37.6563 38.7769 41.5487 40.1921 46.7501 42.9166C47.7501 43.4999 48.3334 44.4999 48.3334 45.5833V48.3333H48.3333Z" fill="#4351D8"/>
</svg>
