<svg width="85" height="85" viewBox="0 0 85 85" fill="none" xmlns="http://www.w3.org/2000/svg">
<path d="M61.2201 55.0038L49.4586 51.0833V49.3349H46.7246V51.9007L44.6838 60.0616L39.1625 53.4358H35.1477L29.6265 60.0616L27.587 51.9007V49.3349H24.853V51.0833L13.0915 55.0038C7.7945 56.7699 3.93279 61.2891 3.01418 66.7967L0 84.8763H74.3102L71.2961 66.7967C70.3802 61.2891 66.5185 56.7699 61.2201 55.0038ZM38.5228 82.1424V60.2707H35.7888V82.1424H15.4277L16.6443 69.9763L13.924 69.7042L12.6801 82.1437H3.2288L5.71123 67.2464C6.4617 62.7409 9.62215 59.0432 13.9568 57.5969L22.1191 54.8766V67.2997C19.7679 67.9108 18.0181 70.0323 18.0181 72.5735C18.0181 75.5891 20.4705 78.0414 23.486 78.0414C26.5016 78.0414 28.9539 75.5891 28.9539 72.5735C28.9539 70.0323 27.2042 67.9108 24.853 67.2997V53.9649L25.2522 53.8323L28.2814 65.9478L36.4286 56.1698H37.8817L46.0302 65.9478L49.0594 53.8323L49.4586 53.9649V64.8938L44.2791 67.4843C42.4146 68.4152 41.2567 70.2893 41.2567 72.3739V73.9405C41.2567 76.9561 43.7091 79.4084 46.7246 79.4084H48.0916V76.6745H46.7246C45.2169 76.6745 43.9907 75.4483 43.9907 73.9405V72.3739C43.9907 71.3309 44.5689 70.3946 45.5012 69.9284L50.8256 67.2669L56.15 69.9284C57.0822 70.3946 57.6605 71.3323 57.6605 72.3739V73.9405C57.6605 75.4483 56.4343 76.6745 54.9265 76.6745H53.5595V79.4084H54.9265C56.288 79.4084 57.5183 78.8903 58.4766 78.0647L58.8839 82.1424H38.5228ZM23.486 69.8396C24.9938 69.8396 26.22 71.0657 26.22 72.5735C26.22 74.0813 24.9938 75.3075 23.486 75.3075C21.9783 75.3075 20.7521 74.0813 20.7521 72.5735C20.7521 71.0657 21.9783 69.8396 23.486 69.8396ZM61.6315 82.1424L60.3876 69.7029L59.726 69.7685C59.2038 68.8034 58.4 67.9969 57.372 67.4829L52.1926 64.8938V54.8766L60.3561 57.5969C64.6908 59.0432 67.8499 62.7409 68.6018 67.2464L71.0828 82.1424H61.6315Z" fill="#4351D8"/>
<path d="M19.9893 36.9555C20.6865 39.3546 21.9742 41.5541 23.7895 43.3694L29.1207 48.6992C30.4112 49.9897 32.1281 50.7019 33.953 50.7019H40.36C42.1849 50.7019 43.9018 49.9897 45.1923 48.6992L50.5235 43.3694C52.3388 41.5541 53.6265 39.3546 54.3237 36.9555C57.7288 36.5701 60.3944 33.7049 60.3944 30.1972C60.3944 27.954 59.2926 25.976 57.6181 24.7293H57.6605V20.6284C57.6605 9.32211 48.4621 0.123718 37.1558 0.123718C25.8495 0.123718 16.6512 9.32211 16.6512 20.6284V24.7293H16.6935C15.019 25.976 13.9172 27.954 13.9172 30.1972C13.9172 33.7049 16.5828 36.5701 19.9893 36.9555ZM52.1926 32.7357C52.1926 36.0233 50.9131 39.1113 48.5892 41.4365L43.258 46.7663C42.4952 47.5305 41.4386 47.9679 40.3586 47.9679H33.9516C32.8717 47.9679 31.8164 47.5305 31.0523 46.7663L25.7211 41.4365C23.3972 39.1126 22.1177 36.0233 22.1177 32.7371V26.0963H32.2265C35.4211 26.0963 38.5242 25.2392 41.2554 23.6111C43.988 25.2392 47.091 26.0963 50.2856 26.0963H52.1926V32.7357ZM57.6605 30.1972C57.6605 32.0003 56.4821 33.519 54.8623 34.0658C54.9005 33.6256 54.9265 33.1841 54.9265 32.7357V26.3478C56.5136 26.9137 57.6605 28.4174 57.6605 30.1972ZM19.3851 20.6284C19.3851 10.8299 27.3573 2.85767 37.1558 2.85767C46.9543 2.85767 54.9265 10.8299 54.9265 20.6284V23.5004C54.485 23.4102 54.027 23.3623 53.5595 23.3623H50.2856C47.333 23.3623 44.4732 22.4957 42.0141 20.858L41.2567 20.3522L40.4981 20.858C38.0403 22.4957 35.1805 23.3623 32.2279 23.3623H20.7521C20.2846 23.3623 19.8266 23.4102 19.3851 23.5004V20.6284ZM19.3851 26.3478V32.7357C19.3851 33.1827 19.4111 33.6256 19.4494 34.0658C17.8295 33.519 16.6512 32.0003 16.6512 30.1972C16.6512 28.4174 17.7981 26.9137 19.3851 26.3478Z" fill="#4351D8"/>
<path d="M50.8256 0.123718V2.85767H82.266V57.5368H71.3302V60.2707H85V0.123718H50.8256Z" fill="#4351D8"/>
<path d="M60.3944 21.9954H69.9633V19.2614H63.1284V16.5275H69.9633V13.7935H63.1284V11.0595H69.9633V8.32559H60.3944V21.9954Z" fill="#4351D8"/>
<path d="M79.5321 35.6651V32.9312H69.9633V46.6009H79.5321V43.867H72.6972V41.133H79.5321V38.3991H72.6972V35.6651H79.5321Z" fill="#4351D8"/>
<path d="M57.6605 43.867H52.1926V46.6009H60.3944V38.3991H57.6605V43.867Z" fill="#4351D8"/>
</svg>
