<svg width="85" height="85" viewBox="0 0 85 85" fill="none" xmlns="http://www.w3.org/2000/svg">
<path d="M76.742 66.8676C75.8221 61.3439 71.9491 56.8115 66.6352 55.0402L54.8394 51.1083V49.3548H52.0975V51.9322C51.874 52.7576 50.2371 57.5806 42.5007 57.5806C34.7643 57.5806 33.1274 52.7576 32.9039 51.9322V49.3548H30.162V51.1083L18.3662 55.0402C13.0537 56.8115 9.18069 61.3439 8.2594 66.8676L5.23642 85H79.7636L76.742 66.8676ZM53.8962 54.5796C54.4871 55.4611 54.8394 56.4825 54.8394 57.5793C54.8394 60.6036 52.3484 63.0645 49.287 63.0645C47.2305 63.0645 45.3976 61.9307 44.4392 60.2266C50.052 59.6631 52.6993 56.7032 53.8962 54.5796ZM31.1052 54.5796C32.3021 56.7032 34.9494 59.6631 40.5621 60.2266C39.6038 61.9307 37.7709 63.0645 35.7144 63.0645C32.653 63.0645 30.162 60.6036 30.162 57.5793C30.162 56.4839 30.5143 55.4611 31.1052 54.5796ZM67.0479 82.2581L65.8003 69.7823L63.0721 70.0551L64.2922 82.2567H20.7092L21.9293 70.0551L19.2011 69.7823L17.9535 82.2581H8.47465L10.9643 67.32C11.717 62.7999 14.8867 59.0928 19.234 57.6423L27.9218 54.7455C27.5928 55.638 27.42 56.5922 27.42 57.5793C27.42 62.1158 31.1409 65.8064 35.7144 65.8064C38.4865 65.8064 40.983 64.4122 42.5007 62.2611C44.017 64.4122 46.5149 65.8064 49.287 65.8064C53.8605 65.8064 57.5813 62.1158 57.5813 57.5793C57.5813 56.5935 57.4086 55.638 57.0809 54.7468L65.7688 57.6437C70.1161 59.0928 73.2844 62.8013 74.0384 67.3214L76.5267 82.2581H67.0479Z" fill="#4351D8"/>
<path d="M20.6009 34.2742H20.5652V52.0968H23.3071V36.4348C23.9227 36.7049 24.5904 36.8598 25.2841 36.938C25.9833 39.344 27.2747 41.5499 29.0954 43.3706L34.4421 48.7173C35.7363 50.0129 37.4569 50.7258 39.2885 50.7258H45.7142C47.5445 50.7258 49.2664 50.0129 50.5606 48.7187L55.9074 43.3719C57.728 41.5513 59.0195 39.344 59.7187 36.9394C60.4124 36.8612 61.08 36.7063 61.6956 36.4362V52.0968H64.4375V34.2742H64.4019C65.2711 33.1253 65.8071 31.7105 65.8071 30.1613C65.8071 28.6121 65.2711 27.1973 64.4005 26.0484H64.4362V21.9355C64.4362 9.84081 54.5954 0 42.5007 0C30.406 0 20.5652 9.84081 20.5652 21.9355V26.0484H20.6009C19.7303 27.1973 19.1942 28.6121 19.1942 30.1613C19.1942 31.7105 19.7303 33.1253 20.6009 34.2742ZM53.9675 41.4334L48.6207 46.7802C47.8557 47.5452 46.7959 47.9839 45.7129 47.9839H39.2871C38.2041 47.9839 37.1457 47.5452 36.3793 46.7802L31.0325 41.4334C28.7499 39.1494 27.479 36.125 27.4296 32.9032H28.9857C29.5985 35.2613 31.7276 37.0161 34.2749 37.0161C36.8221 37.0161 38.9513 35.2613 39.5641 32.9032H45.4373C46.0501 35.2613 48.1792 37.0161 50.7265 37.0161C53.2738 37.0161 55.4029 35.2613 56.0157 32.9032H57.5717C57.5224 36.125 56.2515 39.1494 53.9675 41.4334ZM31.533 31.5323C31.533 30.0201 32.7627 28.7903 34.2749 28.7903C35.7871 28.7903 37.0168 30.0201 37.0168 31.5323C37.0168 33.0444 35.7871 34.2742 34.2749 34.2742C32.7627 34.2742 31.533 33.0444 31.533 31.5323ZM47.9846 31.5323C47.9846 30.0201 49.2143 28.7903 50.7265 28.7903C52.2387 28.7903 53.4684 30.0201 53.4684 31.5323C53.4684 33.0444 52.2387 34.2742 50.7265 34.2742C49.2143 34.2742 47.9846 33.0444 47.9846 31.5323ZM57.5813 30.1613H56.0157C55.4029 27.8032 53.2738 26.0484 50.7265 26.0484C48.1792 26.0484 46.0501 27.8032 45.4373 30.1613H39.5641C38.9513 27.8032 36.8221 26.0484 34.2749 26.0484C31.7276 26.0484 29.5985 27.8032 28.9857 30.1613H27.42V25.9867C33.0205 25.6796 38.2767 23.5203 42.498 19.7159C46.6767 23.5025 51.9535 25.6782 57.5813 25.9867V30.1613ZM63.0652 30.1613C63.0652 31.9696 61.8834 33.4927 60.2588 34.0411C60.2972 33.601 60.3233 33.1569 60.3233 32.7085V26.3006C61.915 26.8682 63.0652 28.3763 63.0652 30.1613ZM23.3071 21.9355C23.3071 11.3516 31.9168 2.74194 42.5007 2.74194C53.0846 2.74194 61.6942 11.3516 61.6942 21.9355V23.8877C60.8525 23.5176 59.9284 23.3065 58.9523 23.3065C53.1298 23.3065 47.6555 21.0389 43.47 16.8533L42.4321 15.9526L41.4629 16.9219C37.3459 21.0389 31.8716 23.3065 26.0491 23.3065C25.073 23.3065 24.1489 23.5176 23.3071 23.8877V21.9355ZM24.6781 26.3006V32.7085C24.6781 33.1569 24.7042 33.601 24.7426 34.0425C23.118 33.4927 21.9362 31.9696 21.9362 30.1613C21.9362 28.3763 23.0864 26.8682 24.6781 26.3006Z" fill="#4351D8"/>
</svg>
