<svg width="34" height="34" viewBox="0 0 34 34" fill="none" xmlns="http://www.w3.org/2000/svg">
<g clip-path="url(#clip0)">
<path d="M33.9997 5.7164C33.9997 5.71275 33.9993 5.70911 33.9991 5.7054C33.9988 5.69088 33.9979 5.67655 33.9962 5.66236C33.9956 5.65715 33.9946 5.65195 33.9938 5.64674C33.9919 5.63365 33.9894 5.62076 33.9865 5.60813C33.9853 5.60312 33.984 5.59817 33.9826 5.59316C33.9788 5.57942 33.9745 5.56594 33.9696 5.55266C33.9687 5.55012 33.9681 5.54752 33.9671 5.54504L32.6426 2.1543C32.509 1.81263 32.1857 1.5918 31.8188 1.5918H29.4071C29.1442 1.5918 28.9311 1.80488 28.9311 2.06777C28.9311 2.33066 29.1442 2.54375 29.4071 2.54375H31.7727L32.8268 5.24225H22.8611L22.2367 2.54375H25.9172C26.1801 2.54375 26.3932 2.33066 26.3932 2.06777C26.3932 1.80488 26.1801 1.5918 25.9172 1.5918H21.638H16.842H6.66105C6.29412 1.5918 5.97082 1.81263 5.83729 2.15443L4.51275 5.54504C4.51177 5.54758 4.51125 5.55019 4.51027 5.55266C4.50533 5.56588 4.50103 5.57935 4.49725 5.59316C4.49589 5.59817 4.49458 5.60312 4.49341 5.60813C4.49042 5.62083 4.48801 5.63372 4.48605 5.64674C4.48527 5.65195 4.4843 5.65715 4.48365 5.66236C4.48202 5.67655 4.48111 5.69088 4.48072 5.7054C4.48065 5.70904 4.4802 5.71269 4.48013 5.7164C4.48013 5.71698 4.48007 5.71757 4.48007 5.71816V12.711C4.48007 12.9739 4.69315 13.187 4.95604 13.187C5.21893 13.187 5.43202 12.9739 5.43202 12.711V6.1942H15.5213V13.4291C15.5213 13.712 15.688 13.9698 15.946 14.0859C16.0405 14.1284 16.141 14.1492 16.241 14.1492C16.4139 14.1492 16.5849 14.0871 16.719 13.9682L19.2399 11.7349L21.7608 13.9681C21.9725 14.1558 22.276 14.202 22.534 14.0859C22.7919 13.9698 22.9586 13.712 22.9586 13.4291V6.1942H33.0478V27.5433C33.0478 27.8848 32.7699 28.1628 32.4284 28.1628H23.701C23.701 28.1574 23.7003 28.152 23.7003 28.1466C23.6998 28.1039 23.6982 28.0612 23.6945 28.0189C24.514 28.2361 25.3896 27.815 25.718 27.0096C25.8907 26.586 25.8882 26.1205 25.7108 25.6989C25.694 25.6592 25.6756 25.6207 25.6562 25.5827C25.6526 25.5757 25.6492 25.5687 25.6456 25.5618C25.6265 25.5256 25.6062 25.4903 25.5848 25.4558C25.5806 25.4491 25.5763 25.4426 25.5721 25.436C25.5494 25.4006 25.5259 25.3659 25.5009 25.3325C25.5004 25.3319 25.4999 25.3313 25.4994 25.3307C25.4746 25.2977 25.4483 25.2659 25.4211 25.2348C25.4162 25.2292 25.4113 25.2235 25.4063 25.2178C25.3794 25.1878 25.3514 25.1589 25.3225 25.1309C25.3169 25.1255 25.3111 25.1202 25.3054 25.1149C25.2751 25.0864 25.2442 25.0587 25.2119 25.0326C25.2108 25.0318 25.2096 25.0309 25.2085 25.0301C25.1768 25.0045 25.1438 24.9803 25.1101 24.957C25.104 24.9528 25.0981 24.9485 25.0919 24.9443C25.0582 24.9216 25.0237 24.9002 24.9883 24.8798C24.9854 24.8781 24.9827 24.8762 24.9797 24.8745C25.1809 24.7004 25.3397 24.4801 25.443 24.2266C25.6158 23.8029 25.6132 23.3375 25.4358 22.9158C25.2806 22.5468 25.0078 22.2501 24.6583 22.066C24.6083 22.0397 24.5568 22.0156 24.5039 21.9941L17.0959 18.9735L20.5442 17.9062C21.3646 17.6522 21.8266 16.7772 21.5742 15.9558C21.48 15.6491 21.2932 15.3905 21.0519 15.2015C20.6929 14.9202 20.213 14.7932 19.7371 14.8931C19.7348 14.8937 19.7326 14.894 19.7303 14.8946C19.7039 14.9006 17.0604 15.495 14.2996 16.0333C14.1771 16.0572 14.0578 16.0802 13.9401 16.1029C13.846 16.121 13.7532 16.1388 13.6621 16.1562C13.6359 16.1612 13.6097 16.1661 13.5837 16.1711C13.4229 16.2016 13.2671 16.2308 13.1157 16.259C13.0547 16.2703 12.9943 16.2815 12.9349 16.2924C9.46762 16.9312 8.4936 16.9426 8.22329 16.906C8.22225 16.9059 8.22133 16.9058 8.22029 16.9056C8.21619 16.905 8.21215 16.9044 8.20838 16.9038C8.20564 16.9034 8.2031 16.9029 8.20057 16.9025C8.19874 16.9022 8.19679 16.9019 8.19503 16.9016C8.17817 16.8985 8.16502 16.8953 8.15486 16.8923L8.07687 16.8605L8.17407 16.6222C8.26964 16.3878 8.26821 16.1302 8.1701 15.897C8.14555 15.8386 8.11567 15.7836 8.08103 15.7323C7.97713 15.5784 7.83019 15.4586 7.65441 15.387L5.0979 14.3446C4.86359 14.2489 4.60598 14.2504 4.37271 14.3485C4.13938 14.4467 3.95832 14.6298 3.86275 14.8641L0.736648 22.5309C0.539383 23.0147 0.772521 23.5688 1.25631 23.7661L3.81288 24.8085C3.92961 24.8561 4.05038 24.8787 4.16932 24.8787C4.54322 24.8787 4.89829 24.6559 5.04797 24.2889L5.07147 24.2313L5.66092 24.4716C5.66125 24.4717 5.66157 24.4719 5.66196 24.472C6.22577 24.7019 6.74523 25.0299 7.19484 25.4369C7.27661 25.511 7.35604 25.5876 7.43305 25.6667C7.51007 25.7458 7.58455 25.8274 7.65649 25.9114C7.69243 25.9534 7.72778 25.996 7.76235 26.0392C8.41749 26.8561 9.27634 27.497 10.2459 27.8923L10.9091 28.1627H6.05155C5.71001 28.1627 5.43208 27.8848 5.43208 27.5432V26.3389C5.43208 26.076 5.219 25.8629 4.95611 25.8629C4.69322 25.8629 4.48013 26.076 4.48013 26.3389V27.5432C4.48013 28.4097 5.18501 29.1147 6.05155 29.1147H13.2438L19.3753 31.6148C19.5864 31.7009 19.8048 31.7417 20.0198 31.7416C20.6955 31.7416 21.3373 31.3389 21.6078 30.6756C21.7188 30.4035 21.7544 30.1191 21.7245 29.8458C22.0434 29.8915 22.3741 29.8496 22.6738 29.7201C22.9785 29.5886 23.2309 29.379 23.4102 29.1146H32.4284C33.2949 29.1146 33.9999 28.4097 33.9999 27.5432V5.71822C33.9998 5.71757 33.9997 5.71705 33.9997 5.7164ZM17.2203 2.54375H21.2595L21.8839 5.24225H16.5959L17.2203 2.54375ZM15.6188 5.24225H5.65304L6.70714 2.54375H16.2433L15.6188 5.24225ZM22.0068 12.9142H22.0067L19.7175 10.8862C19.5814 10.7656 19.4107 10.7053 19.2401 10.7053C19.0694 10.7053 18.8986 10.7656 18.7625 10.8862L16.4733 12.9142V6.1942H22.0068V12.9142ZM4.16815 23.9253L1.61978 22.8863L4.74257 15.2278L7.29093 16.2669L4.16815 23.9253ZM23.1841 26.7978L22.6378 26.575C22.6375 26.5749 22.6373 26.5748 22.637 26.5747C22.6368 26.5746 22.6366 26.5745 22.6364 26.5744C22.6363 26.5744 22.6363 26.5744 22.6362 26.5744L16.947 24.2546C16.7037 24.1554 16.4259 24.2722 16.3266 24.5157C16.2273 24.7591 16.3442 25.0369 16.5877 25.1362L22.277 27.456C22.3007 27.4657 22.3237 27.4764 22.3459 27.4882C22.3522 27.4915 22.358 27.4956 22.3641 27.499C22.3797 27.5079 22.3954 27.5167 22.4102 27.5266C22.4173 27.5313 22.4238 27.5368 22.4307 27.5417C22.4438 27.5511 22.4571 27.5604 22.4695 27.5705C22.477 27.5766 22.4837 27.5835 22.491 27.5899C22.502 27.5997 22.5134 27.6092 22.5238 27.6196C22.531 27.6268 22.5375 27.6346 22.5444 27.6421C22.5539 27.6524 22.5638 27.6624 22.5727 27.6733C22.5796 27.6815 22.5856 27.6903 22.5921 27.6988C22.6002 27.7095 22.6087 27.72 22.6162 27.7311C22.6225 27.7403 22.6279 27.7501 22.6337 27.7595C22.6405 27.7705 22.6477 27.7812 22.6539 27.7925C22.6595 27.8026 22.6641 27.8132 22.6693 27.8236C22.6748 27.8347 22.6807 27.8457 22.6856 27.857C22.6904 27.868 22.6942 27.8793 22.6985 27.8904C22.7028 27.9017 22.7074 27.9128 22.7112 27.9242C22.715 27.9358 22.7179 27.9475 22.721 27.9592C22.7242 27.9707 22.7278 27.982 22.7305 27.9937C22.7332 28.0055 22.7348 28.0175 22.737 28.0293C22.7391 28.0412 22.7416 28.0529 22.7432 28.0649C22.7447 28.0768 22.7453 28.0889 22.7463 28.101C22.7473 28.1131 22.7487 28.1251 22.7491 28.1373C22.7495 28.1492 22.7489 28.1612 22.7488 28.1732C22.7486 28.1856 22.7488 28.1979 22.7481 28.2104C22.7473 28.2221 22.7456 28.2339 22.7443 28.2457C22.7429 28.2584 22.7419 28.2711 22.7398 28.2837C22.7379 28.2953 22.735 28.3068 22.7326 28.3184C22.7298 28.3313 22.7276 28.3441 22.7241 28.3568C22.7211 28.3681 22.7171 28.3793 22.7135 28.3905C22.7095 28.4033 22.7057 28.416 22.701 28.4286C22.697 28.4373 22.693 28.446 22.6893 28.4548C22.6884 28.4568 22.688 28.4589 22.6872 28.4608C22.6128 28.6325 22.4756 28.7689 22.2964 28.8463C22.0991 28.9314 21.8733 28.9344 21.6766 28.8542L20.6686 28.4432C20.664 28.4413 20.6592 28.44 20.6545 28.4382C20.6498 28.4361 20.6453 28.4336 20.6404 28.4317L16.0131 26.5449C15.7696 26.4457 15.4919 26.5624 15.3927 26.8059C15.2934 27.0494 15.4103 27.3272 15.6537 27.4264L20.281 29.3132C20.286 29.3152 20.291 29.3167 20.296 29.3185C20.3005 29.3205 20.3046 29.3229 20.3093 29.3247C20.6976 29.4831 20.8848 29.9279 20.7265 30.3162C20.5681 30.7047 20.1235 30.8919 19.7349 30.7334L13.5178 28.1984C13.5175 28.1983 13.5173 28.1981 13.517 28.198L10.6056 27.0108C10.0931 26.8018 9.61716 26.5118 9.19705 26.155C8.94497 25.9408 8.713 25.7028 8.50519 25.4436C8.30044 25.1884 8.07583 24.9503 7.83416 24.7315C7.30246 24.2502 6.6882 23.8623 6.0216 23.5905C6.02153 23.5905 6.02147 23.5904 6.0214 23.5904L5.43117 23.3498L6.60675 20.4666L7.71769 17.7421L7.79966 17.7755C7.8768 17.8069 7.98683 17.8516 8.28292 17.8628C8.65284 17.8795 9.26482 17.8409 10.3612 17.686C11.1069 17.5807 12.0217 17.4284 13.0896 17.2319C13.1159 17.2271 13.142 17.2222 13.1686 17.2174C13.2185 17.2081 13.269 17.1987 13.3196 17.1894C13.359 17.1821 13.3986 17.1746 13.4385 17.1672C13.484 17.1586 13.5296 17.1501 13.5756 17.1414C13.6243 17.1323 13.6737 17.123 13.7233 17.1135C13.763 17.106 13.8026 17.0985 13.8427 17.0909C13.9032 17.0793 13.9647 17.0675 14.0265 17.0557C14.0582 17.0496 14.0897 17.0436 14.1217 17.0375C14.2162 17.0192 14.312 17.0008 14.4095 16.9818C17.1609 16.4467 19.8165 15.851 19.9358 15.8242C19.9477 15.8217 19.9597 15.8203 19.9716 15.8185C20.2773 15.7733 20.5768 15.9501 20.6645 16.2354C20.6953 16.3356 20.6989 16.4379 20.6795 16.5342C20.6369 16.7459 20.483 16.9287 20.263 16.9967L15.5441 18.4573C15.352 18.5168 15.218 18.6904 15.2093 18.8913C15.2006 19.0922 15.319 19.2769 15.5052 19.3528L24.1447 22.8756C24.3329 22.9523 24.4799 23.0977 24.5587 23.285C24.6374 23.4723 24.6386 23.6791 24.5619 23.8671C24.4851 24.0553 24.3398 24.2023 24.1525 24.2811C24.0589 24.3204 23.9604 24.3403 23.8617 24.3409C23.8603 24.3409 23.8589 24.3407 23.8574 24.3407C23.8343 24.3407 23.8111 24.3398 23.788 24.3376C23.7812 24.337 23.7744 24.3356 23.7676 24.3348C23.75 24.3326 23.7323 24.3306 23.7148 24.3272C23.7037 24.3251 23.6928 24.3218 23.6818 24.3192C23.6686 24.3161 23.6554 24.3134 23.6424 24.3096C23.6289 24.3056 23.6157 24.3003 23.6024 24.2956C23.5919 24.2918 23.5811 24.2887 23.5707 24.2845L17.8809 21.9644C17.6375 21.8651 17.3597 21.982 17.2604 22.2255C17.1612 22.4689 17.278 22.7467 17.5215 22.846L24.4196 25.6587C24.4667 25.6778 24.5111 25.7013 24.5526 25.7287C24.677 25.8107 24.7745 25.9276 24.8335 26.0681C24.9025 26.2319 24.912 26.4107 24.8619 26.5789C24.8547 26.6029 24.8463 26.6267 24.8367 26.6502C24.8268 26.6745 24.8158 26.698 24.8038 26.7207C24.7757 26.7734 24.7415 26.821 24.7034 26.8645C24.6797 26.8914 24.6544 26.9165 24.6274 26.9396C24.6231 26.9432 24.6192 26.9474 24.6149 26.9509C24.4412 27.093 24.2089 27.154 23.982 27.1082C23.936 27.0989 23.8902 27.0857 23.8452 27.0673L23.1841 26.7978Z" fill="#3E425B"/>
</g>
<defs>
<clipPath id="clip0">
<rect width="33.3333" height="33.3333" fill="white" transform="translate(0.666504)"/>
</clipPath>
</defs>
</svg>
