<svg width="20" height="20" viewBox="0 0 20 20" fill="none" xmlns="http://www.w3.org/2000/svg">
<path d="M0.996527 10.3079L10.5617 19.873C10.6434 19.9546 10.7542 20.0002 10.8696 20H18.6957C18.9358 20.0004 19.1308 19.8061 19.1312 19.566C19.1314 19.4502 19.0855 19.3391 19.0035 19.2574L9.74523 9.99998L19.0035 0.742632C19.1735 0.573067 19.1738 0.297768 19.0043 0.127754C18.9225 0.045784 18.8114 -0.000192642 18.6957 9.53674e-06H10.8696C10.7542 -0.000192642 10.6434 0.0454578 10.5617 0.12698L0.996527 9.6922C0.826513 9.86176 0.826187 10.1371 0.995752 10.3071C0.996037 10.3073 0.996283 10.3076 0.996527 10.3079Z" fill="#4351D8"/>
</svg>
