<svg width="25" height="25" viewBox="0 0 25 25" fill="none" xmlns="http://www.w3.org/2000/svg">
<g clip-path="url(#clip0)">
<path d="M24.7943 3.15537C24.7794 3.14141 21.8428 0.340869 21.8428 0.340869C21.7306 0.233154 21.6145 0.121826 21.3977 0.121826H9.5754C9.23009 0.121826 8.94913 0.402734 8.94913 0.748047V2.67104L4.78238 3.3853C4.4484 3.4439 4.22379 3.76352 4.28165 4.09717L4.49313 5.33018C3.13878 5.78594 1.7483 6.25576 0.405968 6.73794C0.0887808 6.85391 -0.0776743 7.20659 0.0355093 7.52568L2.70568 14.9483C2.75939 15.0977 2.90016 15.1907 3.0503 15.1907C3.09142 15.1907 3.13331 15.1837 3.17423 15.169C3.36456 15.1005 3.46334 14.8908 3.39488 14.7004L0.76422 7.38755C2.02887 6.93477 3.33854 6.4916 4.61847 6.06079L5.87682 13.397L7.32477 21.8458C7.37706 22.144 7.63922 22.3562 7.93512 22.3562C7.96861 22.3562 8.0026 22.3535 8.03668 22.3479L11.9584 21.6749L15.0228 21.1496L10.4139 22.8062L6.77936 24.113L3.9567 16.262C3.88829 16.0716 3.67858 15.9728 3.48819 16.0413C3.29786 16.1097 3.19908 16.3194 3.26749 16.5098L6.13019 24.4724C6.22174 24.7228 6.45895 24.8784 6.70968 24.8784C6.77897 24.8784 6.84933 24.8665 6.91788 24.8415L10.6616 23.4955L19.1623 20.4401L20.7862 20.1617H24.3737C24.719 20.1617 25 19.8802 25 19.5341V3.56802C25 3.34883 24.8811 3.23701 24.7943 3.15537ZM23.824 3.24209H21.9915L21.9461 3.24229C21.8583 3.24287 21.6529 3.24438 21.6008 3.19263C21.5888 3.18066 21.5747 3.14072 21.5747 3.06655L21.5705 1.09316L23.824 3.24209ZM24.2676 19.4292H9.68155V12.2921C9.68155 12.0899 9.51759 11.9259 9.31534 11.9259C9.1131 11.9259 8.94913 12.0899 8.94913 12.2921V19.534C8.94913 19.88 9.23009 20.1616 9.5754 20.1616H16.451L11.8345 20.9529L8.02682 21.6064L6.59869 13.2731L5.02306 4.08711L8.94908 3.41411V10.5929C8.94908 10.7952 9.11305 10.9591 9.31529 10.9591C9.51754 10.9591 9.68151 10.7952 9.68151 10.5929V0.854199H20.8375L20.8423 3.06738C20.8423 3.33564 20.9239 3.55264 21.0848 3.7124C21.332 3.95786 21.6815 3.97495 21.8984 3.97495C21.9171 3.97495 21.9347 3.9748 21.9513 3.97471L24.2676 3.97456V19.4292Z" fill="#4351D8"/>
<path d="M11.4468 5.80811C11.4468 6.01035 11.6107 6.17432 11.813 6.17432H22.2835C22.4857 6.17432 22.6497 6.01035 22.6497 5.80811C22.6497 5.60586 22.4857 5.44189 22.2835 5.44189H11.813C11.6107 5.44189 11.4468 5.60586 11.4468 5.80811Z" fill="#4351D8"/>
<path d="M22.2835 8.04358H11.813C11.6107 8.04358 11.4468 8.20754 11.4468 8.40979C11.4468 8.61204 11.6107 8.776 11.813 8.776H22.2835C22.4857 8.776 22.6497 8.61204 22.6497 8.40979C22.6497 8.20754 22.4857 8.04358 22.2835 8.04358Z" fill="#4351D8"/>
<path d="M22.2835 10.6453H11.813C11.6107 10.6453 11.4468 10.8092 11.4468 11.0115C11.4468 11.2137 11.6107 11.3777 11.813 11.3777H22.2835C22.4857 11.3777 22.6497 11.2137 22.6497 11.0115C22.6497 10.8092 22.4857 10.6453 22.2835 10.6453Z" fill="#4351D8"/>
<path d="M22.2835 13.2469H11.813C11.6107 13.2469 11.4468 13.4109 11.4468 13.6132C11.4468 13.8154 11.6107 13.9794 11.813 13.9794H22.2835C22.4857 13.9794 22.6497 13.8154 22.6497 13.6132C22.6497 13.4109 22.4857 13.2469 22.2835 13.2469Z" fill="#4351D8"/>
<path d="M22.2835 15.8486H11.813C11.6107 15.8486 11.4468 16.0126 11.4468 16.2148C11.4468 16.4171 11.6107 16.5811 11.813 16.5811H22.2835C22.4857 16.5811 22.6497 16.4171 22.6497 16.2148C22.6497 16.0126 22.4857 15.8486 22.2835 15.8486Z" fill="#4351D8"/>
</g>
<defs>
<clipPath id="clip0">
<rect width="25" height="25" fill="white"/>
</clipPath>
</defs>
</svg>
