<svg width="20" height="20" viewBox="0 0 20 20" fill="none" xmlns="http://www.w3.org/2000/svg">
<circle cx="10" cy="10" r="10" fill="url(#paint0_linear)"/>
<path d="M10.774 11.7467H8.98732V9.77337C9.58287 9.64893 10.1073 9.44004 10.5607 9.14671C11.0229 8.84449 11.254 8.50226 11.254 8.12004C11.254 7.77337 11.1118 7.51115 10.8273 7.33337C10.5518 7.14671 10.1829 7.05337 9.72065 7.05337C8.9651 7.05337 8.16954 7.30226 7.33398 7.80004V6.12004C8.09843 5.5956 8.99621 5.33337 10.0273 5.33337C10.8984 5.33337 11.6407 5.57337 12.254 6.05337C12.8762 6.5156 13.1873 7.16449 13.1873 8.00004C13.1873 8.65782 12.9473 9.21782 12.4673 9.68004C11.9873 10.1512 11.4229 10.4845 10.774 10.68V11.7467ZM9.92065 15C9.59176 15 9.31621 14.8889 9.09398 14.6667C8.87176 14.4356 8.76065 14.1556 8.76065 13.8267C8.76065 13.5067 8.87176 13.2356 9.09398 13.0134C9.31621 12.7912 9.59176 12.68 9.92065 12.68C10.2407 12.68 10.5118 12.7912 10.734 13.0134C10.9651 13.2356 11.0807 13.5067 11.0807 13.8267C11.0807 14.1556 10.9651 14.4356 10.734 14.6667C10.5118 14.8889 10.2407 15 9.92065 15Z" fill="white"/>
<defs>
<linearGradient id="paint0_linear" x1="7.07207e-08" y1="10.0003" x2="20" y2="10.0003" gradientUnits="userSpaceOnUse">
<stop stop-color="#4351D8"/>
<stop offset="1" stop-color="#6D7BFF"/>
</linearGradient>
</defs>
</svg>
