<svg width="85" height="85" viewBox="0 0 85 85" fill="none" xmlns="http://www.w3.org/2000/svg">
<path d="M70.125 66.7648C69.6274 66.394 69.0507 66.1434 68.4401 66.0328C67.8295 65.9222 67.2015 65.9546 66.6055 66.1273L57.1094 68.9297V57.1094H61.0938C61.3565 57.1104 61.6135 57.0324 61.8313 56.8856C62.0492 56.7387 62.2179 56.5298 62.3156 56.2859C62.4173 56.0441 62.4451 55.7775 62.3955 55.5199C62.3458 55.2622 62.221 55.025 62.0367 54.8383L52.7398 45.5414C52.4891 45.2926 52.1501 45.153 51.7969 45.153C51.4436 45.153 51.1047 45.2926 50.8539 45.5414L41.557 54.8383C41.3727 55.025 41.2479 55.2622 41.1983 55.5199C41.1486 55.7775 41.1764 56.0441 41.2781 56.2859C41.3758 56.5298 41.5445 56.7387 41.7624 56.8856C41.9803 57.0324 42.2373 57.1104 42.5 57.1094H46.4844V71.7188H37.5328L30.3609 67.7344H41.1719C42.2276 67.7312 43.2392 67.3104 43.9858 66.5639C44.7323 65.8174 45.1531 64.8058 45.1562 63.75V63.0859C45.1539 62.2263 44.875 61.3903 44.3607 60.7015C43.8465 60.0126 43.1243 59.5076 42.3008 59.2609L34.5312 56.9766V50.4688H38.5156C38.7784 50.4698 39.0353 50.3918 39.2532 50.245C39.4711 50.0981 39.6398 49.8892 39.7375 49.6453C39.8392 49.4034 39.867 49.1369 39.8174 48.8792C39.7677 48.6216 39.6429 48.3844 39.4586 48.1977L30.1617 38.9008C29.911 38.652 29.572 38.5123 29.2188 38.5123C28.8655 38.5123 28.5265 38.652 28.2758 38.9008L18.9789 48.1977C18.7946 48.3844 18.6698 48.6216 18.6201 48.8792C18.5705 49.1369 18.5983 49.4034 18.7 49.6453C18.7977 49.8892 18.9664 50.0981 19.1843 50.245C19.4022 50.3918 19.6591 50.4698 19.9219 50.4688H23.9062V53.8555L21.6219 53.1781C21.5017 53.1401 21.376 53.1221 21.25 53.125H13.2812V50.4688C13.2812 50.1165 13.1413 49.7787 12.8923 49.5296C12.6432 49.2806 12.3054 49.1406 11.9531 49.1406H3.98438C3.63213 49.1406 3.29432 49.2806 3.04525 49.5296C2.79618 49.7787 2.65625 50.1165 2.65625 50.4688V79.6875C2.65625 80.0397 2.79618 80.3776 3.04525 80.6266C3.29432 80.8757 3.63213 81.0156 3.98438 81.0156H11.9531C12.3054 81.0156 12.6432 80.8757 12.8923 80.6266C13.1413 80.3776 13.2812 80.0397 13.2812 79.6875V77.5492L27.4656 82.2773C27.6036 82.3188 27.7466 82.3412 27.8906 82.3438H47.8125C47.9622 82.3443 48.1108 82.3173 48.2508 82.2641L69.0625 74.9195C69.8397 74.6448 70.5125 74.1357 70.9882 73.4626C71.4639 72.7894 71.7192 71.9852 71.7188 71.1609V69.9523C71.7204 69.3335 71.5771 68.7229 71.3004 68.1693C71.0236 67.6158 70.6211 67.1348 70.125 66.7648ZM10.625 78.3594H5.3125V51.7969H10.625V78.3594ZM45.7008 54.4531L51.7969 48.357L57.893 54.4531H55.7812C55.429 54.4531 55.0912 54.5931 54.8421 54.8421C54.5931 55.0912 54.4531 55.429 54.4531 55.7812V69.7133L49.1406 71.2672V55.7812C49.1406 55.429 49.0007 55.0912 48.7516 54.8421C48.5026 54.5931 48.1647 54.4531 47.8125 54.4531H45.7008ZM23.1227 47.8125L29.2188 41.7164L35.3148 47.8125H33.2031C32.8509 47.8125 32.5131 47.9524 32.264 48.2015C32.0149 48.4506 31.875 48.7884 31.875 49.1406V56.193L26.5625 54.6258V49.1406C26.5625 48.7884 26.4226 48.4506 26.1735 48.2015C25.9244 47.9524 25.5866 47.8125 25.2344 47.8125H23.1227ZM69.0625 71.1609C69.0642 71.4378 68.9793 71.7082 68.8197 71.9344C68.6602 72.1606 68.434 72.3313 68.1727 72.4227L47.5867 79.6875H28.1031L13.2812 74.7469V55.7812H21.0641L41.5438 61.8109C41.8187 61.8929 42.0601 62.0611 42.2323 62.2906C42.4044 62.5202 42.4983 62.799 42.5 63.0859V63.75C42.5 64.1022 42.3601 64.4401 42.111 64.6891C41.8619 64.9382 41.5241 65.0781 41.1719 65.0781H25.2344C24.9414 65.079 24.657 65.1767 24.4254 65.356C24.1938 65.5354 24.0279 65.7862 23.9537 66.0696C23.8794 66.353 23.9009 66.6529 24.0149 66.9228C24.1288 67.1927 24.3287 67.4173 24.5836 67.5617L36.5367 74.2023C36.7339 74.318 36.9589 74.3777 37.1875 74.375H47.8125C47.9385 74.3779 48.0642 74.3599 48.1844 74.3219L67.3625 68.6773C67.5604 68.6196 67.7691 68.6088 67.972 68.6456C68.1748 68.6825 68.3663 68.7661 68.5312 68.8898C68.6962 69.0136 68.8301 69.174 68.9223 69.3584C69.0145 69.5428 69.0625 69.7462 69.0625 69.9523V71.1609Z" fill="#4351D8"/>
<path d="M45.1562 2.65625C41.2161 2.65625 37.3644 3.82465 34.0883 6.01369C30.8121 8.20273 28.2587 11.3141 26.7508 14.9543C25.243 18.5946 24.8485 22.6002 25.6172 26.4647C26.3859 30.3291 28.2832 33.8789 31.0694 36.665C33.8555 39.4511 37.4052 41.3485 41.2697 42.1172C45.1341 42.8859 49.1398 42.4914 52.78 40.9835C56.4203 39.4757 59.5316 36.9222 61.7207 33.6461C63.9097 30.37 65.0781 26.5183 65.0781 22.5781C65.0718 17.2965 62.9709 12.2329 59.2362 8.49822C55.5014 4.76351 50.4379 2.66258 45.1562 2.65625ZM62.3555 21.25H59.6992C59.5427 19.595 59.1071 17.9784 58.4109 16.4687L60.7086 15.1273C61.6301 17.0493 62.1885 19.1251 62.3555 21.25ZM54.9047 8.34062C56.6609 9.55232 58.182 11.0734 59.3937 12.8297L57.0828 14.1578C56.1146 12.8044 54.93 11.6198 53.5766 10.6516L54.9047 8.34062ZM46.4844 5.37891C48.6093 5.54588 50.6851 6.10422 52.607 7.02578L51.2656 9.32344C49.756 8.62724 48.1394 8.19165 46.4844 8.03515V5.37891ZM43.8281 5.37891V8.03515C42.1731 8.19165 40.5565 8.62724 39.0469 9.32344L37.7055 7.02578C39.6274 6.10422 41.7032 5.54588 43.8281 5.37891ZM35.4078 8.34062L36.7359 10.6516C35.3825 11.6198 34.1979 12.8044 33.2297 14.1578L30.9188 12.8297C32.1305 11.0734 33.6516 9.55232 35.4078 8.34062ZM29.6039 15.1273L31.9016 16.4687C31.2054 17.9784 30.7698 19.595 30.6133 21.25H27.957C28.124 19.1251 28.6824 17.0493 29.6039 15.1273ZM27.957 23.9062H30.6133C30.7698 25.5613 31.2054 27.1779 31.9016 28.6875L29.6039 30.0289C28.6824 28.1069 28.124 26.0312 27.957 23.9062ZM35.4078 36.8156C33.6516 35.6039 32.1305 34.0828 30.9188 32.3266L33.2297 30.9984C34.1979 32.3518 35.3825 33.5364 36.7359 34.5047L35.4078 36.8156ZM43.8281 39.7773C41.7032 39.6104 39.6274 39.052 37.7055 38.1305L39.0469 35.8328C40.5565 36.529 42.1731 36.9646 43.8281 37.1211V39.7773ZM33.2031 22.5781C33.2031 20.214 33.9042 17.903 35.2176 15.9373C36.531 13.9716 38.3978 12.4396 40.582 11.5349C42.7661 10.6302 45.1695 10.3935 47.4882 10.8547C49.8069 11.3159 51.9367 12.4543 53.6084 14.126C55.2801 15.7977 56.4185 17.9275 56.8797 20.2462C57.3409 22.5649 57.1042 24.9682 56.1995 27.1524C55.2948 29.3365 53.7627 31.2033 51.7971 32.5168C49.8314 33.8302 47.5204 34.5312 45.1562 34.5312C41.9876 34.5263 38.9501 33.2654 36.7095 31.0248C34.469 28.7842 33.208 25.7468 33.2031 22.5781ZM46.4844 39.7773V37.1211C48.1394 36.9646 49.756 36.529 51.2656 35.8328L52.607 38.1305C50.6851 39.052 48.6093 39.6104 46.4844 39.7773ZM54.9047 36.8156L53.5766 34.5047C54.93 33.5364 56.1146 32.3518 57.0828 30.9984L59.3937 32.3266C58.182 34.0828 56.6609 35.6039 54.9047 36.8156ZM60.7086 30.0289L58.4109 28.6875C59.1071 27.1779 59.5427 25.5613 59.6992 23.9062H62.3555C62.1885 26.0312 61.6301 28.1069 60.7086 30.0289Z" fill="#4351D8"/>
<path d="M43.8281 31.875H46.4844V29.2188C47.1889 29.2188 47.8645 28.9389 48.3626 28.4408C48.8608 27.9426 49.1406 27.267 49.1406 26.5625V23.9062C49.1406 23.2018 48.8608 22.5261 48.3626 22.028C47.8645 21.5299 47.1889 21.25 46.4844 21.25H43.8281V18.5938H49.1406V15.9375H46.4844V13.2812H43.8281V15.9375C43.1236 15.9375 42.448 16.2174 41.9499 16.7155C41.4517 17.2136 41.1719 17.8893 41.1719 18.5938V21.25C41.1719 21.9545 41.4517 22.6301 41.9499 23.1283C42.448 23.6264 43.1236 23.9062 43.8281 23.9062H46.4844V26.5625H41.1719V29.2188H43.8281V31.875Z" fill="#4351D8"/>
<path d="M81.9546 45.5454L72.6578 36.2485C72.4087 35.9995 72.0709 35.8596 71.7188 35.8596C71.3666 35.8596 71.0288 35.9995 70.7798 36.2485L61.4829 45.5454C61.2972 45.7311 61.1708 45.9677 61.1196 46.2253C61.0683 46.4829 61.0946 46.7499 61.1951 46.9926C61.2956 47.2352 61.4658 47.4426 61.6842 47.5886C61.9025 47.7345 62.1593 47.8124 62.4219 47.8125H66.4063V61.0937C66.4063 61.446 66.5462 61.7838 66.7953 62.0329C67.0443 62.2819 67.3822 62.4219 67.7344 62.4219H75.7031C76.0554 62.4219 76.3932 62.2819 76.6423 62.0329C76.8913 61.7838 77.0313 61.446 77.0313 61.0937V47.8125H81.0156C81.2783 47.8124 81.535 47.7345 81.7534 47.5886C81.9717 47.4426 82.1419 47.2352 82.2424 46.9926C82.3429 46.7499 82.3692 46.4829 82.318 46.2253C82.2668 45.9677 82.1403 45.7311 81.9546 45.5454ZM75.7031 45.1562C75.3509 45.1562 75.0131 45.2962 74.764 45.5452C74.5149 45.7943 74.375 46.1321 74.375 46.4844V59.7656H69.0625V46.4844C69.0625 46.1321 68.9226 45.7943 68.6735 45.5452C68.4245 45.2962 68.0866 45.1562 67.7344 45.1562H65.628L71.7188 39.0655L77.8096 45.1562H75.7031Z" fill="#4351D8"/>
<path d="M3.98437 37.1875H7.96874V45.1562C7.96874 45.5085 8.10867 45.8463 8.35774 46.0954C8.60681 46.3444 8.94463 46.4844 9.29687 46.4844H17.2656C17.6179 46.4844 17.9557 46.3444 18.2047 46.0954C18.4538 45.8463 18.5937 45.5085 18.5937 45.1562V37.1875H22.5781C22.8408 37.1874 23.0975 37.1095 23.3158 36.9636C23.5342 36.8176 23.7044 36.6102 23.8049 36.3676C23.9054 36.1249 23.9317 35.8579 23.8805 35.6003C23.8292 35.3427 23.7028 35.1061 23.5171 34.9204L14.2202 25.6235C13.9712 25.3745 13.6334 25.2346 13.2812 25.2346C12.9291 25.2346 12.5913 25.3745 12.3423 25.6235L3.04538 34.9204C2.8597 35.1061 2.73325 35.3427 2.68203 35.6003C2.63081 35.8579 2.65711 36.1249 2.75761 36.3676C2.85811 36.6102 3.02829 36.8176 3.24665 36.9636C3.46501 37.1095 3.72173 37.1874 3.98437 37.1875ZM13.2812 28.4405L19.372 34.5312H17.2656C16.9134 34.5312 16.5756 34.6712 16.3265 34.9202C16.0774 35.1693 15.9375 35.5071 15.9375 35.8594V43.8281H10.625V35.8594C10.625 35.5071 10.4851 35.1693 10.236 34.9202C9.98692 34.6712 9.64911 34.5312 9.29687 34.5312H7.19046L13.2812 28.4405Z" fill="#4351D8"/>
</svg>
