<svg width="35" height="35" viewBox="0 0 35 35" fill="none" xmlns="http://www.w3.org/2000/svg">
<g clip-path="url(#clip0)">
<path d="M30 0C29.3096 0 28.75 0.559643 28.75 1.25002V5.81623C22.3145 -0.414257 12.0467 -0.247998 5.81622 6.18742C2.87995 9.22031 1.24188 13.2786 1.25001 17.5C1.25001 18.1903 1.80966 18.75 2.50004 18.75C3.19042 18.75 3.74999 18.1903 3.74999 17.5C3.75153 9.90607 9.90877 3.75117 17.5027 3.75271C21.3595 3.75344 25.0385 5.37392 27.6425 8.21872L22.1051 10.0649C21.4492 10.2831 21.0944 10.9916 21.3126 11.6474C21.5308 12.3032 22.2392 12.6581 22.895 12.4399L30.395 9.93991C30.907 9.7694 31.2518 9.28952 31.2501 8.74995V1.24995C31.25 0.559643 30.6904 0 30 0Z" fill="#4351D8"/>
<path d="M32.4999 16.25C31.8096 16.25 31.2499 16.8096 31.2499 17.5C31.2484 25.0939 25.0911 31.2488 17.4972 31.2473C13.6405 31.2465 9.96144 29.6261 7.35739 26.7813L12.8949 24.935C13.5507 24.7169 13.9055 24.0084 13.6873 23.3526C13.4692 22.6968 12.7607 22.3419 12.1049 22.5601L4.60488 25.0601C4.09292 25.2306 3.74817 25.7105 3.74985 26.25V33.75C3.74985 34.4404 4.3095 35 4.99988 35C5.69026 35 6.2499 34.4404 6.2499 33.75V29.1837C12.6854 35.4142 22.9532 35.248 29.1836 28.8126C32.1199 25.7797 33.758 21.7214 33.7498 17.5C33.75 16.8096 33.1903 16.25 32.4999 16.25Z" fill="#4351D8"/>
</g>
<defs>
<clipPath id="clip0">
<rect width="35" height="35" fill="white"/>
</clipPath>
</defs>
</svg>
