<svg width="135" height="21" viewBox="0 0 135 21" fill="none" xmlns="http://www.w3.org/2000/svg">
<path d="M20.4225 9.1872C20.8334 8.78675 20.9785 8.19903 20.8012 7.65269C20.6236 7.10635 20.1608 6.71635 19.5924 6.63359L14.5378 5.89915C14.3225 5.8678 14.1365 5.73278 14.0404 5.53757L11.7806 0.957879C11.5269 0.443311 11.0119 0.123535 10.438 0.123535C9.86448 0.123535 9.34949 0.443311 9.09576 0.957879L6.83559 5.53799C6.73945 5.7332 6.55302 5.86822 6.33775 5.89957L1.2832 6.63401C0.715125 6.71635 0.251972 7.10677 0.0743186 7.65311C-0.102917 8.19944 0.042132 8.78716 0.453034 9.18762L4.11018 12.7524C4.2661 12.9045 4.33758 13.1236 4.3008 13.3376L3.43803 18.3712C3.36153 18.8143 3.47774 19.2453 3.76449 19.5851C4.21009 20.1148 4.988 20.2761 5.61 19.9492L10.1303 17.5724C10.3193 17.4734 10.5571 17.4742 10.7456 17.5724L15.2664 19.9492C15.4863 20.065 15.7208 20.1235 15.9628 20.1235C16.4046 20.1235 16.8235 19.9271 17.1115 19.5851C17.3987 19.2453 17.5144 18.8135 17.4379 18.3712L16.5748 13.3376C16.538 13.1232 16.6095 12.9045 16.7654 12.7524L20.4225 9.1872Z" fill="url(#paint0_linear)"/>
<path d="M78.4235 9.1872C78.8344 8.78675 78.9794 8.19903 78.8022 7.65269C78.6246 7.10635 78.1618 6.71635 77.5933 6.63359L72.5388 5.89915C72.3235 5.8678 72.1375 5.73278 72.0414 5.53757L69.7816 0.957879C69.5279 0.443311 69.0129 0.123535 68.439 0.123535C67.8655 0.123535 67.3505 0.443311 67.0967 0.957879L64.8366 5.53799C64.7404 5.7332 64.554 5.86822 64.3387 5.89957L59.2842 6.63401C58.7161 6.71635 58.2529 7.10677 58.0753 7.65311C57.8981 8.19944 58.0431 8.78716 58.454 9.18762L62.1112 12.7524C62.2671 12.9045 62.3386 13.1236 62.3018 13.3376L61.439 18.3712C61.3625 18.8143 61.4787 19.2453 61.7655 19.5851C62.2111 20.1148 62.989 20.2761 63.611 19.9492L68.1313 17.5724C68.3202 17.4734 68.5581 17.4742 68.7466 17.5724L73.2674 19.9492C73.4872 20.065 73.7217 20.1235 73.9638 20.1235C74.4056 20.1235 74.8244 19.9271 75.1125 19.5851C75.3996 19.2453 75.5154 18.8135 75.4389 18.3712L74.5757 13.3376C74.5389 13.1232 74.6104 12.9045 74.7663 12.7524L78.4235 9.1872Z" fill="url(#paint1_linear)"/>
<path d="M49.4235 9.1872C49.8344 8.78675 49.9794 8.19903 49.8022 7.65269C49.6246 7.10635 49.1618 6.71635 48.5933 6.63359L43.5388 5.89915C43.3235 5.8678 43.1375 5.73278 43.0414 5.53757L40.7816 0.957879C40.5279 0.443311 40.0129 0.123535 39.439 0.123535C38.8655 0.123535 38.3505 0.443311 38.0967 0.957879L35.8366 5.53799C35.7404 5.7332 35.554 5.86822 35.3387 5.89957L30.2842 6.63401C29.7161 6.71635 29.2529 7.10677 29.0753 7.65311C28.8981 8.19944 29.0431 8.78716 29.454 9.18762L33.1112 12.7524C33.2671 12.9045 33.3386 13.1236 33.3018 13.3376L32.439 18.3712C32.3625 18.8143 32.4787 19.2453 32.7655 19.5851C33.2111 20.1148 33.989 20.2761 34.611 19.9492L39.1313 17.5724C39.3202 17.4734 39.5581 17.4742 39.7466 17.5724L44.2674 19.9492C44.4872 20.065 44.7217 20.1235 44.9638 20.1235C45.4056 20.1235 45.8244 19.9271 46.1125 19.5851C46.3996 19.2453 46.5154 18.8135 46.4389 18.3712L45.5757 13.3376C45.5389 13.1232 45.6104 12.9045 45.7663 12.7524L49.4235 9.1872Z" fill="url(#paint2_linear)"/>
<path d="M107.424 9.1872C107.835 8.78675 107.98 8.19903 107.803 7.65269C107.626 7.10635 107.163 6.71635 106.594 6.63359L101.54 5.89915C101.324 5.8678 101.138 5.73278 101.042 5.53757L98.7826 0.957879C98.5288 0.443311 98.0139 0.123535 97.4399 0.123535C96.8664 0.123535 96.3514 0.443311 96.0977 0.957879L93.8375 5.53799C93.7414 5.7332 93.555 5.86822 93.3397 5.89957L88.2852 6.63401C87.7171 6.71635 87.2539 7.10677 87.0763 7.65311C86.899 8.19944 87.0441 8.78716 87.455 9.18762L91.1121 12.7524C91.2681 12.9045 91.3395 13.1236 91.3027 13.3376L90.44 18.3712C90.3635 18.8143 90.4797 19.2453 90.7664 19.5851C91.212 20.1148 91.99 20.2761 92.6119 19.9492L97.1323 17.5724C97.3212 17.4734 97.5591 17.4742 97.7476 17.5724L102.268 19.9492C102.488 20.065 102.723 20.1235 102.965 20.1235C103.407 20.1235 103.825 19.9271 104.113 19.5851C104.401 19.2453 104.516 18.8135 104.44 18.3712L103.577 13.3376C103.54 13.1232 103.611 12.9045 103.767 12.7524L107.424 9.1872Z" fill="url(#paint3_linear)"/>
<path d="M134.423 9.1872C134.833 8.78675 134.978 8.19903 134.801 7.65269C134.624 7.10635 134.161 6.71635 133.592 6.63359L128.538 5.89915C128.323 5.8678 128.137 5.73278 128.04 5.53757L125.781 0.957879C125.527 0.443311 125.012 0.123535 124.438 0.123535C123.864 0.123535 123.349 0.443311 123.096 0.957879L120.836 5.53799C120.739 5.7332 120.553 5.86822 120.338 5.89957L115.283 6.63401C114.715 6.71635 114.252 7.10677 114.074 7.65311C113.897 8.19944 114.042 8.78716 114.453 9.18762L118.11 12.7524C118.266 12.9045 118.338 13.1236 118.301 13.3376L117.438 18.3712C117.362 18.8143 117.478 19.2453 117.764 19.5851C118.21 20.1148 118.988 20.2761 119.61 19.9492L124.13 17.5724C124.319 17.4734 124.557 17.4742 124.746 17.5724L129.266 19.9492C129.486 20.065 129.721 20.1235 129.963 20.1235C130.405 20.1235 130.823 19.9271 131.111 19.5851C131.399 19.2453 131.514 18.8135 131.438 18.3712L130.575 13.3376C130.538 13.1232 130.609 12.9045 130.765 12.7524L134.423 9.1872Z" fill="url(#paint4_linear)"/>
<defs>
<linearGradient id="paint0_linear" x1="7.38166e-08" y1="10.1238" x2="20.8756" y2="10.1238" gradientUnits="userSpaceOnUse">
<stop stop-color="#4351D8"/>
<stop offset="1" stop-color="#6D7BFF"/>
</linearGradient>
<linearGradient id="paint1_linear" x1="58.001" y1="10.1238" x2="78.8765" y2="10.1238" gradientUnits="userSpaceOnUse">
<stop stop-color="#4351D8"/>
<stop offset="1" stop-color="#6D7BFF"/>
</linearGradient>
<linearGradient id="paint2_linear" x1="29.001" y1="10.1238" x2="49.8765" y2="10.1238" gradientUnits="userSpaceOnUse">
<stop stop-color="#4351D8"/>
<stop offset="1" stop-color="#6D7BFF"/>
</linearGradient>
<linearGradient id="paint3_linear" x1="87.002" y1="10.1238" x2="107.878" y2="10.1238" gradientUnits="userSpaceOnUse">
<stop stop-color="#4351D8"/>
<stop offset="1" stop-color="#6D7BFF"/>
</linearGradient>
<linearGradient id="paint4_linear" x1="114" y1="10.1238" x2="134.876" y2="10.1238" gradientUnits="userSpaceOnUse">
<stop stop-color="#4351D8"/>
<stop offset="1" stop-color="#6D7BFF"/>
</linearGradient>
</defs>
</svg>
