<svg width="51" height="51" viewBox="0 0 51 51" fill="none" xmlns="http://www.w3.org/2000/svg">
<path d="M46.7898 37.0361C45.8714 36.3955 44.6652 35.4156 43.6608 34.1303C47.7069 30.4605 50.0019 25.4834 50.0019 20.2832C50.0019 14.9999 47.7067 10.0427 43.5391 6.32443C39.4187 2.64822 33.9511 0.623535 28.1438 0.623535C22.3366 0.623535 16.869 2.64812 12.7484 6.32443C8.58088 10.0426 6.28568 14.9999 6.28568 20.2832C6.28568 20.9439 6.32162 21.5996 6.39262 22.2485C2.50195 25.0161 0 29.3038 0 34.1086C0 37.9995 1.66666 41.7255 4.61677 44.521C4.15045 45.071 3.58754 45.5993 2.9505 46.0821C2.17108 46.673 1.81833 47.6669 2.05203 48.614C2.28622 49.5631 3.06261 50.2804 4.02964 50.4411C4.76502 50.5634 5.49933 50.6235 6.22396 50.6235C8.59133 50.6235 10.8544 49.9814 12.7071 48.7659C14.0253 49.0605 15.3815 49.2094 16.7487 49.2094C23.8468 49.2094 29.927 45.2074 32.3614 39.5748C32.7881 39.4997 33.2125 39.4141 33.6336 39.3161C36.058 40.9564 39.0843 41.8247 42.2221 41.8247C43.4435 41.8247 44.6819 41.693 45.9081 41.4243C46.8594 41.2157 47.5968 40.4649 47.7867 39.5112C47.9759 38.5621 47.5846 37.5904 46.7898 37.0361ZM33.5633 36.3153C31.8092 36.7782 29.9859 37.013 28.1438 37.013C17.7067 37.013 9.21558 29.508 9.21558 20.2832C9.21558 11.0583 17.7067 3.55333 28.1438 3.55333C38.5809 3.55333 47.0721 11.0583 47.0721 20.2832C47.0721 25.0181 44.7827 29.5533 40.7909 32.7258C40.2128 33.1853 40.067 34.0032 40.4509 34.634C41.5262 36.4015 42.9607 37.7821 44.196 38.7576C40.7436 39.2434 37.3055 38.4528 34.8238 36.5657C34.566 36.3698 34.254 36.2669 33.937 36.2669C33.8121 36.2669 33.6865 36.2828 33.5633 36.3153ZM12.7807 45.7692C12.3445 45.6538 11.8793 45.7465 11.5203 46.0195C9.93465 47.2254 7.83183 47.8079 5.6216 47.6766C6.52632 46.8688 7.26951 45.9904 7.83877 45.0547C8.22257 44.4238 8.07677 43.606 7.49872 43.1465C4.59509 40.8388 2.9298 37.5447 2.9298 34.1086C2.9298 30.725 4.50593 27.6601 7.04489 25.452C8.03633 28.7506 9.97801 31.7701 12.7484 34.2419C16.8689 37.9182 22.3365 39.9428 28.1438 39.9428C28.3898 39.9428 28.6354 39.9386 28.8809 39.9311C26.5332 43.7107 21.9753 46.2797 16.7487 46.2797C15.3997 46.2797 14.0647 46.1078 12.7807 45.7692Z" fill="white"/>
<path d="M23.4087 18.8704C24.2178 18.8704 24.8736 18.2145 24.8736 17.4055V13.7237C24.8736 12.9147 24.2178 12.2588 23.4087 12.2588C22.5997 12.2588 21.9438 12.9147 21.9438 13.7237V17.4055C21.9438 18.2145 22.5997 18.8704 23.4087 18.8704Z" fill="white"/>
<path d="M32.2452 18.9165C33.0542 18.9165 33.7101 18.2606 33.7101 17.4516V13.7698C33.7101 12.9608 33.0542 12.3049 32.2452 12.3049C31.4362 12.3049 30.7803 12.9608 30.7803 13.7698V17.4516C30.7803 18.2606 31.4362 18.9165 32.2452 18.9165Z" fill="white"/>
<path d="M40.9814 19.8448C40.9814 19.0358 40.3255 18.3799 39.5165 18.3799C38.7075 18.3799 38.0516 19.0358 38.0516 19.8448C38.0516 24.2139 33.5888 27.7684 28.103 27.7684C22.6173 27.7684 18.1544 24.214 18.1544 19.8448C18.1544 19.0358 17.4985 18.3799 16.6895 18.3799C15.8805 18.3799 15.2246 19.0358 15.2246 19.8448C15.2246 22.7987 16.6016 25.5581 19.1019 27.6148C21.5191 29.6032 24.7158 30.6982 28.103 30.6982C31.4904 30.6982 34.687 29.6032 37.1042 27.6148C39.6044 25.5581 40.9814 22.7987 40.9814 19.8448Z" fill="white"/>
</svg>
