<svg width="30" height="31" viewBox="0 0 30 31" fill="none" xmlns="http://www.w3.org/2000/svg">
<path d="M7.22766 23.2723C7.51828 27.3065 10.893 30.5 15 30.5C16.1436 30.5 17.2463 30.2567 18.2776 29.7768C18.571 29.6403 18.6981 29.2917 18.5616 28.9983C18.4251 28.705 18.0766 28.5777 17.7832 28.7143C16.9079 29.1216 15.9715 29.3281 15 29.3281C11.5385 29.3281 8.68934 26.6579 8.40299 23.2692C11.3876 23.037 13.9053 21.1159 15 18.4634C16.0947 21.116 18.6125 23.0371 21.5971 23.2692C21.5389 23.9629 21.3728 24.6373 21.1005 25.2804C20.9743 25.5784 21.1136 25.9222 21.4115 26.0485C21.7096 26.1748 22.0534 26.0354 22.1796 25.7374C22.5131 24.9499 22.7117 24.123 22.7726 23.2723C26.8066 22.9816 30 19.6068 30 15.5C30 11.393 26.8065 8.01828 22.7723 7.72766C22.4817 3.69354 19.107 0.5 15 0.5C10.893 0.5 7.51828 3.69354 7.22766 7.72766C3.19348 8.01828 0 11.393 0 15.5C0 19.607 3.19348 22.9817 7.22766 23.2723ZM8.40768 22.0923C8.70012 18.9311 11.224 16.4072 14.3852 16.1148C14.0929 19.276 11.5689 21.7999 8.40768 22.0923ZM15.6147 16.1147C18.776 16.4071 21.2999 18.931 21.5923 22.0923C18.4311 21.7999 15.9071 19.276 15.6147 16.1147ZM28.8281 15.5C28.8281 18.9615 26.1579 21.8107 22.7692 22.097C22.537 19.1125 20.616 16.5947 17.9634 15.5C20.616 14.4053 22.537 11.8876 22.7692 8.90299C26.1579 9.18934 28.8281 12.0385 28.8281 15.5ZM15.6147 14.8853C15.9071 11.724 18.431 9.20018 21.5923 8.90773C21.2999 12.0689 18.776 14.5929 15.6147 14.8853ZM15 1.67188C18.4615 1.67188 21.3107 4.34205 21.597 7.73082C18.6124 7.96303 16.0947 9.88408 15 12.5366C13.9053 9.88402 11.3876 7.96297 8.40299 7.73082C8.68934 4.34205 11.5385 1.67188 15 1.67188ZM14.3853 14.8853C11.224 14.5929 8.70018 12.069 8.40773 8.90773C11.5689 9.20012 14.0929 11.724 14.3853 14.8853ZM7.23082 8.90299C7.46303 11.8875 9.38402 14.4053 12.0366 15.5C9.38402 16.5947 7.46303 19.1124 7.23082 22.097C3.84205 21.8107 1.17188 18.9615 1.17188 15.5C1.17188 12.0385 3.84205 9.18934 7.23082 8.90299Z" fill="white"/>
<path d="M20.1562 28.2734C20.4799 28.2734 20.7422 28.0111 20.7422 27.6875C20.7422 27.3639 20.4799 27.1016 20.1562 27.1016C19.8326 27.1016 19.5703 27.3639 19.5703 27.6875C19.5703 28.0111 19.8326 28.2734 20.1562 28.2734Z" fill="white"/>
</svg>
