<svg width="35" height="35" viewBox="0 0 35 35" fill="none" xmlns="http://www.w3.org/2000/svg">
<g clip-path="url(#clip0)">
<path d="M0.957523 15.4266C1.07096 14.7156 1.73936 14.2312 2.45038 14.3446C3.1614 14.4581 3.64578 15.1265 3.53234 15.8375C3.53112 15.8453 3.52982 15.853 3.52844 15.8607C2.20082 23.676 7.46014 31.0878 15.2755 32.4155C23.0908 33.7431 30.5026 28.4838 31.8303 20.6684C33.1579 12.8531 27.8985 5.44128 20.0832 4.11365C15.2769 3.29722 10.3848 4.97608 7.09272 8.57174L12.868 10.496C13.5513 10.7233 13.9207 11.4614 13.6935 12.1446C13.6934 12.1447 13.6933 12.1449 13.6933 12.1451C13.4659 12.8283 12.7279 13.1978 12.0447 12.9706C12.0444 12.9705 12.0443 12.9704 12.0441 12.9704L4.22197 10.363C3.6894 10.1857 3.33014 9.68724 3.33022 9.12586L3.33022 1.30372C3.33022 0.583682 3.9139 0 4.63393 0C5.35397 0 5.93765 0.583682 5.93765 1.30372V6.06606C12.6516 -0.319684 23.271 -0.0536241 29.6567 6.66028C36.0425 13.3742 35.7765 23.9936 29.0625 30.3794C22.3485 36.7652 11.7292 36.4992 5.34335 29.7852C1.702 25.9566 0.0769196 20.6364 0.957523 15.4266Z" fill="#4351D8"/>
</g>
<defs>
<clipPath id="clip0">
<rect width="35" height="35" fill="white" transform="matrix(-1 0 0 1 35 0)"/>
</clipPath>
</defs>
</svg>
