<svg width="35" height="35" viewBox="0 0 35 35" fill="none" xmlns="http://www.w3.org/2000/svg">
<g clip-path="url(#clip0)">
<path d="M34.0425 15.4266C33.929 14.7156 33.2606 14.2312 32.5496 14.3446C31.8386 14.4581 31.3542 15.1265 31.4677 15.8375C31.4689 15.8453 31.4702 15.853 31.4716 15.8607C32.7992 23.676 27.5399 31.0878 19.7245 32.4155C11.9092 33.7431 4.49736 28.4838 3.16974 20.6684C1.84211 12.8531 7.10151 5.44128 14.9168 4.11365C19.7231 3.29722 24.6152 4.97608 27.9073 8.57174L22.132 10.496C21.4487 10.7233 21.0793 11.4614 21.3065 12.1446C21.3066 12.1447 21.3067 12.1449 21.3067 12.1451C21.5341 12.8283 22.2721 13.1978 22.9553 12.9706C22.9556 12.9705 22.9557 12.9704 22.9559 12.9704L30.778 10.363C31.3106 10.1857 31.6699 9.68724 31.6698 9.12586V1.30372C31.6698 0.583682 31.0861 0 30.3661 0C29.646 0 29.0623 0.583682 29.0623 1.30372V6.06606C22.3484 -0.319684 11.729 -0.0536241 5.34328 6.66028C-1.04246 13.3742 -0.776478 23.9936 5.93751 30.3794C12.6515 36.7652 23.2708 36.4992 29.6566 29.7852C33.298 25.9566 34.9231 20.6364 34.0425 15.4266Z" fill="#4351D8"/>
</g>
<defs>
<clipPath id="clip0">
<rect width="35" height="35" fill="white"/>
</clipPath>
</defs>
</svg>
