<svg width="85" height="85" viewBox="0 0 85 85" fill="none" xmlns="http://www.w3.org/2000/svg">
<g clip-path="url(#clip0)">
<path d="M3.3203 34.2246C3.3203 29.5242 4.47161 25.0903 6.74203 21.0462C7.19094 20.2466 6.90655 19.2346 6.10719 18.7859C5.30766 18.3373 4.29564 18.621 3.8469 19.4207C1.33028 23.9033 0 29.0225 0 34.2246C0 40.3409 1.54161 46.95 4.2294 52.3571C6.88713 57.7034 7.59751 63.771 6.22988 69.4424L3.78232 79.5928C3.5675 80.4842 4.11584 81.381 5.00718 81.5958C5.13783 81.6273 5.26882 81.6425 5.39764 81.6425C6.14704 81.6425 6.82687 81.1316 7.01031 80.3711L9.45787 70.2206C11.0081 63.7919 10.2073 56.923 7.20289 50.8792C4.73525 45.9157 3.3203 39.8454 3.3203 34.2246Z" fill="#4351D8"/>
<path d="M84.106 48.9253L45.4729 28.8159L84.106 8.70655C84.9192 8.28321 85.2355 7.28081 84.8121 6.4675C84.3888 5.65436 83.3864 5.33777 82.5731 5.76144L58.2164 18.4395C52.5757 9.10116 42.6144 3.35754 31.8734 3.35754C25.7759 3.35754 19.8473 5.01935 14.7286 8.16351C13.9473 8.64346 13.7029 9.66578 14.1829 10.447C14.6627 11.2281 15.6852 11.4727 16.4663 10.9927C21.0622 8.16998 26.3898 6.67784 31.8736 6.67784C41.378 6.67784 50.2051 11.7368 55.2651 19.9758L43.0474 26.3353C42.6271 23.7103 41.4065 21.2843 39.5065 19.3552C37.12 16.9323 33.9345 15.5678 30.5368 15.5128C27.0886 15.4562 23.8275 16.7398 21.36 19.1243C18.8916 21.51 17.4997 24.7237 17.4411 28.1736C17.4411 28.1831 17.4409 28.1924 17.4409 28.2018V43.4113C17.4409 44.1481 17.9264 44.7965 18.6332 45.0042L32.7219 49.1431C32.8757 49.1883 33.0332 49.2104 33.1896 49.2104C33.5442 49.2104 33.894 49.0967 34.1845 48.8793C34.6032 48.5659 34.8499 48.0733 34.8499 47.5502V43.4585H37.032C39.7558 43.4585 41.972 41.2423 41.972 38.5185V36.96H43.6713C44.1981 36.96 44.6934 36.7101 45.0064 36.2864C45.3195 35.8628 45.4129 35.3158 45.2584 34.8124L44.3938 31.997L61.223 40.7569L64.4799 51.3608H57.8295C56.9128 51.3608 56.1694 52.104 56.1694 53.0209V61.5443C56.1694 65.4179 53.0179 68.5694 49.1443 68.5694H38.9697C38.1631 68.5694 37.473 69.1494 37.3343 69.944L35.632 79.696C35.4743 80.5993 36.0786 81.4593 36.9819 81.617C37.0785 81.6339 37.1745 81.6419 37.2693 81.6419C38.061 81.6419 38.7619 81.0736 38.9027 80.267L40.3651 71.8897H49.1443C54.8487 71.8897 59.4897 67.2487 59.4897 61.5443V54.6811H66.7264C67.2532 54.6811 67.7486 54.4312 68.0615 54.0075C68.3746 53.584 68.4681 53.037 68.3135 52.5335L65.3575 42.9089L82.5734 51.8703C82.8184 51.9978 83.0804 52.0582 83.3384 52.0582C83.9377 52.0582 84.5166 51.7326 84.8124 51.1642C85.2355 50.3512 84.9194 49.3487 84.106 48.9253ZM40.3115 33.64C39.3947 33.64 38.6513 34.3832 38.6513 35.3001V38.5188C38.6513 39.4118 37.9247 40.1385 37.0317 40.1385H33.1894C32.2727 40.1385 31.5293 40.8817 31.5293 41.7986V45.3326L20.7609 42.1692V28.217C20.8577 22.9564 25.2083 18.7521 30.4832 18.8331C35.6707 18.917 39.891 23.2076 39.891 28.3976C39.891 28.5628 39.9155 28.727 39.964 28.885L41.4244 33.6402H40.3115V33.64Z" fill="#4351D8"/>
<path d="M9.76669 15.9094C9.32825 15.9094 8.90175 15.7317 8.59296 15.4229C8.28417 15.1125 8.10654 14.6858 8.10654 14.2492C8.10654 13.8109 8.28401 13.3843 8.59296 13.0738C8.90175 12.765 9.32841 12.5874 9.76669 12.5874C10.2033 12.5874 10.6316 12.765 10.9403 13.0738C11.249 13.3843 11.4268 13.8109 11.4268 14.2492C11.4268 14.6858 11.2492 15.1125 10.9403 15.4229C10.6316 15.7316 10.2033 15.9094 9.76669 15.9094Z" fill="#4351D8"/>
</g>
<defs>
<clipPath id="clip0">
<rect width="85" height="85" fill="white"/>
</clipPath>
</defs>
</svg>
