<svg width="34" height="34" viewBox="0 0 34 34" fill="none" xmlns="http://www.w3.org/2000/svg">
<g clip-path="url(#clip0)">
<path d="M31.6664 15.0627L30.8032 11.6099C31.0392 11.5598 31.2162 11.3504 31.2162 11.0996V10.5429C31.2162 9.33413 30.2328 8.35079 29.0242 8.35079H25.0924V7.20249C25.0924 6.60769 24.6086 6.12384 24.0138 6.12384H3.97197C3.37718 6.12384 2.89333 6.60769 2.89333 7.20249V16.6667C2.89333 16.9549 3.12699 17.1886 3.41527 17.1886C3.70348 17.1886 3.93721 16.955 3.93721 16.6667V7.20249C3.93721 7.18328 3.95277 7.16772 3.97197 7.16772H24.0137C24.0329 7.16772 24.0485 7.18328 24.0485 7.20249V16.6668C24.0485 16.955 24.2821 17.1887 24.5704 17.1887C24.8586 17.1887 25.0924 16.9551 25.0924 16.6668V16.0751H31.2492C31.2497 16.0751 31.2501 16.0753 31.2506 16.0753C31.2511 16.0753 31.2515 16.0752 31.252 16.0752C32.0096 16.0757 32.6529 16.573 32.8739 17.2582H31.2509C30.9627 17.2582 30.729 17.4919 30.729 17.7802V18.8936C30.729 19.7953 31.4626 20.5289 32.3644 20.5289H32.9559V22.8253H31.5912C31.1429 21.5309 29.9123 20.5984 28.4673 20.5984C27.0224 20.5984 25.7918 21.5309 25.3435 22.8253H25.0922V18.8935C25.0922 18.6053 24.8586 18.3716 24.5703 18.3716C24.2821 18.3716 24.0483 18.6052 24.0483 18.8935V22.8252H13.2197C12.7714 21.5307 11.5409 20.5983 10.0959 20.5983C8.65088 20.5983 7.42028 21.5307 6.97204 22.8252H3.97197C3.95277 22.8252 3.93721 22.8096 3.93721 22.7904V21.6422H6.19886C6.48708 21.6422 6.7208 21.4085 6.7208 21.1203C6.7208 20.832 6.48714 20.5983 6.19886 20.5983H1.18844C0.900228 20.5983 0.666504 20.832 0.666504 21.1203C0.666504 21.4085 0.900163 21.6422 1.18844 21.6422H2.89339V22.7904C2.89339 23.3852 3.37725 23.8691 3.97204 23.8691H6.79131C6.79118 23.8807 6.7904 23.8922 6.7904 23.9039C6.7904 25.7265 8.27327 27.2093 10.0959 27.2093C11.9185 27.2093 13.4013 25.7265 13.4013 23.9039C13.4013 23.8921 13.4006 23.8807 13.4004 23.8691H25.1628C25.1627 23.8807 25.1619 23.8922 25.1619 23.9039C25.1619 25.7265 26.6448 27.2093 28.4673 27.2093C30.2899 27.2093 31.7728 25.7265 31.7728 23.9039C31.7728 23.8921 31.772 23.8807 31.7719 23.8691H33.4778C33.766 23.8691 33.9998 23.6354 33.9998 23.3471V17.78C33.9998 16.4055 32.9857 15.2636 31.6664 15.0627ZM25.0924 9.39461H29.0242C29.6573 9.39461 30.1724 9.90971 30.1724 10.5429V10.5776H25.0924V9.39461ZM25.0924 15.0313V11.6214H29.7301L30.5826 15.0313H25.0924ZM10.0959 26.1656C8.8488 26.1656 7.83421 25.1511 7.83421 23.904C7.83421 22.6568 8.8488 21.6423 10.0959 21.6423C11.3429 21.6423 12.3575 22.6568 12.3575 23.904C12.3575 25.1511 11.3429 26.1656 10.0959 26.1656ZM28.4675 26.1656C27.2204 26.1656 26.2058 25.1511 26.2058 23.904C26.2058 22.6568 27.2204 21.6423 28.4675 21.6423C29.7146 21.6423 30.7291 22.6568 30.7291 23.904C30.7291 25.1511 29.7146 26.1656 28.4675 26.1656ZM32.956 19.485H32.3645C32.0383 19.485 31.7729 19.2197 31.7729 18.8935V18.302H32.956V19.485H32.956Z" fill="#3E425B"/>
<path d="M10.0957 22.8254C9.50094 22.8254 9.01709 23.3092 9.01709 23.904C9.01709 24.4988 9.50094 24.9827 10.0957 24.9827C10.6905 24.9827 11.1744 24.4988 11.1744 23.904C11.1744 23.3092 10.6905 22.8254 10.0957 22.8254Z" fill="#3E425B"/>
<path d="M28.4673 22.8254C27.8725 22.8254 27.3887 23.3092 27.3887 23.904C27.3887 24.4988 27.8725 24.9827 28.4673 24.9827C29.0621 24.9827 29.546 24.4988 29.546 23.904C29.546 23.3092 29.0621 22.8254 28.4673 22.8254Z" fill="#3E425B"/>
<path d="M22.3438 20.5984H14.5498C14.2616 20.5984 14.0278 20.8321 14.0278 21.1204C14.0278 21.4087 14.2615 21.6423 14.5498 21.6423H22.3438C22.632 21.6423 22.8657 21.4087 22.8657 21.1204C22.8657 20.8321 22.632 20.5984 22.3438 20.5984Z" fill="#3E425B"/>
<path d="M8.98231 18.3716H2.30172C2.01351 18.3716 1.77979 18.6053 1.77979 18.8936C1.77979 19.1818 2.01344 19.4155 2.30172 19.4155H8.98231C9.27053 19.4155 9.50425 19.1818 9.50425 18.8936C9.50425 18.6053 9.27053 18.3716 8.98231 18.3716Z" fill="#3E425B"/>
<path d="M18.8159 11.2871C18.6121 11.0834 18.2815 11.0834 18.0778 11.2872L13.4364 15.9285L11.0218 13.514C10.818 13.3102 10.4875 13.3102 10.2837 13.514C10.0799 13.7179 10.0799 14.0483 10.2837 14.2521L13.0673 17.0357C13.1692 17.1376 13.3028 17.1886 13.4364 17.1886C13.5699 17.1886 13.7035 17.1376 13.8054 17.0357L18.8158 12.0253C19.0196 11.8214 19.0196 11.491 18.8159 11.2871Z" fill="#3E425B"/>
</g>
<defs>
<clipPath id="clip0">
<rect width="33.3333" height="33.3333" fill="white" transform="translate(0.666504)"/>
</clipPath>
</defs>
</svg>
