<svg width="60" height="60" viewBox="0 0 60 60" fill="none" xmlns="http://www.w3.org/2000/svg">
<circle cx="30" cy="30" r="30" fill="#4351D8"/>
<path d="M42.5707 41.9498H18.0735C16.8427 41.9498 15.845 42.9475 15.845 44.1783V45.3686C15.845 46.5994 16.8427 47.5972 18.0735 47.5972H42.5707C43.8015 47.5972 44.7993 46.5994 44.7993 45.3686V44.1783C44.7993 42.9475 43.8015 41.9498 42.5707 41.9498Z" stroke="white" stroke-width="1.5"/>
<path d="M44.7996 43.5814C45.2842 43.5814 45.677 43.9743 45.677 44.4588V45.0885C45.677 45.5731 45.2842 45.9659 44.7996 45.9659V43.5814Z" stroke="white" stroke-width="1.5"/>
<path d="M34.7092 41.9498V34.5454L37.3414 34.9528V41.9498H34.7092Z" stroke="white" stroke-width="1.5"/>
<path d="M40.3027 29.651L40.3576 22.5603L41.7833 22.4976L41.7285 29.8393L40.3027 29.651Z" stroke="white" stroke-width="1.5"/>
<path d="M45.5671 35.2984C43.922 35.8631 33.5028 34.6709 32.9544 34.0434C32.4061 33.4159 32.0771 29.0862 32.9544 28.898C33.8318 28.7097 45.2929 30.4039 45.5671 30.4039C45.8413 30.4039 47.0477 33.0394 45.5671 35.2984Z" stroke="white" stroke-width="1.5"/>
<path d="M34.0513 19.8809C35.6261 19.8809 36.9028 18.42 36.9028 16.6179C36.9028 14.8158 35.6261 13.3549 34.0513 13.3549C32.4764 13.3549 31.1997 14.8158 31.1997 16.6179C31.1997 18.42 32.4764 19.8809 34.0513 19.8809Z" stroke="white" stroke-width="1.5"/>
<path d="M33.1189 13.5433C36.0253 12.4765 40.3575 11.8301 43.9767 11.9556C46.9585 12.059 47.3767 20.2574 44.4155 20.7595C41.4542 21.2614 36.5408 21.4999 33.1189 19.6927" stroke="white" stroke-width="1.5"/>
<path d="M45.5123 12.9597C46.3166 13.0015 47.8155 13.2735 47.8155 16.3482C47.8155 18.9663 46.4445 19.7994 45.7317 19.8621" stroke="white" stroke-width="1.5"/>
<path d="M38.3834 21.0544C38.274 21.6311 37.9995 22.1839 38.3834 22.4348C38.7673 22.6858 42.3318 22.4976 43.0994 22.3093C43.8672 22.1211 43.264 20.9288 43.264 20.9288" stroke="white" stroke-width="1.5"/>
<path d="M47.8154 16.2227C50.7218 19.9876 50.7766 40.1302 45.6768 44.8364" stroke="white" stroke-width="1.5"/>
<path d="M15.8452 43.5814C15.3606 43.5814 14.9678 43.9743 14.9678 44.4588V45.0885C14.9678 45.5731 15.3606 45.9659 15.8452 45.9659V43.5814Z" stroke="white" stroke-width="1.5"/>
<path d="M25.891 41.9498V34.5454L23.2588 34.9528V41.9498H25.891Z" stroke="white" stroke-width="1.5"/>
<path d="M20.2973 29.651L20.2424 22.5603L18.8167 22.4976L18.8715 29.8393L20.2973 29.651Z" stroke="white" stroke-width="1.5"/>
<path d="M15.0329 35.2984C16.678 35.8631 27.0972 34.6709 27.6456 34.0434C28.194 33.4159 28.523 29.0862 27.6456 28.898C26.7682 28.7097 15.3071 30.4039 15.0329 30.4039C14.7587 30.4039 13.5523 33.0394 15.0329 35.2984Z" stroke="white" stroke-width="1.5"/>
<path d="M26.5488 19.8809C24.974 19.8809 23.6973 18.42 23.6973 16.6179C23.6973 14.8158 24.974 13.3549 26.5488 13.3549C28.1237 13.3549 29.4004 14.8158 29.4004 16.6179C29.4004 18.42 28.1237 19.8809 26.5488 19.8809Z" stroke="white" stroke-width="1.5"/>
<path d="M27.481 13.5433C24.5746 12.4765 20.2424 11.8301 16.6231 11.9556C13.6413 12.059 13.2232 20.2574 16.1844 20.7595C19.1457 21.2614 24.0591 21.4999 27.481 19.6927" stroke="white" stroke-width="1.5"/>
<path d="M15.088 12.9597C14.2837 13.0015 12.7848 13.2735 12.7848 16.3482C12.7848 18.9663 14.1557 19.7994 14.8686 19.8621" stroke="white" stroke-width="1.5"/>
<path d="M22.2167 21.0544C22.3261 21.6311 22.6006 22.1839 22.2167 22.4348C21.8328 22.6858 18.2683 22.4976 17.5006 22.3093C16.7329 22.1211 17.3361 20.9288 17.3361 20.9288" stroke="white" stroke-width="1.5"/>
<path d="M12.7846 16.2227C9.87818 19.9876 9.82334 40.1302 14.9232 44.8364" stroke="white" stroke-width="1.5"/>
</svg>
