<svg width="85" height="85" viewBox="0 0 85 85" fill="none" xmlns="http://www.w3.org/2000/svg">
<g clip-path="url(#clip0)">
<path d="M23.1655 70.6196C18.663 69.7058 13.9911 69.837 9.65481 70.9989L4.35326 72.4195C3.60487 72.6199 3.10001 72.2173 2.91756 72.0348C2.73511 71.8524 2.33236 71.3474 2.5329 70.5991L4.10939 64.7157C5.24693 60.4705 5.43519 56.0477 4.65375 51.9252C4.3433 50.288 4.18592 48.5446 4.18592 46.7437C4.18592 44.9428 4.3433 43.1994 4.65375 41.562C5.43519 37.4397 5.24693 33.0169 4.10939 28.7715L2.5329 22.8881C2.33236 22.1398 2.73511 21.6348 2.91756 21.4524C3.10001 21.2701 3.60487 20.8672 4.3531 21.0677L9.65481 22.4883C12.7035 23.3051 15.8708 23.6162 19.0686 23.4124C19.7517 23.3689 20.2702 22.7798 20.2267 22.0967C20.1832 21.4135 19.5933 20.8942 18.911 20.9386C15.9827 21.1252 13.0842 20.8408 10.2965 20.0939L4.99475 18.6733C3.61051 18.3024 2.17846 18.6861 1.16493 19.6994C0.151243 20.7131 -0.232253 22.1448 0.138626 23.5296L1.71511 29.413C2.75686 33.3006 2.93084 37.3419 2.21847 41.1003C1.8793 42.8895 1.70731 44.788 1.70731 46.7435C1.70731 48.699 1.8793 50.5976 2.21847 52.3867C2.93084 56.1453 2.75669 60.1868 1.71511 64.0741L0.138626 69.9575C-0.232253 71.3421 0.151243 72.7739 1.16493 73.7875C1.92412 74.5467 2.91773 74.9524 3.95051 74.9524C4.29665 74.9524 4.64728 74.9067 4.99475 74.8138L10.2963 73.3932C14.2642 72.33 18.5439 72.2108 22.6724 73.0487C23.3431 73.1847 23.9974 72.7514 24.1335 72.0807C24.2698 71.41 23.8364 70.7557 23.1655 70.6196Z" fill="#4351D8"/>
<path d="M83.2848 64.0742C82.2431 60.1868 82.0691 56.1455 82.7815 52.3869C83.1207 50.5977 83.2927 48.699 83.2927 46.7437C83.2927 44.7884 83.1207 42.8898 82.7815 41.1005C82.0691 37.3421 82.2431 33.3007 83.2848 29.4132L84.8613 23.5297C85.2322 22.1452 84.8487 20.7133 83.835 19.6997C82.8215 18.6862 81.3898 18.3027 80.005 18.6734L74.7035 20.094C70.1685 21.3094 65.3037 21.2907 60.6352 20.0406C55.3901 18.6361 49.2885 17.9239 42.4998 17.9239C35.7111 17.9239 29.6095 18.6361 24.3644 20.0406C23.7032 20.2175 23.3107 20.8972 23.4879 21.5583C23.6648 22.2195 24.3443 22.6122 25.0056 22.4349C30.0415 21.0863 35.9274 20.4027 42.4998 20.4027C49.0722 20.4027 54.958 21.0865 59.994 22.4349C65.0819 23.7975 70.3903 23.8158 75.345 22.4883L80.6465 21.0677C81.3944 20.867 81.8996 21.2699 82.0822 21.4524C82.2647 21.6348 82.6674 22.1398 82.4669 22.8881L80.8904 28.7715C79.7529 33.0169 79.5646 37.4397 80.346 41.562C80.6563 43.1994 80.8137 44.9428 80.8137 46.7437C80.8137 48.5446 80.6563 50.288 80.346 51.9252C79.5646 56.0475 79.7529 60.4705 80.8904 64.7157L82.4669 70.5991C82.6674 71.3474 82.2647 71.8524 82.0822 72.0348C81.8998 72.2171 81.3949 72.6202 80.6467 72.4195L75.3452 70.9989C70.3906 69.6714 65.0824 69.6899 59.994 71.0524C59.1469 71.2793 58.2693 71.4882 57.3693 71.6784C58.2401 70.116 58.8739 68.3996 59.2113 66.5721C61.8766 65.7165 63.8663 62.3083 64.0865 59.319C64.2532 57.0579 63.3724 55.6926 62.6043 54.9455C62.3563 54.7043 62.078 54.4913 61.778 54.3012V46.5197C61.778 38.8093 55.5051 32.5364 47.7947 32.5364H37.3141C29.6037 32.5364 23.3308 38.8093 23.3308 46.5197V54.2343C22.9882 54.44 22.6734 54.6756 22.3957 54.9457C21.6275 55.6928 20.7468 57.0581 20.9133 59.3192C21.1451 62.4654 23.2897 65.9144 26.0185 66.6375C27.5078 74.5327 34.4778 80.3738 42.6089 80.3738C47.6282 80.3738 52.2021 78.1464 55.3202 74.5862C57.1681 74.2795 58.9561 73.8967 60.6353 73.4468C65.3039 72.1965 70.1685 72.1781 74.7035 73.3934L80.0052 74.814C80.3527 74.9071 80.7031 74.9526 81.0493 74.9526C82.0821 74.9526 83.0758 74.5468 83.835 73.7876C84.8487 72.774 85.2322 71.3422 84.8613 69.9577L83.2848 64.0742ZM42.6089 77.8949C35.3987 77.8949 29.2586 72.5125 28.3262 65.3748C28.2447 64.7509 27.717 64.2889 27.0798 64.296C25.4706 64.3194 23.5717 61.6668 23.3853 59.1369C23.3079 58.0865 23.5564 57.2741 24.1239 56.7222C24.6618 56.1991 25.4978 55.8819 26.5419 55.805C26.6548 55.7967 26.7649 55.7965 26.8784 55.8043C27.2202 55.8282 27.5584 55.7085 27.8096 55.4741C28.0608 55.2397 28.2034 54.9115 28.2034 54.568V49.2718C28.2034 47.1146 29.9585 45.3596 32.1157 45.3596H45.3093C45.9938 45.3596 46.5486 44.8048 46.5486 44.1203C46.5486 43.4358 45.9938 42.881 45.3093 42.881H32.1157C28.9436 42.881 26.3052 45.2044 25.8094 48.2385V46.5202C25.8094 40.1766 30.9704 35.0157 37.314 35.0157H47.7945C54.1382 35.0157 59.2991 40.1766 59.2991 46.5202V47.7109C58.6005 44.9391 56.0873 42.8812 53.1017 42.8812H51.3685C50.684 42.8812 50.1292 43.436 50.1292 44.1205C50.1292 44.805 50.684 45.3598 51.3685 45.3598H53.1019C55.2591 45.3598 57.014 47.1147 57.014 49.2719V54.5605C57.014 54.8904 57.1457 55.2068 57.3796 55.4394C57.6119 55.6704 57.926 55.7998 58.2534 55.7998H58.2607C58.338 55.7997 58.4004 55.8012 58.4581 55.8055C59.502 55.8824 60.3382 56.1994 60.8761 56.7227C61.4435 57.2746 61.6919 58.087 61.6147 59.1374C61.4342 61.5868 59.6301 64.1888 58.04 64.2932C57.4495 64.3321 56.9687 64.783 56.8924 65.37C55.9622 72.5101 49.8218 77.8949 42.6089 77.8949Z" fill="#4351D8"/>
<path d="M45.3817 65.6346C44.6228 66.2919 43.5995 66.6539 42.5 66.6539C41.4005 66.6539 40.3772 66.2919 39.6183 65.6346C39.1012 65.1864 38.3184 65.2425 37.8702 65.7598C37.4219 66.2771 37.478 67.0598 37.9953 67.5079C39.2046 68.5556 40.8045 69.1326 42.5 69.1326C44.1955 69.1326 45.7954 68.5555 47.0047 67.5079C47.522 67.0598 47.5781 66.2771 47.1298 65.7598C46.6818 65.2423 45.8988 65.1862 45.3817 65.6346Z" fill="#4351D8"/>
<path d="M52.571 56.693C51.9179 56.489 51.2226 56.8539 51.0189 57.5075C50.8346 58.0988 50.2939 58.4959 49.6735 58.4959C49.0531 58.4959 48.5124 58.0987 48.3281 57.5075C48.1244 56.854 47.4297 56.4895 46.7761 56.693C46.1226 56.8967 45.7579 57.5917 45.9616 58.2451C46.4704 59.8777 47.9621 60.9747 49.6734 60.9747C51.3847 60.9747 52.8763 59.8777 53.3851 58.2451C53.5892 57.5915 53.2246 56.8967 52.571 56.693Z" fill="#4351D8"/>
<path d="M39.2557 58.2451C39.4594 57.5917 39.0949 56.8967 38.4413 56.693C37.7882 56.489 37.0929 56.8539 36.8892 57.5075C36.7049 58.0988 36.1642 58.4959 35.544 58.4959C34.9237 58.4959 34.3828 58.0987 34.1986 57.5075C33.9949 56.854 33.2999 56.4895 32.6465 56.693C31.9931 56.8967 31.6283 57.5917 31.832 58.2451C32.3409 59.8777 33.8327 60.9747 35.5438 60.9747C37.2552 60.9747 38.7469 59.8777 39.2557 58.2451Z" fill="#4351D8"/>
<path d="M62.9769 37.9203C62.9769 38.9378 63.5606 39.2713 64.5613 39.2713H71.9836C72.7675 39.2713 73.4013 38.8709 73.4013 38.1205C73.4013 37.3699 72.7675 36.9695 71.9836 36.9695H66.6463L72.9343 29.4973C73.1847 29.2138 73.318 28.8469 73.318 28.5133C73.318 27.5626 72.7509 27.2624 72.0505 27.2624H64.845C64.0611 27.2624 63.4273 27.6627 63.4273 28.4132C63.4273 29.1638 64.0611 29.5642 64.845 29.5642H69.6153L63.4273 36.8696C63.1771 37.1697 62.9769 37.4867 62.9769 37.9203Z" fill="#4351D8"/>
<path d="M69.0618 17.8412H74.8716C75.2932 17.8412 75.7929 17.607 75.7929 16.951C75.7929 16.2951 75.2932 16.0608 74.8716 16.0608H71.1234L75.34 11.438C75.5587 11.2037 75.6993 10.9225 75.6993 10.6726C75.6993 10.0791 75.3713 9.67307 74.7621 9.67307H69.3429C68.9212 9.67307 68.4215 9.90748 68.4215 10.5634C68.4215 11.2193 68.9212 11.4536 69.3429 11.4536H72.6383L68.3435 16.1231C68.1404 16.3417 68.0468 16.6228 68.0468 16.9509C68.0468 17.4039 68.3903 17.8412 69.0618 17.8412Z" fill="#4351D8"/>
<path d="M59.9165 10.7382H64.2638C64.5794 10.7382 64.9533 10.5629 64.9533 10.0722C64.9533 9.58126 64.5792 9.40612 64.2638 9.40612H61.4591L64.6144 5.94702C64.7781 5.7717 64.8832 5.56136 64.8832 5.37443C64.8832 4.93034 64.6378 4.62653 64.182 4.62653H60.1269C59.8113 4.62653 59.4374 4.80184 59.4374 5.29275C59.4374 5.78366 59.8114 5.9588 60.1269 5.9588H62.5927L59.379 9.45294C59.2271 9.61663 59.157 9.82697 59.157 10.0723C59.157 10.411 59.4142 10.7382 59.9165 10.7382Z" fill="#4351D8"/>
</g>
<defs>
<clipPath id="clip0">
<rect width="85" height="85" fill="white"/>
</clipPath>
</defs>
</svg>
