<svg width="85" height="85" viewBox="0 0 85 85" fill="none" xmlns="http://www.w3.org/2000/svg">
<g clip-path="url(#clip0)">
<path d="M42.5269 53.8331H40.3586C40.3201 53.8331 40.2887 53.802 40.2887 53.7635V50.4681C40.2887 49.7809 39.7316 49.2238 39.0444 49.2238C38.3572 49.2238 37.8001 49.7809 37.8001 50.4681V53.7635C37.8001 55.1742 38.9479 56.3217 40.3586 56.3217H42.5269C44.1834 56.3217 45.531 57.6694 45.531 59.3258V70.633C45.531 70.9632 45.4273 71.2782 45.2311 71.5438L40.3964 78.091C40.2383 78.305 40.153 78.5642 40.153 78.8301V83.7556C40.153 84.4427 40.7101 84.9999 41.3973 84.9999C42.0845 84.9999 42.6416 84.4427 42.6416 83.7556V79.2397L47.2329 73.0222C47.7475 72.3254 48.0195 71.4992 48.0195 70.633V59.3258C48.0196 56.2974 45.5556 53.8331 42.5269 53.8331Z" fill="#4351D8"/>
<path d="M37.8001 45.1652C37.8001 45.8524 38.3572 46.4095 39.0444 46.4095C39.7316 46.4095 40.2887 45.8524 40.2887 45.1652V33.1599C40.2887 30.3114 37.9713 27.9941 35.123 27.9941C32.2747 27.9941 29.9574 30.3114 29.9574 33.1599V44.3927C29.3403 44.0787 28.6432 43.9003 27.9048 43.9003H26.6555C25.1862 43.9003 23.8784 44.6023 23.0478 45.688C22.2488 44.989 21.2045 44.564 20.062 44.564H18.8128C17.2055 44.564 15.7914 45.4041 14.9843 46.6677C14.2178 46.0774 13.2592 45.7253 12.2193 45.7253H10.97C8.466 45.7253 6.42883 47.7625 6.42883 50.2663V60.9874C6.42883 61.6746 6.98595 62.2317 7.67313 62.2317C8.36032 62.2317 8.91743 61.6746 8.91743 60.9874V50.2663C8.91743 49.1347 9.83821 48.2139 10.97 48.2139H12.2193C13.3511 48.2139 14.2719 49.1347 14.2719 50.2663V50.5905C14.2719 51.2777 14.829 51.8348 15.5162 51.8348C16.2034 51.8348 16.7605 51.2777 16.7605 50.5905V49.105C16.7605 47.9733 17.6813 47.0526 18.8129 47.0526H20.0622C21.194 47.0526 22.1148 47.9733 22.1148 49.105V50.5905C22.1148 51.2777 22.6719 51.8348 23.3591 51.8348C24.0463 51.8348 24.6034 51.2777 24.6034 50.5905V49.105C24.6034 48.9573 24.5958 48.8115 24.5818 48.6673C24.5953 48.594 24.6034 48.5187 24.6034 48.4414C24.6034 47.3097 25.5242 46.3889 26.6558 46.3889H27.9051C29.0367 46.3889 29.9575 47.3097 29.9575 48.4414V48.443V50.5905C29.9575 51.2777 30.5146 51.8348 31.2018 51.8348C31.889 51.8348 32.4461 51.2777 32.4461 50.5905V33.1599C32.4461 31.6837 33.6471 30.4827 35.1232 30.4827C36.5993 30.4827 37.8002 31.6837 37.8002 33.1599V45.1652H37.8001Z" fill="#4351D8"/>
<path d="M9.65674 73.2805C9.17976 72.6725 8.91713 71.9123 8.91713 71.1398V66.2902C8.91713 65.603 8.36001 65.0459 7.67283 65.0459C6.98564 65.0459 6.42853 65.603 6.42853 66.2902V71.1398C6.42853 72.4666 6.87963 73.7724 7.69854 74.8165L9.53811 77.1618V83.7557C9.53811 84.4429 10.0952 85 10.7824 85C11.4696 85 12.0267 84.4429 12.0267 83.7557V76.7321C12.0267 76.4537 11.9333 76.1832 11.7614 75.9641L9.65674 73.2805Z" fill="#4351D8"/>
<path d="M65.1712 14.5518L58.692 12.3579L54.7818 8.4473C54.2959 7.96136 53.508 7.96119 53.0222 8.4473C52.5361 8.93324 52.5361 9.72096 53.022 10.2069L56.258 13.4431L49.4604 20.2408C48.9744 20.7267 48.9744 21.5146 49.4604 22.0004C49.7034 22.2432 50.0219 22.3649 50.3403 22.3649C50.6587 22.3649 50.9772 22.2434 51.2203 22.0004L58.3511 14.8695L64.3732 16.9087C64.776 17.0451 64.8945 17.3807 64.9266 17.5186C64.9588 17.6564 65.0013 18.0098 64.7007 18.3106L44.7027 38.309C44.488 38.5236 44.2436 38.5601 44.074 38.5535C43.3917 38.5226 42.8075 39.0577 42.7785 39.7444C42.7494 40.4309 43.2827 41.0111 43.9694 41.0399C44.0181 41.0421 44.0667 41.0431 44.1152 41.0431C45.0023 41.0431 45.831 40.7003 46.4624 40.0689L52.2522 34.2789C53.3215 35.2276 54.6826 35.747 56.1241 35.747C57.685 35.747 59.1524 35.1392 60.2559 34.0357L60.4268 33.865C62.6204 31.6712 62.7008 28.1532 60.6701 25.861L66.4601 20.071C67.2812 19.2498 67.6138 18.0841 67.3495 16.9533C67.0856 15.822 66.2711 14.9244 65.1712 14.5518ZM58.6673 32.1047L58.4964 32.2754C57.8628 32.9092 57.0204 33.2581 56.1241 33.2581C55.364 33.2581 54.6423 33.0069 54.0541 32.544L58.9354 27.6627C59.9682 28.9784 59.8786 30.8934 58.6673 32.1047Z" fill="#4351D8"/>
<path d="M29.2091 9.17978C26.5978 14.4533 27.4809 21.0316 31.866 25.4167L31.9033 25.4542C32.1463 25.6978 32.4652 25.8197 32.7841 25.8197C33.1021 25.8197 33.42 25.6986 33.6629 25.4562C34.1493 24.9707 34.1503 24.183 33.6649 23.6966L33.6266 23.6583C29.0986 19.1303 29.0986 11.7631 33.6266 7.23519C35.6964 5.16517 38.446 3.96119 41.3686 3.84472C44.2741 3.72892 47.0952 4.6935 49.31 6.56061C49.8355 7.00358 50.6204 6.93689 51.0633 6.41113C51.5063 5.8857 51.4394 5.1008 50.914 4.65783C48.2228 2.38939 44.7959 1.21759 41.2695 1.35812C39.2646 1.43792 37.3271 1.93962 35.5673 2.81361L34.0694 1.31564C32.3152 -0.438484 29.4611 -0.438318 27.707 1.31564C26.8572 2.16542 26.3894 3.29524 26.3894 4.4969C26.3894 5.69856 26.8572 6.82838 27.707 7.67799L29.2091 9.17978ZM29.4669 3.07525C30.2507 2.29151 31.5262 2.29151 32.3099 3.07525L33.39 4.1553C32.8552 4.55613 32.3459 4.99628 31.8669 5.47525C31.3843 5.95787 30.9465 6.46853 30.5485 6.9996L29.4669 5.91789C29.0872 5.53829 28.8781 5.03344 28.8781 4.49657C28.8781 3.9597 29.0872 3.45501 29.4669 3.07525Z" fill="#4351D8"/>
<path d="M45.7722 23.9292L45.0401 24.6613C44.5541 25.1473 44.5541 25.9352 45.0401 26.4209C45.2831 26.6638 45.6017 26.7854 45.92 26.7854C46.2384 26.7854 46.557 26.664 46.8 26.4209L47.5322 25.6888C48.0181 25.2029 48.0181 24.415 47.5322 23.9292C47.0461 23.4433 46.2583 23.4433 45.7722 23.9292Z" fill="#4351D8"/>
<path d="M18.8946 26.3722C19.2192 26.3722 19.5437 26.2457 19.7876 25.9942C20.2661 25.501 20.2543 24.7133 19.7609 24.2348C18.3477 22.8637 17.5696 21.0298 17.5696 19.0709C17.5696 17.1121 18.3479 15.278 19.7611 13.9069C20.2543 13.4285 20.2661 12.6407 19.7876 12.1475C19.3091 11.6541 18.5214 11.6425 18.0282 12.121C16.1277 13.9647 15.081 16.4329 15.081 19.0709C15.081 21.709 16.1277 24.1772 18.0282 26.0209C18.2699 26.2554 18.5823 26.3722 18.8946 26.3722Z" fill="#4351D8"/>
<path d="M21.7515 22.6875C21.9842 22.8818 22.2671 22.9767 22.5485 22.9767C22.9045 22.9767 23.258 22.8246 23.5043 22.5301C23.9447 22.0025 23.8742 21.2179 23.3468 20.7775C22.8385 20.3529 22.547 19.7309 22.547 19.0709C22.547 18.411 22.8385 17.7888 23.3468 17.3643C23.8742 16.9238 23.9447 16.1391 23.5043 15.6116C23.0636 15.0841 22.2789 15.0137 21.7516 15.4542C20.6756 16.3529 20.0584 17.6712 20.0584 19.0708C20.0582 20.4707 20.6754 21.7888 21.7515 22.6875Z" fill="#4351D8"/>
<path d="M75.6243 12.1208C75.1307 11.6422 74.343 11.6543 73.8648 12.1473C73.3862 12.6406 73.3982 13.4283 73.8914 13.9068C75.3046 15.278 76.0828 17.1119 76.0828 19.0708C76.0828 21.0298 75.3046 22.8636 73.8914 24.2346C73.3982 24.7131 73.3862 25.5008 73.8648 25.9941C74.1089 26.2456 74.4332 26.3718 74.7581 26.3718C75.0702 26.3718 75.3827 26.255 75.6244 26.0206C77.5249 24.1767 78.5716 21.7085 78.5716 19.0706C78.5716 16.4327 77.5249 13.9648 75.6243 12.1208Z" fill="#4351D8"/>
<path d="M71.901 15.4542C71.3738 15.0139 70.589 15.0841 70.1485 15.6116C69.708 16.139 69.7784 16.9238 70.3058 17.3643C70.814 17.7888 71.1056 18.411 71.1056 19.0709C71.1056 19.7309 70.814 20.3529 70.3058 20.7773C69.7782 21.2178 69.7077 22.0025 70.1482 22.5299C70.3942 22.8247 70.7478 22.9767 71.104 22.9767C71.3852 22.9767 71.6681 22.882 71.9008 22.6875C72.9771 21.7888 73.5944 20.4707 73.5944 19.0708C73.5943 17.6712 72.9771 16.3529 71.901 15.4542Z" fill="#4351D8"/>
</g>
<defs>
<clipPath id="clip0">
<rect width="85" height="85" fill="white"/>
</clipPath>
</defs>
</svg>
