<svg width="12" height="12" viewBox="0 0 40 40" fill="none" xmlns="http://www.w3.org/2000/svg">
<path fill-rule="evenodd" clip-rule="evenodd" d="M32.0273 33.6357C35.8015 30.3041 38.1818 25.43 38.1818 20C38.1818 9.95846 30.0415 1.81818 20 1.81818C9.95846 1.81818 1.81818 9.95846 1.81818 20C1.81818 25.43 4.1985 30.304 7.97261 33.6356C9.78604 30.9752 12.459 28.9477 15.592 27.9526C12.7991 26.4012 10.9091 23.4213 10.9091 20C10.9091 14.9792 14.9792 10.9091 20 10.9091C25.0208 10.9091 29.0909 14.9792 29.0909 20C29.0909 23.4214 27.2009 26.4013 24.408 27.9527C27.5409 28.9478 30.2139 30.9753 32.0273 33.6357ZM30.6011 34.7731C28.3203 31.3479 24.4237 29.0909 19.9999 29.0909C15.5762 29.0909 11.6796 31.3478 9.39879 34.773C12.3831 36.9184 16.044 38.1818 20 38.1818C23.9559 38.1818 27.6168 36.9184 30.6011 34.7731ZM8.49755 36.3634C11.751 38.6546 15.7184 40 20 40C31.0457 40 40 31.0457 40 20C40 8.9543 31.0457 0 20 0C8.9543 0 0 8.9543 0 20C0 26.0972 2.72837 31.5571 7.03083 35.2255C7.03082 35.2255 7.03081 35.2255 7.03081 35.2256C7.50139 35.6268 7.9908 36.0066 8.49753 36.3634C8.49754 36.3634 8.49754 36.3634 8.49755 36.3634ZM20 27.2727C24.0166 27.2727 27.2727 24.0166 27.2727 20C27.2727 15.9834 24.0166 12.7273 20 12.7273C15.9834 12.7273 12.7273 15.9834 12.7273 20C12.7273 24.0166 15.9834 27.2727 20 27.2727Z" fill="white"/>
</svg>
