<svg width="20" height="20" viewBox="0 0 20 20" fill="none" xmlns="http://www.w3.org/2000/svg">
<g clip-path="url(#clip0)">
<path d="M10.0009 0C4.48692 0 0.000976562 4.48594 0.000976562 9.9999C0.000976562 15.5141 4.48692 20.0001 10.0009 20.0001C10.4135 20.0001 10.7478 19.6657 10.7478 19.2531C10.7478 18.8406 10.4135 18.5062 10.0009 18.5062C5.31067 18.5062 1.4949 14.6903 1.4949 9.9999C1.4949 5.30969 5.31067 1.49392 10.0009 1.49392C14.6911 1.49392 18.5069 5.30969 18.5069 9.9999V12.3135C18.5069 13.1772 17.8041 13.8798 16.9403 13.8798C16.0766 13.8798 15.374 13.1772 15.374 12.3135V9.9999C15.374 7.03696 12.9636 4.62647 10.0008 4.62647C7.03784 4.62647 4.62735 7.03696 4.62735 9.9999C4.62735 12.963 7.03784 15.3737 10.0008 15.3737C11.6452 15.3737 13.1186 14.6305 14.105 13.463C14.5603 14.5822 15.6593 15.3737 16.9403 15.3737C18.6278 15.3737 20.0008 14.0009 20.0008 12.3135V9.9999C20.0008 4.48594 15.5148 0 10.0009 0ZM10.0009 13.8798C7.86168 13.8798 6.12137 12.1393 6.12137 9.9999C6.12137 7.86071 7.86178 6.12039 10.0009 6.12039C12.14 6.12039 13.8802 7.86071 13.8802 9.9999C13.8802 12.1393 12.14 13.8798 10.0009 13.8798Z" fill="#4351D8"/>
</g>
<defs>
<clipPath id="clip0">
<rect width="20" height="20" fill="white"/>
</clipPath>
</defs>
</svg>
