<svg width="38" height="24" viewBox="0 0 38 24" fill="none" xmlns="http://www.w3.org/2000/svg">
<path d="M36.1309 0H1.00463C0.477464 0 0.0512695 0.42685 0.0512695 0.953364V23.0466C0.0512695 23.5732 0.477464 24 1.00463 24H36.1309C36.6581 24 37.0843 23.5732 37.0843 23.0466V0.953364C37.0843 0.42685 36.6581 0 36.1309 0ZM2.91858 7.25252H6.87104C7.40411 7.27285 7.83358 7.44267 7.98177 8.01246L8.84137 12.1465C7.99685 9.9841 5.9616 8.1849 2.88579 7.44004L2.91858 7.25252ZM7.70113 16.6813L5.41804 8.88124C7.05922 9.93164 8.45714 11.5984 8.94956 12.7583L9.21576 13.7215L11.7126 7.34235H14.414L10.3993 16.6793L7.70113 16.6813ZM16.3994 16.6878H13.8501L15.4441 7.33251H17.9947L16.3994 16.6878ZM20.8358 16.8281C19.6929 16.8163 18.592 16.5901 17.9954 16.3285L18.354 14.2349L18.6825 14.3837C19.5198 14.7332 20.0621 14.8748 21.083 14.8748C21.8154 14.8748 22.6002 14.5883 22.6075 13.9615C22.612 13.5517 22.279 13.2592 21.2863 12.8003C20.3185 12.3531 19.0373 11.603 19.053 10.2595C19.0668 8.44128 20.8424 7.17253 23.3621 7.17253C24.3496 7.17253 25.141 7.37579 25.6459 7.56528L25.3017 9.59331L25.0715 9.48512C24.602 9.29629 23.9982 9.11401 23.1635 9.12712C22.1655 9.12712 21.7026 9.54282 21.7026 9.93164C21.6974 10.3696 22.2429 10.6581 23.1346 11.0922C24.6053 11.7597 25.2853 12.5695 25.2761 13.6336C25.2564 15.5745 23.5169 16.8281 20.8358 16.8281ZM31.8841 16.6917C31.8841 16.6917 31.6513 15.6164 31.5739 15.2899C31.2028 15.2899 28.6011 15.286 28.3086 15.286C28.2096 15.5384 27.7729 16.6917 27.7729 16.6917H25.0958L28.881 8.11868C29.1499 7.50955 29.6056 7.34235 30.2167 7.34235H32.1863L34.2498 16.6911L31.8841 16.6917Z" fill="#73778D"/>
<path d="M30.5677 10.6722L30.3959 9.86572C30.2661 10.2178 30.0425 10.7837 30.0569 10.7588C30.0569 10.7588 29.2511 12.8353 29.0413 13.3736H31.1585C31.0562 12.9048 30.5677 10.6722 30.5677 10.6722Z" fill="#73778D"/>
</svg>
