<svg width="33" height="18" viewBox="0 0 33 18" fill="none" xmlns="http://www.w3.org/2000/svg">
<path fill-rule="evenodd" clip-rule="evenodd" d="M28.956 12.6176C28.956 12.6176 31.5432 15.1317 32.1832 16.2951C32.1957 16.3119 32.2054 16.3305 32.212 16.3502C32.4728 16.78 32.5368 17.1168 32.4088 17.3656C32.1928 17.7765 31.4616 17.9827 31.2136 18H26.6408C26.3224 18 25.66 17.9181 24.8536 17.3703C24.2376 16.9468 23.6248 16.2494 23.0312 15.5678C22.1448 14.5555 21.3784 13.6771 20.6024 13.6771C20.5044 13.6769 20.4071 13.6929 20.3144 13.7243C19.7272 13.9069 18.9816 14.7303 18.9816 16.9232C18.9816 17.6096 18.4312 18 18.0456 18H15.9512C15.2376 18 11.5224 17.7544 8.22801 14.3367C4.1912 10.1524 0.5656 1.75844 0.5304 1.68445C0.3048 1.14133 0.778401 0.845374 1.2904 0.845374H5.90801C6.52721 0.845374 6.72881 1.21375 6.86961 1.54434C7.03281 1.92374 7.63761 3.44132 8.62961 5.14623C10.236 7.92006 11.2232 9.0488 12.012 9.0488C12.1602 9.04923 12.3059 9.01122 12.4344 8.93861C13.4648 8.38132 13.2728 4.76054 13.2248 4.01434C13.2248 3.86951 13.2232 2.39759 12.6952 1.68602C12.3176 1.17597 11.6744 0.97761 11.2856 0.905195C11.3896 0.757215 11.6104 0.530523 11.8936 0.396711C12.5992 0.0503758 13.8744 0 15.14 0H15.8424C17.2152 0.018891 17.5704 0.105475 18.0696 0.229841C19.0744 0.465979 19.0936 1.1067 19.0056 3.28861C18.98 3.91202 18.9528 4.61413 18.9528 5.44062C18.9528 5.61693 18.9448 5.81371 18.9448 6.01364C18.9144 7.13294 18.8744 8.39391 19.6776 8.91184C19.7818 8.97569 19.9021 9.00951 20.0248 9.00945C20.3032 9.00945 21.1368 9.00945 23.3976 5.19188C24.3896 3.50586 25.1576 1.51758 25.2104 1.36803C25.2552 1.28459 25.3896 1.05003 25.5528 0.955571C25.6689 0.894797 25.799 0.864438 25.9304 0.867413H31.3624C31.9544 0.867413 32.356 0.955571 32.4344 1.17597C32.5656 1.53332 32.4088 2.62428 29.9288 5.92391C29.5112 6.47332 29.1448 6.94875 28.8232 7.36435C26.5752 10.2673 26.5752 10.4137 28.956 12.6176Z" fill="#3E425B"/>
</svg>
