<svg width="41" height="28" viewBox="0 0 41 28" fill="none" xmlns="http://www.w3.org/2000/svg">
<path d="M39.639 4.37389C39.4116 3.52692 38.9657 2.75454 38.346 2.13405C37.7262 1.51355 36.9544 1.0667 36.1078 0.838217C32.9912 1.70082e-07 20.4982 0 20.4982 0C20.4982 0 8.00521 -1.70082e-07 4.88865 0.833758C4.04161 1.0615 3.2694 1.5081 2.64957 2.12871C2.02974 2.74932 1.58411 3.5221 1.35744 4.36943C0.523681 7.49045 0.523682 14 0.523682 14C0.523682 14 0.523681 20.5096 1.35744 23.6261C1.81668 25.3471 3.17209 26.7025 4.88865 27.1618C8.00521 28 20.4982 28 20.4982 28C20.4982 28 32.9912 28 36.1078 27.1618C37.8288 26.7025 39.1797 25.3471 39.639 23.6261C40.4727 20.5096 40.4727 14 40.4727 14C40.4727 14 40.4727 7.49045 39.639 4.37389ZM16.5301 19.9745V8.02548L26.874 13.9554L16.5301 19.9745Z" fill="#3E425B"/>
</svg>
