<svg width="35" height="35" viewBox="0 0 35 35" fill="none" xmlns="http://www.w3.org/2000/svg">
<g clip-path="url(#clip0)">
<path d="M20.2592 13.5766H15.8876V9.1973C15.8876 8.59339 15.3985 8.1022 14.7946 8.1022C14.1907 8.1022 13.7018 8.5923 13.7018 9.1973V13.5766H9.33117C8.72726 13.5766 8.2383 13.7757 8.2383 14.3807C8.2383 14.9857 8.72732 15.7668 9.33117 15.7668H13.7028V20.145C13.7028 20.75 14.1919 21.2401 14.7957 21.2401C15.3996 21.2401 15.8886 20.75 15.8886 20.145V15.7668H20.2603C20.8642 15.7668 21.3532 15.2767 21.3532 14.6717C21.3521 14.0667 20.8631 13.5766 20.2592 13.5766ZM34.6673 33.0958L25.6308 24.2038C27.9971 21.6329 29.451 18.2328 29.451 14.4913C29.451 6.48742 22.8586 0 14.7257 0C6.59287 0 0.000396729 6.48742 0.000396729 14.4912C0.000396729 22.495 6.59287 28.9824 14.7257 28.9824C18.2397 28.9824 21.4626 27.767 23.9942 25.7463L33.0656 34.6734C33.5076 35.1088 34.2252 35.1088 34.6673 34.6734C35.1103 34.238 35.1103 33.5313 34.6673 33.0958ZM14.7257 26.7528C7.84444 26.7528 2.26609 21.2631 2.26609 14.4912C2.26609 7.71926 7.84444 2.22956 14.7257 2.22956C21.607 2.22956 27.1853 7.71926 27.1853 14.4912C27.1853 21.2631 21.607 26.7528 14.7257 26.7528Z" fill="#4351D8"/>
</g>
<defs>
<clipPath id="clip0">
<rect width="34.9999" height="35" fill="white"/>
</clipPath>
</defs>
</svg>
