<svg width="35" height="35" viewBox="0 0 35 35" fill="none" xmlns="http://www.w3.org/2000/svg">
<g clip-path="url(#clip0)">
<path d="M34.6014 32.6771L26.0595 24.1355C28.1827 21.5823 29.4618 18.3038 29.4618 14.7314C29.462 6.60849 22.8537 0 14.7311 0C6.60831 0 0 6.60849 0 14.7314C0 22.8539 6.60831 29.4618 14.7311 29.4618C18.3034 29.4618 21.582 28.1829 24.1352 26.0599L32.6771 34.6014C32.9427 34.8672 33.291 35 33.6392 35C33.9874 35 34.3358 34.8672 34.6014 34.6014C35.133 34.07 35.133 33.2085 34.6014 32.6771ZM2.72156 14.7314C2.72156 8.10916 8.10898 2.72156 14.7311 2.72156C21.353 2.72156 26.7402 8.10916 26.7402 14.7314C26.7402 21.3532 21.353 26.7402 14.7311 26.7402C8.10898 26.7402 2.72156 21.3532 2.72156 14.7314Z" fill="#4351D8"/>
<path d="M21.416 13.37H8.04602C7.29451 13.37 6.68524 13.9793 6.68524 14.7308C6.68524 15.4823 7.29451 16.0916 8.04602 16.0916H21.416C22.1675 16.0916 22.7767 15.4823 22.7767 14.7308C22.7767 13.9793 22.1675 13.37 21.416 13.37Z" fill="#4351D8"/>
</g>
<defs>
<clipPath id="clip0">
<rect width="35" height="35" fill="white"/>
</clipPath>
</defs>
</svg>
